<svg width="50" height="50" viewBox="0 0 50 50" fill="none" xmlns="http://www.w3.org/2000/svg">
<path d="M14.5834 18.7513C13.4376 18.7513 12.457 18.3437 11.6417 17.5284C10.8265 16.7131 10.4181 15.7319 10.4167 14.5846C10.4167 13.4388 10.8251 12.4582 11.6417 11.643C12.4584 10.8277 13.439 10.4194 14.5834 10.418C15.7292 10.418 16.7105 10.8263 17.5272 11.643C18.3438 12.4596 18.7515 13.4402 18.7501 14.5846C18.7501 15.7305 18.3424 16.7117 17.5272 17.5284C16.7119 18.3451 15.7306 18.7527 14.5834 18.7513ZM10.4167 45.8346C9.82647 45.8346 9.33203 45.6346 8.93342 45.2346C8.5348 44.8346 8.3348 44.3402 8.33342 43.7513C7.18758 43.7513 6.20703 43.3437 5.39175 42.5284C4.57647 41.7131 4.16814 40.7319 4.16675 39.5846V27.0846H10.4167V25.5221C10.4167 24.2027 10.8681 23.0916 11.7709 22.1888C12.6737 21.286 13.7848 20.8346 15.1042 20.8346C15.7987 20.8346 16.4411 20.9735 17.0313 21.2513C17.6216 21.5291 18.1598 21.911 18.6459 22.3971L21.5626 25.6263C21.8404 25.9041 22.1098 26.1645 22.3709 26.4076C22.632 26.6506 22.9181 26.8763 23.2292 27.0846H37.5001V10.1055C37.5001 9.61936 37.3265 9.20269 36.9793 8.85547C36.632 8.50825 36.2154 8.33464 35.7292 8.33464C35.5209 8.33464 35.3209 8.37839 35.1292 8.46589C34.9376 8.55339 34.7556 8.68325 34.5834 8.85547L31.9793 11.4596C32.1529 12.0499 32.1876 12.6319 32.0834 13.2055C31.9792 13.7791 31.7709 14.3082 31.4584 14.793L25.7292 8.95964C26.2154 8.64714 26.7362 8.44714 27.2917 8.35964C27.8473 8.27214 28.4029 8.33325 28.9584 8.54297L31.5626 5.9388C32.1181 5.38325 32.7522 4.94922 33.4647 4.63672C34.1772 4.32422 34.932 4.16797 35.7292 4.16797C37.3959 4.16797 38.8022 4.74089 39.948 5.88672C41.0938 7.03255 41.6668 8.4388 41.6668 10.1055V27.0846H45.8334V39.5846C45.8334 40.7305 45.4258 41.7117 44.6105 42.5284C43.7952 43.3451 42.814 43.7527 41.6668 43.7513C41.6668 44.3416 41.4668 44.8367 41.0667 45.2367C40.6668 45.6367 40.1723 45.836 39.5834 45.8346H10.4167Z" fill="#005250"/>
</svg>
