<svg width="50" height="50" viewBox="0 0 50 50" fill="none" xmlns="http://www.w3.org/2000/svg">
<path d="M18.75 45.8346H35.4167V40.6263C40.4375 37.2305 43.75 31.5013 43.75 25.0013V8.33464C43.75 7.22957 43.311 6.16976 42.5296 5.38836C41.7482 4.60696 40.6884 4.16797 39.5833 4.16797H31.25C30.1449 4.16797 29.0851 4.60696 28.3037 5.38836C27.5223 6.16976 27.0833 7.22957 27.0833 8.33464V25.0013H6.25C6.25 31.4388 10.4167 37.5013 18.75 40.6263V45.8346ZM11.0208 29.168H38.9792C38.394 31.1288 37.4036 32.9449 36.0722 34.4989C34.7408 36.0528 33.0979 37.3099 31.25 38.1888V41.668H22.9167V38.1888C18.75 37.5013 12.2083 33.1471 11.0208 29.168ZM31.25 8.33464H39.5833V25.0013H31.25V8.33464ZM33.3333 10.418V16.668H37.5V10.418H33.3333Z" fill="#005250"/>
</svg>
