<svg width="50" height="50" viewBox="0 0 50 50" fill="none" xmlns="http://www.w3.org/2000/svg">
<path d="M13.2813 46.0938C13.2813 46.7118 13.098 47.316 12.7546 47.8299C12.4112 48.3438 11.9232 48.7444 11.3521 48.9809C10.7811 49.2174 10.1528 49.2793 9.54659 49.1587C8.9404 49.0381 8.38358 48.7405 7.94654 48.3035C7.5095 47.8664 7.21188 47.3096 7.0913 46.7034C6.97072 46.0972 7.0326 45.4689 7.26913 44.8979C7.50565 44.3269 7.90619 43.8388 8.42009 43.4954C8.934 43.152 9.53819 42.9688 10.1563 42.9688C10.9851 42.9688 11.7799 43.298 12.366 43.8841C12.952 44.4701 13.2813 45.265 13.2813 46.0938ZM16.4063 36.7188C15.7882 36.7188 15.184 36.902 14.6701 37.2454C14.1562 37.5888 13.7557 38.0769 13.5191 38.6479C13.2826 39.2189 13.2207 39.8472 13.3413 40.4534C13.4619 41.0596 13.7595 41.6164 14.1965 42.0535C14.6336 42.4905 15.1904 42.7881 15.7966 42.9087C16.4028 43.0293 17.0311 42.9674 17.6021 42.7309C18.1732 42.4944 18.6612 42.0938 19.0046 41.5799C19.348 41.066 19.5313 40.4618 19.5313 39.8438C19.5313 39.015 19.202 38.2201 18.616 37.6341C18.0299 37.048 17.2351 36.7188 16.4063 36.7188ZM3.90625 36.7188C3.28818 36.7188 2.684 36.902 2.17009 37.2454C1.65619 37.5888 1.25565 38.0769 1.01913 38.6479C0.782604 39.2189 0.720719 39.8472 0.841297 40.4534C0.961876 41.0596 1.2595 41.6164 1.69654 42.0535C2.13358 42.4905 2.6904 42.7881 3.29659 42.9087C3.90279 43.0293 4.53112 42.9674 5.10214 42.7309C5.67316 42.4944 6.16121 42.0938 6.50459 41.5799C6.84797 41.066 7.03125 40.4618 7.03125 39.8438C7.03125 39.015 6.70201 38.2201 6.11596 37.6341C5.52991 37.048 4.73505 36.7188 3.90625 36.7188ZM10.1563 36.7188C10.7743 36.7188 11.3785 36.5355 11.8924 36.1921C12.4063 35.8487 12.8069 35.3607 13.0434 34.7897C13.2799 34.2186 13.3418 33.5903 13.2212 32.9841C13.1006 32.3779 12.803 31.8211 12.366 31.3841C11.9289 30.947 11.3721 30.6494 10.7659 30.5288C10.1597 30.4082 9.53138 30.4701 8.96037 30.7066C8.38935 30.9432 7.90129 31.3437 7.55791 31.8576C7.21453 32.3715 7.03125 32.9757 7.03125 33.5938C7.03125 34.4226 7.36049 35.2174 7.94654 35.8035C8.53259 36.3895 9.32745 36.7188 10.1563 36.7188ZM50 7.81251C50 8.43412 49.7531 9.03026 49.3135 9.4698C48.874 9.90933 48.2779 10.1563 47.6562 10.1563H43.1641L38.123 15.1934L33.9336 39.7129C33.8138 40.4196 33.5018 41.0797 33.0319 41.621C32.562 42.1622 31.9522 42.5637 31.2693 42.7815C30.5864 42.9993 29.8568 43.0251 29.1603 42.8559C28.4637 42.6867 27.8272 42.3291 27.3203 41.8223L8.17969 22.6817C7.67167 22.1744 7.31327 21.5369 7.14384 20.8393C6.97442 20.1417 7.00053 19.4108 7.2193 18.7271C7.43807 18.0433 7.84105 17.4331 8.38397 16.9633C8.92689 16.4936 9.58875 16.1826 10.2969 16.0645L34.8086 11.877L40.0723 6.6133C40.434 6.24932 40.8644 5.96075 41.3384 5.76428C41.8125 5.56782 42.3208 5.46737 42.834 5.46876H47.6562C48.2779 5.46876 48.874 5.71569 49.3135 6.15523C49.7531 6.59477 50 7.19091 50 7.81251ZM33.0703 16.9297L12.5625 20.4336L29.5684 37.4395L33.0703 16.9297Z" fill="#005250"/>
</svg>
