<svg width="376" height="376" viewBox="0 0 376 376" fill="none" xmlns="http://www.w3.org/2000/svg"><circle cx="188" cy="188" r="188" fill="url(#paint0_linear_2379_1739)"/><path d="M114.16 283.366V314.691C114.16 325.718 123.084 334.664 134.111 334.691L218.989 334.902C240.954 334.956 258.852 317.291 258.8 295.326C258.711 257.507 258.108 217.216 257.431 196.03C256.505 167.048 214.342 148.785 171.098 142.698C132.568 137.274 131.353 71.0291 183.289 68.8798C209.771 67.7838 225.487 93.3203 228.397 121.928C229.53 133.069 259.91 128.414 260.83 116.915C263.695 81.0979 230.21 33.4216 174.334 42.0175C132.427 48.4644 114.52 87.467 114.16 108.995C113.893 124.986 114.022 194.695 114.107 229.49C114.134 240.512 123.078 249.397 134.1 249.397H150.016C153.873 249.397 157 252.524 157 256.382C157 260.239 153.873 263.366 150.016 263.366H134.16C123.114 263.366 114.16 272.32 114.16 283.366Z" fill="#E8A646"/><path d="M194.186 306C190.41 306 186.792 305.476 183.331 304.429C179.87 303.381 176.723 301.967 173.892 300.186C171.165 298.406 168.857 296.363 166.969 294.059C165.684 292.322 164.699 290.559 164.013 288.769C163.569 287.608 164.255 286.364 165.431 285.962C167.054 285.406 168.718 286.689 168.593 288.4L167.781 299.48C167.589 302.093 165.414 304.115 162.794 304.115H149C146.239 304.115 144 301.876 144 299.115V193C144 190.239 146.239 188 149 188H164.329C167.091 188 169.329 190.239 169.329 193V237.385C169.329 239.042 167.683 240.196 166.125 239.63C164.991 239.218 164.326 238.017 164.727 236.878C165.415 234.924 166.425 233.087 167.756 231.366C169.539 228.957 171.794 226.862 174.521 225.081C177.248 223.196 180.237 221.729 183.488 220.682C186.74 219.634 190.096 219.111 193.557 219.111C200.794 219.111 207.192 220.996 212.75 224.767C218.414 228.433 222.872 233.566 226.123 240.165C229.374 246.66 231 254.097 231 262.477C231 270.961 229.374 278.503 226.123 285.103C222.977 291.597 218.624 296.73 213.065 300.501C207.506 304.167 201.213 306 194.186 306ZM187.579 284.788C191.354 284.788 194.658 283.846 197.49 281.96C200.322 280.075 202.472 277.508 203.94 274.261C205.514 270.909 206.3 266.981 206.3 262.477C206.3 258.077 205.514 254.202 203.94 250.85C202.472 247.498 200.322 244.931 197.49 243.15C194.658 241.37 191.354 240.479 187.579 240.479C183.698 240.479 180.342 241.37 177.51 243.15C174.678 244.931 172.476 247.498 170.902 250.85C169.329 254.202 168.542 258.077 168.542 262.477C168.542 266.981 169.329 270.909 170.902 274.261C172.476 277.508 174.678 280.075 177.51 281.96C180.342 283.846 183.698 284.788 187.579 284.788Z" fill="url(#paint1_linear_2379_1739)"/><defs><linearGradient id="paint0_linear_2379_1739" x1="188" y1="0" x2="188" y2="376" gradientUnits="userSpaceOnUse"><stop stop-color="#004C4B"/><stop offset="1" stop-color="#023539"/></linearGradient><linearGradient id="paint1_linear_2379_1739" x1="184.606" y1="138.555" x2="184.606" y2="350.918" gradientUnits="userSpaceOnUse"><stop stop-color="#004C4B"/><stop offset="1" stop-color="#023539"/></linearGradient></defs></svg>