<?xml version="1.0" encoding="UTF-8"?>
<svg xmlns="http://www.w3.org/2000/svg" viewBox="0 0 50 32">
  <defs>
    <style>
      .cls-1 {
        fill: #fff;
      }

      .cls-2 {
        fill: #1492fd;
      }
    </style>
  </defs>
  <g id="BG">
    <rect class="cls-1" y="0" width="50" height="32" rx="4" ry="4"/>
  </g>
  <g id="LOGOS">
    <g>
      <path class="cls-2" d="m4,20.07c.04.06.02.12.05.22.05-.23.08-.43.17-.61.33-.7.87-1.16,1.61-1.38.15-.05.19-.02.18.13,0,.14.01.27-.01.41-.01.07-.05.11-.12.13-.71.27-1.12.79-1.21,1.53-.13,1.03.63,1.95,1.66,2.05.11.01.22.02.33.02,2.92,0,5.85,0,8.77,0,.56,0,1.06-.16,1.45-.56.79-.8.72-2.06-.16-2.77-.32-.26-.71-.38-1.12-.4-.19-.01-.23-.01-.2-.24.06-.54,0-1.06-.14-1.58-.05-.19-.12-.38-.2-.56-.05-.1-.04-.18.02-.27.07-.1.13-.2.2-.29.09-.13.16-.13.23.01.15.29.27.59.36.9.12.41.18.83.19,1.25,0,.13.05.2.19.24.98.27,1.7,1.1,1.81,2.1.15,1.34-.67,2.36-1.8,2.71-.22.07-.46.09-.69.09-3.01,0-6.03.01-9.04,0-1.01,0-1.78-.47-2.25-1.38-.12-.24-.2-.5-.22-.79-.02.06-.03.1-.05.15,0-.37,0-.75,0-1.12Z"/>
      <path class="cls-2" d="m12.12,8.79s-.06.03-.06.04c0,.03.03.04.06.05.08.02.17.04.25.06,1.18.33,2.04,1.06,2.65,2.11.26.46.43.95.52,1.47.15.86-.57,1.73-1.44,1.73-.6,0-1.2,0-1.8,0-.04,0-.09.02-.12-.02-.03-.05.03-.08.05-.12.19-.28.3-.58.3-.92,0-.68,0-1.36-.01-2.05-.01-.37.02-.75-.04-1.12-.06-.4-.23-.75-.49-1.05-.06-.07-.1-.17-.2-.2.11,0,.22,0,.33,0Z"/>
      <path class="cls-2" d="m11.03,8.79s-.11.01-.18.05c.15.06.31.08.44.17.46.3.72.71.73,1.25.01.57,0,1.14,0,1.71,0,.04.02.1-.03.13-.05.03-.08-.03-.12-.05-.24-.17-.51-.27-.82-.27-1.01,0-2.02,0-3.03,0-.48,0-.9.17-1.27.47-.03.02-.06.07-.1.04-.04-.03-.01-.08,0-.11.28-1.1.9-1.97,1.82-2.63.5-.36,1.07-.56,1.67-.7,0,0,.02,0,.05-.02-.08-.02-.15,0-.21-.04h1.04Z"/>
      <path class="cls-2" d="m8.85,12.28c.3,0,.6,0,.91,0,.03,0,.08-.01.1.02.02.04-.02.07-.04.09-.18.24-.3.52-.3.82,0,2.13,0,4.27,0,6.4,0,.42-.09.79-.38,1.1-.43.46-.96.63-1.56.44-.58-.18-.94-.59-1.06-1.19-.01-.07,0-.14,0-.2,0-2.02,0-4.04,0-6.06,0-.65.48-1.24,1.12-1.37.09-.02.19-.05.28-.05.31,0,.62,0,.93,0h0Z"/>
      <path class="cls-2" d="m15.49,14.08s.02.08,0,.12c-.21.86-.61,1.61-1.25,2.24-.69.68-1.52,1.1-2.48,1.25-.52.08-1.04.06-1.55-.02-.13-.02-.18-.08-.18-.21,0-.98,0-1.96,0-2.93,0-.04-.01-.08.02-.1.04-.03.08.01.11.04.27.2.58.26.91.26.93,0,1.86,0,2.78,0,.61,0,1.15-.15,1.58-.6.01-.01.03-.02.05-.03Z"/>
      <path class="cls-2" d="m26.5,18.73c0,.08-.01.11-.07.1-.26-.04-.53-.02-.79-.02-.1,0-.15-.04-.18-.13-.16-.51-.34-1.02-.5-1.53-.03-.11-.09-.13-.2-.13-.29,0-.58,0-.88,0-.33,0-.66,0-.99,0-.15,0-.22.05-.26.19-.15.49-.32.98-.47,1.47-.03.11-.08.15-.21.15-.23-.01-.46-.01-.69,0-.12,0-.12-.03-.09-.12.13-.37.26-.74.39-1.11.35-1,.7-2,1.04-3,.22-.64.45-1.27.67-1.91.03-.09.09-.13.17-.12.26.02.51.03.77,0,.1,0,.16.06.19.16.31.9.62,1.79.93,2.69.37,1.07.74,2.13,1.11,3.2.02.05.03.1.04.13Zm-3.52-2.55c-.03.1.02.11.09.11.5,0,1.01,0,1.51,0,.1,0,.12-.05.08-.13-.04-.11-.08-.22-.11-.34-.22-.68-.44-1.36-.66-2.04-.01-.04-.02-.1-.07-.11-.06,0-.05.06-.07.1-.02.05-.05.11-.07.16-.18.56-.36,1.12-.53,1.68-.06.19-.14.38-.17.56Z"/>
      <path class="cls-2" d="m32.62,15.7c0-.99,0-1.98,0-2.98,0-.11.03-.16.15-.16.77.03,1.54,0,2.3.02.82.01,1.42.38,1.73,1.13.27.66.25,1.33-.12,1.94-.3.51-.78.77-1.37.86-.33.05-.66.02-.99.03-.21,0-.42,0-.63,0-.13,0-.18.04-.17.17.04.58.02,1.15.02,1.73,0,.37,0,.37-.36.37-.16,0-.31,0-.47,0-.08,0-.11-.03-.11-.11,0-1,0-2,0-3h0Zm1.72-2.32c-.24,0-.44,0-.63,0-.14,0-.19.04-.18.18.04.51.02,1.02.02,1.53,0,.15-.02.31-.02.46,0,.17.02.2.2.2.18,0,.37,0,.55,0,.27,0,.53,0,.79-.06.57-.12.81-.37.91-.93.04-.22,0-.43-.06-.65-.1-.36-.33-.59-.7-.68-.31-.08-.62-.04-.89-.05Z"/>
      <path class="cls-2" d="m41,16.99c0,.55,0,1.11,0,1.66,0,.13-.04.17-.17.16-.19-.01-.38,0-.58,0-.11,0-.16-.04-.15-.15,0-.11,0-.23,0-.34,0-.03,0-.06-.03-.07-.04-.02-.05.02-.07.05-.36.49-.86.64-1.45.59-.45-.03-.84-.19-1.12-.55-.53-.69-.43-1.95.75-2.25.22-.06.44-.09.66-.09.36,0,.71,0,1.07,0,.11,0,.16-.03.14-.15-.02-.11,0-.23,0-.34,0-.49-.2-.72-.68-.8-.21-.03-.42-.04-.62.03-.26.09-.44.26-.51.53-.03.1-.08.14-.18.14-.2,0-.4,0-.6,0-.13,0-.16-.05-.14-.17.09-.65.53-1.12,1.17-1.25.46-.09.91-.13,1.37-.01.74.18,1.13.68,1.13,1.44,0,.53,0,1.06,0,1.58Zm-1.62-.31s0,0,0,0c-.18,0-.37,0-.55,0-.38.02-.68.26-.74.58-.06.36.13.66.5.81.49.2,1.14-.04,1.37-.48.14-.27.1-.56.1-.84,0-.07-.06-.08-.12-.08-.19,0-.37,0-.56,0Z"/>
      <path class="cls-2" d="m42.09,14c.13,0,.26,0,.38,0,.09,0,.14.03.17.12.36,1.22.73,2.43,1.1,3.65.01.04.01.11.06.11.05,0,.05-.07.07-.11.22-.71.43-1.43.65-2.14.16-.51.32-1.02.47-1.53.03-.09.07-.12.17-.12.24.02.48.02.73,0,.11,0,.12.04.1.12-.06.18-.11.36-.18.54-.5,1.42-.99,2.84-1.49,4.25-.14.39-.28.77-.55,1.09-.29.36-.66.54-1.12.56-.19,0-.38,0-.57-.03-.07,0-.12-.04-.12-.12,0-.16,0-.33,0-.49,0-.08.04-.11.12-.11.17,0,.35.01.52-.03.23-.05.41-.18.52-.39.14-.27.2-.54.08-.85-.41-1.1-.8-2.21-1.19-3.31-.13-.36-.26-.71-.38-1.07-.05-.15-.03-.17.12-.17.12,0,.24,0,.36,0Z"/>
      <path class="cls-2" d="m30.45,14.54c.11-.05.11-.16.17-.23.21-.26.5-.37.82-.39.13,0,.27,0,.4,0,.1,0,.13.05.13.13,0,.2,0,.39,0,.59,0,.1-.04.14-.14.12-.17-.03-.34-.04-.5,0-.57.12-.86.47-.86,1.06,0,.93,0,1.86,0,2.78,0,.05,0,.09,0,.14,0,.07-.04.1-.11.09-.23-.03-.47-.02-.7-.01-.1,0-.14-.02-.13-.13,0-.38,0-.76,0-1.15,0-1.11,0-2.23,0-3.34,0-.2,0-.2.2-.2.2,0,.4,0,.6,0,.1,0,.14.03.13.12,0,.14,0,.27,0,.42Z"/>
      <path class="cls-2" d="m27.29,16.41c0-.76,0-1.53,0-2.29,0-.1.04-.12.12-.12.23,0,.47,0,.7,0,.06,0,.09.03.1.09,0,.03,0,.06,0,.1,0,1.48,0,2.96,0,4.44,0,.2,0,.2-.21.2-.21,0-.41,0-.62,0-.07,0-.1,0-.1-.09,0-.77,0-1.55,0-2.32h0Z"/>
      <path class="cls-2" d="m27.21,12.82c0-.33.21-.54.55-.55.34,0,.55.21.55.54,0,.3-.26.56-.56.56-.31,0-.54-.24-.54-.55Z"/>
    </g>
  </g>
</svg>