<svg width="38" height="30" viewBox="0 0 38 30" fill="none" xmlns="http://www.w3.org/2000/svg">
<path d="M25.9173 7.89301C25.5986 7.89301 25.3228 7.78943 25.0899 7.58228C24.857 7.37513 24.7406 7.12981 24.7406 6.84634C24.7406 6.29029 24.857 5.75605 25.0899 5.24362C25.3228 4.73119 25.666 4.27872 26.1195 3.88622L27.572 2.57788C28.0378 2.16357 28.2707 1.66749 28.2707 1.08964C28.2707 0.806167 28.3871 0.560853 28.62 0.3537C28.8529 0.146546 29.1287 0.0429688 29.4474 0.0429688C29.7661 0.0429688 30.0419 0.146546 30.2748 0.3537C30.5077 0.560853 30.6241 0.806167 30.6241 1.08964C30.6241 1.64569 30.5077 2.17992 30.2748 2.69236C30.0419 3.20479 29.6987 3.65726 29.2452 4.04976L27.7927 5.3581C27.3269 5.77241 27.094 6.26849 27.094 6.84634C27.094 7.12981 26.9775 7.37513 26.7447 7.58228C26.5118 7.78943 26.236 7.89301 25.9173 7.89301ZM18.857 7.89301C18.5383 7.89301 18.2626 7.78943 18.0297 7.58228C17.7968 7.37513 17.6803 7.12981 17.6803 6.84634C17.6803 6.29029 17.7968 5.75605 18.0297 5.24362C18.2626 4.73119 18.6058 4.27872 19.0593 3.88622L20.5118 2.57788C20.9776 2.16357 21.2105 1.66749 21.2105 1.08964C21.2105 0.806167 21.3269 0.560853 21.5598 0.3537C21.7927 0.146546 22.0685 0.0429688 22.3872 0.0429688C22.7059 0.0429688 22.9816 0.146546 23.2145 0.3537C23.4474 0.560853 23.5639 0.806167 23.5639 1.08964C23.5639 1.64569 23.4474 2.17992 23.2145 2.69236C22.9816 3.20479 22.6384 3.65726 22.1849 4.04976L20.7324 5.3581C20.2666 5.77241 20.0337 6.26849 20.0337 6.84634C20.0337 7.12981 19.9173 7.37513 19.6844 7.58228C19.4515 7.78943 19.1757 7.89301 18.857 7.89301ZM34.1542 10.7714C34.6445 10.7714 35.1042 10.8531 35.5332 11.0167C35.9622 11.1802 36.3361 11.4037 36.6547 11.6872C36.9734 11.9707 37.2247 12.3032 37.4086 12.6848C37.5924 13.0664 37.6844 13.4753 37.6844 13.9114V20.1914C37.6844 20.6275 37.5924 21.0364 37.4086 21.418C37.2247 21.7996 36.9734 22.1321 36.6547 22.4156C36.3361 22.6991 35.9622 22.9226 35.5332 23.0861C35.1042 23.2497 34.6445 23.3314 34.1542 23.3314H33.1062C33.0817 23.4077 33.0633 23.4786 33.0511 23.544C33.0388 23.6094 33.0143 23.6749 32.9775 23.7403V24.3781C32.9775 25.0977 32.8243 25.7737 32.5179 26.406C32.2114 27.0384 31.7886 27.5944 31.2492 28.0742C30.7099 28.5539 30.0848 28.93 29.3739 29.2026C28.6629 29.4752 27.903 29.6115 27.094 29.6115H20.0337C19.0777 29.6115 18.1951 29.4207 17.3862 29.0391C16.5772 28.6575 15.903 28.1505 15.3637 27.5181H6.17065C5.36166 27.5181 4.60171 27.3818 3.89078 27.1093C3.17985 26.8367 2.55472 26.466 2.0154 25.9972C1.47607 25.5283 1.0532 24.9723 0.746761 24.329C0.440327 23.6858 0.287109 23.0043 0.287109 22.2848V21.2381H4.99394C4.99394 20.3768 5.1778 19.5645 5.54552 18.8013C5.91325 18.0381 6.42193 17.373 7.07157 16.8061C7.72121 16.2391 8.46891 15.7867 9.31467 15.4487C10.1604 15.1107 11.0736 14.9471 12.0542 14.958C12.4219 14.958 12.7774 14.9853 13.1206 15.0398C13.4638 15.0943 13.807 15.1707 14.1502 15.2688V8.67801H32.9775V10.7714H34.1542ZM12.0542 17.0514C11.4046 17.0514 10.7978 17.1604 10.234 17.3785C9.67013 17.5965 9.16758 17.8964 8.72631 18.278C8.28505 18.6596 7.94797 19.1011 7.71508 19.6027C7.48219 20.1042 7.35962 20.6493 7.34736 21.2381H14.1502V17.5093C13.8315 17.3676 13.5006 17.2585 13.1574 17.1822C12.8141 17.1059 12.4464 17.0623 12.0542 17.0514ZM6.17065 25.4248H14.2789C14.1931 25.1086 14.1502 24.7597 14.1502 24.3781V23.3314H2.84277C2.96535 23.6367 3.13695 23.9147 3.35758 24.1655C3.57822 24.4163 3.82949 24.6398 4.11141 24.836C4.39333 25.0323 4.71202 25.174 5.06749 25.2612C5.42295 25.3485 5.79067 25.403 6.17065 25.4248ZM14.6834 26.5205V26.5369L14.7018 26.5696V26.5532L14.6834 26.5205ZM30.6241 24.3781V10.7714H16.5036V24.3781C16.5036 24.8142 16.5955 25.2231 16.7794 25.6047C16.9633 25.9863 17.2145 26.3188 17.5332 26.6023C17.8519 26.8858 18.2258 27.1093 18.6548 27.2728C19.0838 27.4363 19.5434 27.5181 20.0337 27.5181H27.094C27.5843 27.5181 28.0439 27.4363 28.4729 27.2728C28.902 27.1093 29.2758 26.8858 29.5945 26.6023C29.9132 26.3188 30.1645 25.9863 30.3483 25.6047C30.5322 25.2231 30.6241 24.8142 30.6241 24.3781ZM35.331 20.1914V13.9114C35.331 13.6279 35.2145 13.3826 34.9816 13.1754C34.7487 12.9683 34.4729 12.8647 34.1542 12.8647H32.9775V21.2381H34.1542C34.4729 21.2381 34.7487 21.1345 34.9816 20.9274C35.2145 20.7202 35.331 20.4749 35.331 20.1914Z" fill="#005250"/>
</svg>
