<svg width="40" height="34" viewBox="0 0 40 34" fill="none" xmlns="http://www.w3.org/2000/svg">
<path d="M35.552 0.59375L35.5499 32.1226C36.1143 33.0515 36.6983 33.4086 37.188 33.4062C37.674 33.404 38.2517 33.0425 38.8052 32.1415L37.2937 16.0378L37.2761 15.8416L37.3971 15.6853C39.134 13.4566 39.7409 9.60611 39.2455 6.34931C38.9977 4.72082 38.4791 3.24689 37.7529 2.20493C37.1439 1.33113 36.4174 0.773727 35.5522 0.59375H35.552ZM5.00563 0.594078L5.00432 6.10059L3.97401 6.09928V0.594406H2.80055L2.80071 6.09952H1.76893V0.594406H0.57373V9.06233C0.573648 9.99888 1.08479 10.5182 1.88951 10.8393L2.22256 10.9723L2.21518 11.3308C2.05111 18.2682 1.88894 25.2055 1.72611 32.1428C2.2872 33.0609 2.86355 33.4085 3.34343 33.4062C3.82332 33.404 4.39918 33.0472 4.95313 32.1403C4.76323 25.2048 4.57333 18.2692 4.38375 11.3336L4.37391 10.9727L4.70802 10.8409C5.55491 10.5041 6.10575 9.93252 6.10575 9.06282V0.594078H5.00563ZM19.9999 3.79297C16.4972 3.79297 13.1379 5.18442 10.6611 7.66122C8.1843 10.138 6.79285 13.4973 6.79285 17C6.79285 20.5027 8.1843 23.862 10.6611 26.3388C13.1379 28.8156 16.4972 30.207 19.9999 30.207C23.5026 30.207 26.8619 28.8156 29.3387 26.3388C31.8155 23.862 33.2069 20.5027 33.2069 17C33.2069 13.4973 31.8155 10.138 29.3387 7.66122C26.8619 5.18442 23.5026 3.79297 19.9999 3.79297Z" fill="#005250"/>
</svg>
