<svg width="42" height="38" viewBox="0 0 42 38" fill="none" xmlns="http://www.w3.org/2000/svg">
<path d="M22.0139 0C22.0139 0 20.9092 0.520982 19.8056 1.2882C19.2539 1.6718 18.6954 2.11685 18.2538 2.62941C17.8123 3.14188 17.4524 3.75045 17.5071 4.46206C17.568 5.2529 18.1481 5.84186 18.767 6.19499C19.3857 6.54803 20.0884 6.76166 20.7501 6.97236C21.4119 7.18307 22.0329 7.39087 22.4269 7.61575C22.821 7.84056 22.9428 7.98621 22.9625 8.243C22.9648 8.27214 22.9269 8.42779 22.7398 8.64496C22.5526 8.86212 22.2517 9.11206 21.9368 9.33104C21.307 9.76876 20.6501 10.0825 20.6501 10.0825L21.3499 11.3441C21.3499 11.3441 22.1022 10.9901 22.8592 10.4639C23.2376 10.2008 23.6243 9.89464 23.9401 9.52812C24.2559 9.16145 24.5362 8.70577 24.4929 8.14233C24.432 7.35148 23.8519 6.76252 23.233 6.4094C22.6143 6.05627 21.9116 5.84273 21.2499 5.63202C20.5881 5.42131 19.9671 5.21352 19.5731 4.98863C19.179 4.76375 19.0572 4.61818 19.0375 4.36139C19.0239 4.184 19.1413 3.87554 19.454 3.51249C19.7668 3.14936 20.2397 2.76032 20.728 2.4209C21.7043 1.74215 22.7138 1.26157 22.7138 1.26157L22.0139 0ZM11.1032 3.78094C11.1032 3.78094 9.99849 4.30192 8.89489 5.06913C8.34313 5.45274 7.78463 5.89779 7.34309 6.41034C6.90155 6.92282 6.54166 7.53139 6.59639 8.243C6.65725 9.03384 7.23739 9.6228 7.85624 9.97593C8.47499 10.329 9.17763 10.5426 9.83935 10.7533C10.5012 10.964 11.1222 11.1718 11.5162 11.3967C11.9103 11.6215 12.0321 11.7671 12.0518 12.0239C12.0541 12.0531 12.0161 12.2087 11.829 12.4259C11.6419 12.6431 11.3409 12.893 11.0261 13.112C10.3963 13.5497 9.73936 13.8634 9.73936 13.8634L10.4392 15.125C10.4392 15.125 11.1915 14.771 11.9484 14.2448C12.3269 13.9818 12.7136 13.6756 13.0294 13.309C13.3452 12.9424 13.6255 12.4866 13.5822 11.9233C13.5213 11.1324 12.9411 10.5435 12.3223 10.1903C11.7035 9.83721 11.0009 9.62367 10.3392 9.41296C9.67739 9.20225 9.05633 8.99446 8.66235 8.76957C8.26829 8.54468 8.14648 8.39912 8.12679 8.14233C8.11315 7.96494 8.23053 7.65648 8.54327 7.29343C8.8561 6.9303 9.32901 6.54126 9.81727 6.20184C10.7936 5.52308 11.803 5.04251 11.803 5.04251L11.1032 3.78094ZM32.9247 3.78094C32.9247 3.78094 31.82 4.30192 30.7163 5.06913C30.1646 5.45274 29.6061 5.89779 29.1645 6.41034C28.723 6.92282 28.3631 7.53139 28.4178 8.243C28.4787 9.03384 29.0589 9.6228 29.6777 9.97593C30.2965 10.329 30.9991 10.5426 31.6608 10.7533C32.3226 10.964 32.9437 11.1718 33.3376 11.3967C33.7317 11.6215 33.8535 11.7671 33.8732 12.0239C33.8755 12.0531 33.8376 12.2087 33.6505 12.4259C33.4634 12.6431 33.1624 12.893 32.8475 13.112C32.2178 13.5497 31.5608 13.8634 31.5608 13.8634L32.2606 15.125C32.2606 15.125 33.013 14.771 33.7699 14.2448C34.1484 13.9818 34.535 13.6756 34.8508 13.309C35.1666 12.9424 35.4469 12.4866 35.4036 11.9233C35.3428 11.1324 34.7626 10.5435 34.1438 10.1903C33.525 9.83721 32.8224 9.62367 32.1607 9.41296C31.4989 9.20225 30.8778 8.99446 30.4838 8.76957C30.0897 8.54468 29.9679 8.39912 29.9482 8.14233C29.9346 7.96494 30.052 7.65648 30.3647 7.29343C30.6776 6.9303 31.1505 6.54126 31.6387 6.20184C32.6151 5.52308 33.6245 5.04251 33.6245 5.04251L32.9247 3.78094ZM21 13.155C19.8919 13.155 19.1424 13.6208 18.5696 14.4148C18.3325 14.7435 18.1411 15.1316 17.9972 15.5542C18.9622 15.4276 19.9637 15.3608 21 15.3608C22.0363 15.3608 23.0377 15.4276 24.0028 15.5542C23.8589 15.1316 23.6675 14.7435 23.4304 14.4148C22.8576 13.6208 22.1081 13.155 21 13.155ZM21 16.7784C10.82 16.7784 4.48457 23.5556 4.07644 30.4846H37.9236C37.5154 23.5556 31.1799 16.7783 21 16.7783V16.7784ZM1.08477 30.8497L0 31.8521C1.54455 33.2795 3.27006 33.32 4.63391 33.32H37.3661C38.7299 33.32 40.4554 33.2795 42 31.8521L40.9152 30.8497C39.7321 31.9429 38.7299 31.9025 37.3661 31.9025H4.63391C3.27006 31.9025 2.26781 31.9429 1.08477 30.8497ZM8.79482 34.7378L10.4998 37.1012H31.5002L33.2052 34.7378H8.79482Z" fill="#005250"/>
</svg>
