<svg width="30" height="30" viewBox="0 0 30 30" fill="none" xmlns="http://www.w3.org/2000/svg">
<path d="M2.5 27.4982V14.9957M27.5 27.4982V14.9957M15 27.4982V26.2482M15 22.497V21.247M7.15625 7.06945L8.19375 8.01695M8.19375 8.01695C8.39375 7.68195 8.7375 7.09445 8.8525 6.72695C9.85125 3.51445 9.94 2.62945 11.4813 2.50195H18.515C20.0575 2.62945 20.145 3.51445 21.1438 6.72695C21.2575 7.09445 21.5413 7.68195 21.74 8.01695M8.19375 8.01695C7.43875 9.29195 6.4375 10.1257 6.2875 11.2257C6.2625 11.407 6.2875 13.4157 6.2875 14.8732C6.2875 15.9682 7.3425 15.9357 8.37 16.0207C9.02375 16.0745 9.6775 16.1932 10.3325 16.1995C13.965 16.237 16.3675 16.2407 19.96 16.202C20.655 16.1945 21.355 16.0645 22.0475 16.0045C22.8288 15.9382 23.6475 15.8507 23.71 14.8732C23.8063 13.417 23.735 11.407 23.71 11.2257C23.56 10.1257 22.4963 9.29195 21.74 8.01695M21.74 8.01695H8.195M21.74 8.01695L22.9562 7.0682M6.505 10.5382L8.015 11.6882M13.1975 13.1407H16.8712M22.025 11.6595L23.6937 11.1282M8.8525 16.0695L8.755 18.1257M21.2275 16.097V18.1257" stroke="white" stroke-width="1.5" stroke-linecap="round" stroke-linejoin="round"/>
</svg>
