<svg xmlns="http://www.w3.org/2000/svg" xmlns:xlink="http://www.w3.org/1999/xlink" width="1080" zoomAndPan="magnify" viewBox="0 0 810 809.999993" height="1080" preserveAspectRatio="xMidYMid meet" version="1.0"><defs><g/><clipPath id="984fc14092"><path d="M 236 577 L 318 577 L 318 706 L 236 706 Z M 236 577 " clip-rule="nonzero"/></clipPath><clipPath id="d40c91e1cc"><path d="M 203.707031 459.835938 L 351.066406 439.019531 L 386.472656 689.652344 L 239.113281 710.46875 Z M 203.707031 459.835938 " clip-rule="nonzero"/></clipPath><clipPath id="939d559053"><path d="M 203.707031 459.835938 L 351.066406 439.019531 L 386.472656 689.652344 L 239.113281 710.46875 Z M 203.707031 459.835938 " clip-rule="nonzero"/></clipPath><clipPath id="07013be678"><path d="M 251 554 L 304 554 L 304 624 L 251 624 Z M 251 554 " clip-rule="nonzero"/></clipPath><clipPath id="9d668dc67e"><path d="M 203.707031 459.835938 L 351.066406 439.019531 L 386.472656 689.652344 L 239.113281 710.46875 Z M 203.707031 459.835938 " clip-rule="nonzero"/></clipPath><clipPath id="290056b8f6"><path d="M 203.707031 459.835938 L 351.066406 439.019531 L 386.472656 689.652344 L 239.113281 710.46875 Z M 203.707031 459.835938 " clip-rule="nonzero"/></clipPath><clipPath id="c3037b415c"><path d="M 223 510 L 275 510 L 275 577 L 223 577 Z M 223 510 " clip-rule="nonzero"/></clipPath><clipPath id="28562bf619"><path d="M 203.707031 459.835938 L 351.066406 439.019531 L 386.472656 689.652344 L 239.113281 710.46875 Z M 203.707031 459.835938 " clip-rule="nonzero"/></clipPath><clipPath id="3dab7f579f"><path d="M 203.707031 459.835938 L 351.066406 439.019531 L 386.472656 689.652344 L 239.113281 710.46875 Z M 203.707031 459.835938 " clip-rule="nonzero"/></clipPath><clipPath id="a6731ccc20"><path d="M 247 447 L 364 447 L 364 572 L 247 572 Z M 247 447 " clip-rule="nonzero"/></clipPath><clipPath id="e66dca1ce1"><path d="M 203.707031 459.835938 L 351.066406 439.019531 L 386.472656 689.652344 L 239.113281 710.46875 Z M 203.707031 459.835938 " clip-rule="nonzero"/></clipPath><clipPath id="84744f1088"><path d="M 203.707031 459.835938 L 351.066406 439.019531 L 386.472656 689.652344 L 239.113281 710.46875 Z M 203.707031 459.835938 " clip-rule="nonzero"/></clipPath><clipPath id="b9104c00fe"><path d="M 308 446 L 366 446 L 366 568 L 308 568 Z M 308 446 " clip-rule="nonzero"/></clipPath><clipPath id="7a653ee1d2"><path d="M 203.707031 459.835938 L 351.066406 439.019531 L 386.472656 689.652344 L 239.113281 710.46875 Z M 203.707031 459.835938 " clip-rule="nonzero"/></clipPath><clipPath id="8a916adeca"><path d="M 203.707031 459.835938 L 351.066406 439.019531 L 386.472656 689.652344 L 239.113281 710.46875 Z M 203.707031 459.835938 " clip-rule="nonzero"/></clipPath><clipPath id="f0bb80c135"><path d="M 323 498 L 340 498 L 340 521 L 323 521 Z M 323 498 " clip-rule="nonzero"/></clipPath><clipPath id="32de626821"><path d="M 203.707031 459.835938 L 351.066406 439.019531 L 386.472656 689.652344 L 239.113281 710.46875 Z M 203.707031 459.835938 " clip-rule="nonzero"/></clipPath><clipPath id="fd75e69a7f"><path d="M 203.707031 459.835938 L 351.066406 439.019531 L 386.472656 689.652344 L 239.113281 710.46875 Z M 203.707031 459.835938 " clip-rule="nonzero"/></clipPath><clipPath id="85724ca6ed"><path d="M 218 540 L 246 540 L 246 568 L 218 568 Z M 218 540 " clip-rule="nonzero"/></clipPath><clipPath id="b9c7a64608"><path d="M 203.707031 459.835938 L 351.066406 439.019531 L 386.472656 689.652344 L 239.113281 710.46875 Z M 203.707031 459.835938 " clip-rule="nonzero"/></clipPath><clipPath id="3435dce4a5"><path d="M 203.707031 459.835938 L 351.066406 439.019531 L 386.472656 689.652344 L 239.113281 710.46875 Z M 203.707031 459.835938 " clip-rule="nonzero"/></clipPath><clipPath id="b5f6f5cf6a"><path d="M 247 509 L 278 509 L 278 572 L 247 572 Z M 247 509 " clip-rule="nonzero"/></clipPath><clipPath id="f7ca56e4a0"><path d="M 203.707031 459.835938 L 351.066406 439.019531 L 386.472656 689.652344 L 239.113281 710.46875 Z M 203.707031 459.835938 " clip-rule="nonzero"/></clipPath><clipPath id="81c7ac2efe"><path d="M 203.707031 459.835938 L 351.066406 439.019531 L 386.472656 689.652344 L 239.113281 710.46875 Z M 203.707031 459.835938 " clip-rule="nonzero"/></clipPath><clipPath id="66604006d7"><path d="M 223 542 L 237 542 L 237 567 L 223 567 Z M 223 542 " clip-rule="nonzero"/></clipPath><clipPath id="f329a6c30f"><path d="M 203.707031 459.835938 L 351.066406 439.019531 L 386.472656 689.652344 L 239.113281 710.46875 Z M 203.707031 459.835938 " clip-rule="nonzero"/></clipPath><clipPath id="26bce3e2f6"><path d="M 203.707031 459.835938 L 351.066406 439.019531 L 386.472656 689.652344 L 239.113281 710.46875 Z M 203.707031 459.835938 " clip-rule="nonzero"/></clipPath><clipPath id="5c80c0646e"><path d="M 276 572 L 314 572 L 314 637 L 276 637 Z M 276 572 " clip-rule="nonzero"/></clipPath><clipPath id="eb85753f77"><path d="M 203.707031 459.835938 L 351.066406 439.019531 L 386.472656 689.652344 L 239.113281 710.46875 Z M 203.707031 459.835938 " clip-rule="nonzero"/></clipPath><clipPath id="b923d42589"><path d="M 203.707031 459.835938 L 351.066406 439.019531 L 386.472656 689.652344 L 239.113281 710.46875 Z M 203.707031 459.835938 " clip-rule="nonzero"/></clipPath><clipPath id="7bdd175a84"><path d="M 275 572 L 311 572 L 311 638 L 275 638 Z M 275 572 " clip-rule="nonzero"/></clipPath><clipPath id="f2d1cf9137"><path d="M 203.707031 459.835938 L 351.066406 439.019531 L 386.472656 689.652344 L 239.113281 710.46875 Z M 203.707031 459.835938 " clip-rule="nonzero"/></clipPath><clipPath id="23c8174635"><path d="M 203.707031 459.835938 L 351.066406 439.019531 L 386.472656 689.652344 L 239.113281 710.46875 Z M 203.707031 459.835938 " clip-rule="nonzero"/></clipPath><clipPath id="912b3e9aef"><path d="M 304 632 L 309 632 L 309 646 L 304 646 Z M 304 632 " clip-rule="nonzero"/></clipPath><clipPath id="e98e6ff6ee"><path d="M 203.707031 459.835938 L 351.066406 439.019531 L 386.472656 689.652344 L 239.113281 710.46875 Z M 203.707031 459.835938 " clip-rule="nonzero"/></clipPath><clipPath id="ad1313bdb1"><path d="M 203.707031 459.835938 L 351.066406 439.019531 L 386.472656 689.652344 L 239.113281 710.46875 Z M 203.707031 459.835938 " clip-rule="nonzero"/></clipPath><clipPath id="f4b0c7381e"><path d="M 293 619 L 308 619 L 308 631 L 293 631 Z M 293 619 " clip-rule="nonzero"/></clipPath><clipPath id="763a602f4f"><path d="M 203.707031 459.835938 L 351.066406 439.019531 L 386.472656 689.652344 L 239.113281 710.46875 Z M 203.707031 459.835938 " clip-rule="nonzero"/></clipPath><clipPath id="8b2e6a6d28"><path d="M 203.707031 459.835938 L 351.066406 439.019531 L 386.472656 689.652344 L 239.113281 710.46875 Z M 203.707031 459.835938 " clip-rule="nonzero"/></clipPath><clipPath id="9a290f974f"><path d="M 288 606 L 300 606 L 300 618 L 288 618 Z M 288 606 " clip-rule="nonzero"/></clipPath><clipPath id="2234cfb49b"><path d="M 203.707031 459.835938 L 351.066406 439.019531 L 386.472656 689.652344 L 239.113281 710.46875 Z M 203.707031 459.835938 " clip-rule="nonzero"/></clipPath><clipPath id="bff04eddd6"><path d="M 203.707031 459.835938 L 351.066406 439.019531 L 386.472656 689.652344 L 239.113281 710.46875 Z M 203.707031 459.835938 " clip-rule="nonzero"/></clipPath><clipPath id="a6fce27d79"><path d="M 283 589 L 294 589 L 294 602 L 283 602 Z M 283 589 " clip-rule="nonzero"/></clipPath><clipPath id="c7a3a2b8d9"><path d="M 203.707031 459.835938 L 351.066406 439.019531 L 386.472656 689.652344 L 239.113281 710.46875 Z M 203.707031 459.835938 " clip-rule="nonzero"/></clipPath><clipPath id="3017ffb43a"><path d="M 203.707031 459.835938 L 351.066406 439.019531 L 386.472656 689.652344 L 239.113281 710.46875 Z M 203.707031 459.835938 " clip-rule="nonzero"/></clipPath><clipPath id="66821eeda7"><path d="M 247 577 L 278 577 L 278 647 L 247 647 Z M 247 577 " clip-rule="nonzero"/></clipPath><clipPath id="1306de1481"><path d="M 203.707031 459.835938 L 351.066406 439.019531 L 386.472656 689.652344 L 239.113281 710.46875 Z M 203.707031 459.835938 " clip-rule="nonzero"/></clipPath><clipPath id="d72715e5bf"><path d="M 203.707031 459.835938 L 351.066406 439.019531 L 386.472656 689.652344 L 239.113281 710.46875 Z M 203.707031 459.835938 " clip-rule="nonzero"/></clipPath><clipPath id="e3ace31b36"><path d="M 261 577 L 279 577 L 279 642 L 261 642 Z M 261 577 " clip-rule="nonzero"/></clipPath><clipPath id="8c013b0909"><path d="M 203.707031 459.835938 L 351.066406 439.019531 L 386.472656 689.652344 L 239.113281 710.46875 Z M 203.707031 459.835938 " clip-rule="nonzero"/></clipPath><clipPath id="5dc11e0d10"><path d="M 203.707031 459.835938 L 351.066406 439.019531 L 386.472656 689.652344 L 239.113281 710.46875 Z M 203.707031 459.835938 " clip-rule="nonzero"/></clipPath><clipPath id="cddcfeddfc"><path d="M 263 579 L 275 579 L 275 590 L 263 590 Z M 263 579 " clip-rule="nonzero"/></clipPath><clipPath id="7deb7aa77c"><path d="M 203.707031 459.835938 L 351.066406 439.019531 L 386.472656 689.652344 L 239.113281 710.46875 Z M 203.707031 459.835938 " clip-rule="nonzero"/></clipPath><clipPath id="a8aefb34cd"><path d="M 203.707031 459.835938 L 351.066406 439.019531 L 386.472656 689.652344 L 239.113281 710.46875 Z M 203.707031 459.835938 " clip-rule="nonzero"/></clipPath><clipPath id="7e47394fe2"><path d="M 289 229.242188 L 450 229.242188 L 450 360 L 289 360 Z M 289 229.242188 " clip-rule="nonzero"/></clipPath><clipPath id="affa77bcab"><path d="M 203.035156 279 L 351 279 L 351 417 L 203.035156 417 Z M 203.035156 279 " clip-rule="nonzero"/></clipPath><clipPath id="8fc0bff76e"><path d="M 207 415 L 371 415 L 371 417.101562 L 207 417.101562 Z M 207 415 " clip-rule="nonzero"/></clipPath><clipPath id="a9a09d721f"><path d="M 460 536 L 561 536 L 561 680 L 460 680 Z M 460 536 " clip-rule="nonzero"/></clipPath><clipPath id="bd7e69b000"><path d="M 420.300781 347.304688 L 643.546875 370.578125 L 609.707031 695.132812 L 386.464844 671.855469 Z M 420.300781 347.304688 " clip-rule="nonzero"/></clipPath><clipPath id="bd8793e18a"><path d="M 643.726562 370.597656 L 420.480469 347.324219 L 386.644531 671.875 L 609.886719 695.152344 Z M 643.726562 370.597656 " clip-rule="nonzero"/></clipPath><clipPath id="428daca5d2"><path d="M 459 406 L 536 406 L 536 681 L 459 681 Z M 459 406 " clip-rule="nonzero"/></clipPath><clipPath id="22bae38409"><path d="M 420.300781 347.304688 L 643.546875 370.578125 L 609.707031 695.132812 L 386.464844 671.855469 Z M 420.300781 347.304688 " clip-rule="nonzero"/></clipPath><clipPath id="c84bfea006"><path d="M 643.726562 370.597656 L 420.480469 347.324219 L 386.644531 671.875 L 609.886719 695.152344 Z M 643.726562 370.597656 " clip-rule="nonzero"/></clipPath><clipPath id="591218b12c"><path d="M 407 349 L 641 349 L 641 525 L 407 525 Z M 407 349 " clip-rule="nonzero"/></clipPath><clipPath id="c9c0d1f553"><path d="M 420.300781 347.304688 L 643.546875 370.578125 L 609.707031 695.132812 L 386.464844 671.855469 Z M 420.300781 347.304688 " clip-rule="nonzero"/></clipPath><clipPath id="63b4a50cfe"><path d="M 643.726562 370.597656 L 420.480469 347.324219 L 386.644531 671.875 L 609.886719 695.152344 Z M 643.726562 370.597656 " clip-rule="nonzero"/></clipPath><clipPath id="ab7144da24"><path d="M 460 531 L 501 531 L 501 596 L 460 596 Z M 460 531 " clip-rule="nonzero"/></clipPath><clipPath id="515f116f74"><path d="M 420.300781 347.304688 L 643.546875 370.578125 L 609.707031 695.132812 L 386.464844 671.855469 Z M 420.300781 347.304688 " clip-rule="nonzero"/></clipPath><clipPath id="37706cf601"><path d="M 643.726562 370.597656 L 420.480469 347.324219 L 386.644531 671.875 L 609.886719 695.152344 Z M 643.726562 370.597656 " clip-rule="nonzero"/></clipPath><clipPath id="25c4a32ef7"><path d="M 464 544 L 502 544 L 502 596 L 464 596 Z M 464 544 " clip-rule="nonzero"/></clipPath><clipPath id="db955638c4"><path d="M 420.300781 347.304688 L 643.546875 370.578125 L 609.707031 695.132812 L 386.464844 671.855469 Z M 420.300781 347.304688 " clip-rule="nonzero"/></clipPath><clipPath id="450d12b48b"><path d="M 643.726562 370.597656 L 420.480469 347.324219 L 386.644531 671.875 L 609.886719 695.152344 Z M 643.726562 370.597656 " clip-rule="nonzero"/></clipPath><clipPath id="3e3b1a2d13"><path d="M 471 579 L 485 579 L 485 589 L 471 589 Z M 471 579 " clip-rule="nonzero"/></clipPath><clipPath id="d0ccca6f62"><path d="M 420.300781 347.304688 L 643.546875 370.578125 L 609.707031 695.132812 L 386.464844 671.855469 Z M 420.300781 347.304688 " clip-rule="nonzero"/></clipPath><clipPath id="d308838174"><path d="M 643.726562 370.597656 L 420.480469 347.324219 L 386.644531 671.875 L 609.886719 695.152344 Z M 643.726562 370.597656 " clip-rule="nonzero"/></clipPath><clipPath id="ccdeb1980d"><path d="M 478 565 L 490 565 L 490 577 L 478 577 Z M 478 565 " clip-rule="nonzero"/></clipPath><clipPath id="1fd45f4e8a"><path d="M 420.300781 347.304688 L 643.546875 370.578125 L 609.707031 695.132812 L 386.464844 671.855469 Z M 420.300781 347.304688 " clip-rule="nonzero"/></clipPath><clipPath id="6ffaeebdd5"><path d="M 643.726562 370.597656 L 420.480469 347.324219 L 386.644531 671.875 L 609.886719 695.152344 Z M 643.726562 370.597656 " clip-rule="nonzero"/></clipPath><clipPath id="da4fc36f5a"><path d="M 484 548 L 494 548 L 494 560 L 484 560 Z M 484 548 " clip-rule="nonzero"/></clipPath><clipPath id="c3005bae37"><path d="M 420.300781 347.304688 L 643.546875 370.578125 L 609.707031 695.132812 L 386.464844 671.855469 Z M 420.300781 347.304688 " clip-rule="nonzero"/></clipPath><clipPath id="738d02c3d9"><path d="M 643.726562 370.597656 L 420.480469 347.324219 L 386.644531 671.875 L 609.886719 695.152344 Z M 643.726562 370.597656 " clip-rule="nonzero"/></clipPath><clipPath id="a390598595"><path d="M 499 536 L 531 536 L 531 589 L 499 589 Z M 499 536 " clip-rule="nonzero"/></clipPath><clipPath id="ec4c3f59f7"><path d="M 420.300781 347.304688 L 643.546875 370.578125 L 609.707031 695.132812 L 386.464844 671.855469 Z M 420.300781 347.304688 " clip-rule="nonzero"/></clipPath><clipPath id="098ed4f273"><path d="M 643.726562 370.597656 L 420.480469 347.324219 L 386.644531 671.875 L 609.886719 695.152344 Z M 643.726562 370.597656 " clip-rule="nonzero"/></clipPath><clipPath id="561456a17d"><path d="M 498 536 L 511 536 L 511 583 L 498 583 Z M 498 536 " clip-rule="nonzero"/></clipPath><clipPath id="7c98dfb0d3"><path d="M 420.300781 347.304688 L 643.546875 370.578125 L 609.707031 695.132812 L 386.464844 671.855469 Z M 420.300781 347.304688 " clip-rule="nonzero"/></clipPath><clipPath id="2ea6bbdc92"><path d="M 643.726562 370.597656 L 420.480469 347.324219 L 386.644531 671.875 L 609.886719 695.152344 Z M 643.726562 370.597656 " clip-rule="nonzero"/></clipPath><clipPath id="5befb1d4f7"><path d="M 503 537 L 514 537 L 514 548 L 503 548 Z M 503 537 " clip-rule="nonzero"/></clipPath><clipPath id="815c7bd287"><path d="M 420.300781 347.304688 L 643.546875 370.578125 L 609.707031 695.132812 L 386.464844 671.855469 Z M 420.300781 347.304688 " clip-rule="nonzero"/></clipPath><clipPath id="75a24c01da"><path d="M 643.726562 370.597656 L 420.480469 347.324219 L 386.644531 671.875 L 609.886719 695.152344 Z M 643.726562 370.597656 " clip-rule="nonzero"/></clipPath></defs><g clip-path="url(#984fc14092)"><g clip-path="url(#d40c91e1cc)"><g clip-path="url(#939d559053)"><path fill="#ffa000" d="M 311.882812 620.9375 L 277.007812 587.484375 C 277.683594 583.867188 277.453125 580.414062 276.050781 577.792969 C 271.21875 580.304688 262.519531 586.167969 260.820312 587.441406 C 256.832031 590.421875 252.203125 593.648438 249.660156 598.0625 C 246.160156 604.148438 246.945312 611.78125 248.878906 618.523438 C 250.808594 625.269531 253.789062 631.796875 254.421875 638.78125 C 255.285156 648.300781 251.414062 658.128906 244.296875 664.507812 C 242.195312 666.390625 239.359375 668.722656 236.546875 668.9375 C 239.246094 677.492188 245.050781 684.804688 251.847656 690.664062 C 258.648438 696.523438 266.457031 701.070312 274.214844 705.578125 C 288.671875 692.136719 300.847656 676.238281 310.066406 658.78125 C 313.214844 652.828125 316.054688 646.566406 316.898438 639.882812 C 317.738281 633.199219 316.355469 625.976562 311.886719 620.941406 Z M 311.882812 620.9375 " fill-opacity="1" fill-rule="nonzero"/></g></g></g><g clip-path="url(#07013be678)"><g clip-path="url(#9d668dc67e)"><g clip-path="url(#290056b8f6)"><path fill="#ffffff" d="M 251.414062 572.960938 C 251.414062 572.960938 286.75 625.871094 293.515625 623.863281 C 300.28125 621.859375 303.203125 616.628906 303.203125 616.628906 L 272.925781 554.265625 L 251.414062 572.964844 Z M 251.414062 572.960938 " fill-opacity="1" fill-rule="nonzero"/></g></g></g><g clip-path="url(#c3037b415c)"><g clip-path="url(#28562bf619)"><g clip-path="url(#3dab7f579f)"><path fill="#ffffff" d="M 260.074219 541.355469 C 264.921875 552.171875 270.011719 562.453125 274.914062 571.359375 L 270.664062 573.261719 C 253.539062 580.9375 233.378906 573.03125 226.113281 555.605469 C 219.074219 538.75 227.332031 519.371094 243.996094 511.90625 L 247.570312 510.300781 C 250.9375 519.882812 255.214844 530.5 260.074219 541.355469 Z M 260.074219 541.355469 " fill-opacity="1" fill-rule="nonzero"/></g></g></g><g clip-path="url(#a6731ccc20)"><g clip-path="url(#e66dca1ce1)"><g clip-path="url(#84744f1088)"><path fill="#ffffff" d="M 309.839844 448.117188 L 363.339844 567.507812 C 363.367188 567.570312 363.304688 567.621094 363.261719 567.589844 C 343.574219 554.863281 312.183594 554.660156 289.226562 564.949219 L 274.914062 571.363281 C 270.015625 562.457031 264.929688 552.175781 260.078125 541.359375 C 255.214844 530.503906 250.9375 519.886719 247.570312 510.308594 L 261.871094 503.898438 C 284.394531 493.804688 304.765625 470.949219 308.945312 448.242188 C 309.039062 447.777344 309.652344 447.699219 309.84375 448.125 Z M 309.839844 448.117188 " fill-opacity="1" fill-rule="nonzero"/></g></g></g><g clip-path="url(#b9104c00fe)"><g clip-path="url(#7a653ee1d2)"><g clip-path="url(#8a916adeca)"><path fill="#080808" d="M 345.617188 503.019531 C 360.589844 536.4375 368.882812 565.25 364.144531 567.371094 C 359.410156 569.492188 343.425781 544.125 328.453125 510.710938 C 313.476562 477.292969 305.183594 448.484375 309.921875 446.359375 C 314.65625 444.238281 330.640625 469.605469 345.613281 503.023438 Z M 345.617188 503.019531 " fill-opacity="1" fill-rule="nonzero"/></g></g></g><g clip-path="url(#f0bb80c135)"><g clip-path="url(#32de626821)"><g clip-path="url(#fd75e69a7f)"><path fill="#ffffff" d="M 338.339844 505.453125 C 340.839844 511.039062 338.371094 517.605469 332.816406 520.164062 C 331.355469 517.09375 329.898438 513.9375 328.453125 510.703125 C 326.785156 506.984375 325.207031 503.335938 323.707031 499.769531 C 329.304688 497.347656 335.832031 499.863281 338.339844 505.453125 Z M 338.339844 505.453125 " fill-opacity="1" fill-rule="nonzero"/></g></g></g><g clip-path="url(#85724ca6ed)"><g clip-path="url(#b9c7a64608)"><g clip-path="url(#3435dce4a5)"><path fill="#ffffff" d="M 244.125 548.796875 C 247.125 555.496094 244.128906 563.359375 237.433594 566.363281 C 230.734375 569.359375 222.871094 566.363281 219.867188 559.667969 C 216.867188 552.972656 219.863281 545.109375 226.558594 542.105469 C 233.257812 539.105469 241.121094 542.101562 244.125 548.796875 Z M 244.125 548.796875 " fill-opacity="1" fill-rule="nonzero"/></g></g></g><g clip-path="url(#b5f6f5cf6a)"><g clip-path="url(#f7ca56e4a0)"><g clip-path="url(#81c7ac2efe)"><path fill="#080808" d="M 262.207031 540.398438 C 267.058594 551.230469 272.152344 561.511719 277.054688 570.402344 L 274.910156 571.359375 C 270.007812 562.453125 264.921875 552.171875 260.070312 541.355469 C 255.207031 530.5 250.933594 519.882812 247.566406 510.304688 L 249.710938 509.34375 C 253.054688 518.902344 257.332031 529.535156 262.207031 540.398438 Z M 262.207031 540.398438 " fill-opacity="1" fill-rule="nonzero"/></g></g></g><g clip-path="url(#66604006d7)"><g clip-path="url(#f329a6c30f)"><g clip-path="url(#26bce3e2f6)"><path fill="#000000" d="M 235.421875 566.804688 C 235.179688 566.835938 234.925781 566.746094 234.757812 566.539062 C 229.359375 559.757812 225.640625 551.667969 224 543.15625 C 223.925781 542.769531 224.179688 542.394531 224.566406 542.316406 C 224.949219 542.199219 225.332031 542.496094 225.40625 542.882812 C 227 551.171875 230.621094 559.042969 235.875 565.644531 C 236.117188 565.957031 236.070312 566.40625 235.757812 566.652344 C 235.65625 566.734375 235.535156 566.78125 235.414062 566.800781 Z M 235.421875 566.804688 " fill-opacity="1" fill-rule="nonzero"/></g></g></g><g clip-path="url(#5c80c0646e)"><g clip-path="url(#eb85753f77)"><g clip-path="url(#b923d42589)"><path fill="#ffa000" d="M 285.441406 573.636719 C 280.679688 576.335938 279.21875 581.332031 277.949219 586.414062 C 277.21875 589.335938 276.449219 592.035156 276.550781 595.09375 C 276.59375 596.488281 276.808594 597.960938 277.667969 599.066406 C 278.507812 600.144531 279.878906 600.722656 281.25 600.804688 C 282.617188 600.882812 283.976562 600.507812 285.230469 599.960938 C 283.070312 602.636719 281.175781 605.878906 279.734375 608.992188 C 278.867188 610.867188 277.980469 612.796875 277.855469 614.863281 C 277.722656 616.925781 278.515625 619.183594 280.304688 620.222656 C 281.972656 621.1875 283.296875 620.757812 284.882812 619.894531 C 286.347656 619.097656 287.6875 618.027344 288.753906 616.738281 C 286.800781 619.097656 284.820312 621.464844 283.246094 624.105469 C 281.871094 626.414062 279.503906 630.203125 282.019531 632.472656 C 285.621094 635.714844 292.492188 631.242188 295.363281 628.820312 C 294.53125 629.328125 293.675781 629.863281 293.109375 630.660156 C 291.738281 632.589844 292.625 635.636719 294.828125 636.453125 C 296.816406 637.191406 299.222656 636.5 301.035156 635.601562 C 305.136719 633.566406 308.757812 630.585938 311.542969 626.957031 C 312.886719 625.199219 314.089844 623.035156 313.597656 620.878906 C 313.105469 618.722656 310.050781 617.285156 308.585938 618.9375 C 311.203125 616.941406 313.242188 613.992188 313.546875 610.710938 C 313.851562 607.425781 312.136719 603.886719 309.089844 602.613281 C 306.050781 601.339844 303.039062 602.585938 300.695312 605.617188 C 302.117188 603.84375 303.066406 602.425781 303.746094 601.320312 C 304.835938 599.566406 305.367188 597.511719 305.753906 595.488281 C 306.101562 593.683594 306.210938 591.769531 305.515625 590.070312 C 304.675781 588.007812 302.671875 586.710938 300.523438 586.550781 C 299.117188 586.449219 294.625 586.871094 293.992188 588.515625 C 295.519531 584.527344 297.054688 574.820312 291.867188 573.046875 C 290.035156 572.417969 288.0625 572.363281 286.304688 573.1875 C 286 573.328125 285.710938 573.476562 285.429688 573.640625 Z M 285.441406 573.636719 " fill-opacity="1" fill-rule="nonzero"/></g></g></g><g clip-path="url(#7bdd175a84)"><g clip-path="url(#f2d1cf9137)"><g clip-path="url(#23c8174635)"><path fill="#000000" d="M 297.773438 637.398438 C 296.734375 637.546875 295.621094 637.515625 294.570312 637.125 C 293.328125 636.664062 292.375 635.605469 291.949219 634.226562 C 291.75 633.570312 291.6875 632.894531 291.765625 632.246094 C 289.988281 633.265625 288.269531 633.921875 286.617188 634.195312 C 284.882812 634.433594 283.351562 633.96875 282.28125 632.746094 C 281.058594 631.339844 280.6875 629.222656 281.304688 627.214844 C 282.035156 624.855469 283.222656 622.773438 284.59375 620.835938 C 283.28125 621.480469 281.75 621.882812 279.933594 620.835938 C 278.066406 619.753906 276.964844 617.386719 277.128906 614.816406 C 277.265625 612.585938 278.230469 610.511719 279.074219 608.683594 C 279.980469 606.730469 281.386719 604.019531 283.273438 601.351562 C 282.558594 601.496094 281.871094 601.554688 281.203125 601.515625 C 279.515625 601.414062 278.019531 600.679688 277.097656 599.5 C 276.148438 598.277344 275.679688 596.976562 275.625 595.414062 C 275.578125 593.894531 275.570312 592.28125 275.851562 590.785156 C 276.726562 586.199219 277.84375 582.300781 280.457031 578.179688 C 281.59375 576.382812 283.417969 573.863281 286.125 572.703125 C 288.609375 571.644531 292.164062 572.023438 293.804688 574.503906 C 294.023438 574.832031 293.933594 575.28125 293.605469 575.5 C 293.277344 575.71875 292.832031 575.628906 292.613281 575.300781 C 291.386719 573.445312 288.640625 573.195312 286.691406 574.023438 C 284.378906 575.015625 282.792969 577.171875 281.667969 578.945312 C 279.167969 582.890625 278.132812 586.503906 277.265625 591.050781 C 277.015625 592.339844 277.003906 593.707031 277.054688 595.371094 C 277.097656 596.613281 277.472656 597.644531 278.230469 598.621094 C 278.886719 599.464844 280.027344 600.011719 281.289062 600.085938 C 282.390625 600.15625 283.585938 599.894531 284.9375 599.304688 C 285.238281 599.164062 285.59375 599.261719 285.796875 599.523438 C 286 599.785156 285.992188 600.148438 285.785156 600.410156 C 283.828125 602.835938 281.910156 605.984375 280.382812 609.289062 C 279.550781 611.085938 278.6875 612.945312 278.566406 614.90625 C 278.46875 616.457031 278.957031 618.613281 280.65625 619.601562 C 281.992188 620.371094 283.011719 620.089844 284.535156 619.265625 C 285.953125 618.488281 287.222656 617.457031 288.199219 616.28125 C 288.445312 615.972656 288.902344 615.929688 289.203125 616.1875 C 289.511719 616.4375 289.550781 616.890625 289.296875 617.191406 C 289.296875 617.191406 289.296875 617.199219 289.292969 617.199219 L 289.164062 617.355469 C 286.457031 620.617188 283.902344 623.695312 282.679688 627.644531 C 282.203125 629.179688 282.464844 630.777344 283.367188 631.808594 C 284.09375 632.640625 285.167969 633.035156 286.382812 632.785156 C 288.390625 632.449219 290.539062 631.480469 292.789062 629.894531 C 293.425781 629.160156 294.246094 628.65625 294.980469 628.207031 C 295.296875 628.011719 295.71875 628.09375 295.9375 628.398438 C 296.15625 628.703125 296.109375 629.121094 295.816406 629.363281 C 295.132812 629.945312 294.449219 630.472656 293.777344 630.957031 C 293.75 630.996094 293.71875 631.035156 293.691406 631.074219 C 293.164062 631.8125 293.023438 632.835938 293.324219 633.808594 C 293.617188 634.757812 294.253906 635.480469 295.074219 635.789062 C 297.050781 636.523438 299.453125 635.585938 300.710938 634.960938 C 303.953125 633.355469 306.847656 631.179688 309.308594 628.496094 C 309.574219 628.203125 310.035156 628.183594 310.324219 628.453125 C 310.617188 628.722656 310.632812 629.175781 310.367188 629.464844 C 307.78125 632.277344 304.746094 634.5625 301.34375 636.25 C 300.5 636.671875 299.199219 637.207031 297.777344 637.410156 Z M 297.773438 637.398438 " fill-opacity="1" fill-rule="nonzero"/></g></g></g><g clip-path="url(#912b3e9aef)"><g clip-path="url(#e98e6ff6ee)"><g clip-path="url(#ad1313bdb1)"><path fill="#000000" d="M 307.75 645.507812 C 307.519531 645.542969 307.269531 645.457031 307.105469 645.265625 C 305.796875 643.742188 304.976562 641.636719 304.742188 639.179688 C 304.539062 637.046875 304.769531 634.914062 304.996094 632.855469 C 305.039062 632.464844 305.394531 632.179688 305.789062 632.21875 C 306.183594 632.261719 306.464844 632.617188 306.421875 633.011719 C 306.207031 635.003906 305.980469 637.058594 306.171875 639.039062 C 306.316406 640.546875 306.785156 642.6875 308.195312 644.328125 C 308.453125 644.628906 308.417969 645.078125 308.113281 645.339844 C 308.007812 645.433594 307.878906 645.484375 307.75 645.503906 Z M 307.75 645.507812 " fill-opacity="1" fill-rule="nonzero"/></g></g></g><g clip-path="url(#f4b0c7381e)"><g clip-path="url(#763a602f4f)"><g clip-path="url(#8b2e6a6d28)"><path fill="#000000" d="M 294.484375 630.105469 C 294.214844 630.144531 293.933594 630.023438 293.777344 629.777344 C 293.5625 629.441406 293.667969 629 294.003906 628.789062 C 298.195312 626.148438 302.203125 623.15625 305.90625 619.875 C 306.203125 619.609375 306.65625 619.640625 306.917969 619.9375 C 307.183594 620.234375 307.152344 620.6875 306.855469 620.953125 C 303.089844 624.28125 299.019531 627.320312 294.761719 630 C 294.675781 630.058594 294.578125 630.089844 294.480469 630.105469 Z M 294.484375 630.105469 " fill-opacity="1" fill-rule="nonzero"/></g></g></g><g clip-path="url(#9a290f974f)"><g clip-path="url(#2234cfb49b)"><g clip-path="url(#bff04eddd6)"><path fill="#000000" d="M 288.871094 617.402344 C 288.648438 617.433594 288.414062 617.355469 288.246094 617.183594 C 287.976562 616.898438 287.984375 616.441406 288.273438 616.171875 L 298.453125 606.5 C 298.734375 606.222656 299.195312 606.238281 299.464844 606.523438 C 299.738281 606.8125 299.726562 607.265625 299.441406 607.535156 L 289.261719 617.207031 C 289.148438 617.316406 289.007812 617.382812 288.871094 617.402344 Z M 288.871094 617.402344 " fill-opacity="1" fill-rule="nonzero"/></g></g></g><g clip-path="url(#a6fce27d79)"><g clip-path="url(#c7a3a2b8d9)"><g clip-path="url(#3017ffb43a)"><path fill="#000000" d="M 284.660156 601.335938 C 284.492188 601.363281 284.3125 601.328125 284.160156 601.222656 C 283.828125 601.003906 283.742188 600.554688 283.964844 600.230469 C 286.414062 596.574219 289.109375 593.027344 291.976562 589.683594 C 292.234375 589.382812 292.6875 589.347656 292.984375 589.605469 C 293.285156 589.863281 293.320312 590.316406 293.0625 590.613281 C 290.230469 593.914062 287.574219 597.414062 285.152344 601.023438 C 285.035156 601.195312 284.851562 601.304688 284.660156 601.332031 Z M 284.660156 601.335938 " fill-opacity="1" fill-rule="nonzero"/></g></g></g><g clip-path="url(#66821eeda7)"><g clip-path="url(#1306de1481)"><g clip-path="url(#d72715e5bf)"><path fill="#ffa000" d="M 275.671875 620.753906 C 274.269531 615.730469 271.683594 611.09375 268.515625 606.953125 C 267.867188 606.109375 267.15625 605.085938 267.484375 604.074219 C 267.664062 603.511719 268.136719 603.101562 268.578125 602.703125 C 272.898438 598.773438 275.996094 592.945312 277.015625 587.488281 L 277.015625 587.476562 C 277.679688 583.863281 277.460938 580.410156 276.050781 577.785156 C 271.21875 580.300781 262.519531 586.164062 260.820312 587.4375 C 256.832031 590.417969 252.203125 593.640625 249.660156 598.058594 C 246.160156 604.140625 246.945312 611.777344 248.875 618.519531 C 250.808594 625.265625 253.789062 631.789062 254.421875 638.777344 C 254.65625 641.375 254.527344 643.992188 254.085938 646.554688 L 273.308594 640.789062 C 277.171875 634.707031 277.59375 627.621094 275.671875 620.753906 Z M 275.671875 620.753906 " fill-opacity="1" fill-rule="nonzero"/></g></g></g><g clip-path="url(#e3ace31b36)"><g clip-path="url(#8c013b0909)"><g clip-path="url(#5dc11e0d10)"><path fill="#000000" d="M 273.410156 641.5 C 273.246094 641.523438 273.074219 641.488281 272.925781 641.398438 C 272.589844 641.183594 272.496094 640.746094 272.703125 640.410156 C 276.207031 634.886719 276.996094 628.160156 274.980469 620.949219 C 273.707031 616.382812 271.332031 611.816406 267.941406 607.390625 C 267.378906 606.660156 266.332031 605.296875 266.796875 603.855469 C 267.03125 603.140625 267.5625 602.648438 268.035156 602.222656 C 272.828125 597.863281 275.105469 591.910156 276.179688 587.675781 C 276.84375 585.054688 277.226562 581.519531 275.457031 579.160156 C 273.53125 580.039062 266.394531 583.429688 262.214844 587.308594 C 261.933594 587.574219 261.472656 587.5625 261.199219 587.269531 C 260.925781 586.980469 260.945312 586.527344 261.238281 586.253906 C 266.257812 581.59375 275.003906 577.78125 275.371094 577.621094 C 275.644531 577.5 275.980469 577.570312 276.183594 577.796875 C 278.214844 580.019531 278.695312 583.558594 277.570312 588.019531 C 276.445312 592.441406 274.058594 598.675781 269.050781 603.226562 C 268.625 603.613281 268.273438 603.933594 268.15625 604.289062 C 267.941406 604.953125 268.515625 605.785156 269.078125 606.507812 C 272.582031 611.078125 275.035156 615.804688 276.359375 620.550781 C 278.484375 628.164062 277.640625 635.296875 273.910156 641.164062 C 273.792969 641.347656 273.605469 641.464844 273.402344 641.492188 Z M 273.410156 641.5 " fill-opacity="1" fill-rule="nonzero"/></g></g></g><g clip-path="url(#cddcfeddfc)"><g clip-path="url(#7deb7aa77c)"><g clip-path="url(#a8aefb34cd)"><path fill="#000000" d="M 268.5 589.492188 C 268.296875 589.523438 268.085938 589.523438 267.867188 589.472656 C 267.285156 589.355469 266.863281 588.964844 266.558594 588.683594 L 263.660156 585.980469 C 263.371094 585.710938 263.355469 585.257812 263.625 584.96875 C 263.894531 584.683594 264.351562 584.664062 264.640625 584.933594 L 267.539062 587.636719 C 267.730469 587.808594 267.964844 588.027344 268.15625 588.070312 C 268.410156 588.117188 268.777344 587.898438 269.070312 587.695312 C 270.550781 586.671875 271.574219 585.539062 272.128906 584.332031 C 272.769531 582.917969 272.738281 581.347656 272.027344 580.234375 C 271.8125 579.902344 271.914062 579.457031 272.246094 579.242188 C 272.582031 579.03125 273.027344 579.128906 273.238281 579.464844 C 274.207031 580.980469 274.28125 583.074219 273.433594 584.925781 C 272.777344 586.375 271.585938 587.699219 269.886719 588.875 C 269.628906 589.054688 269.117188 589.40625 268.503906 589.492188 Z M 268.5 589.492188 " fill-opacity="1" fill-rule="nonzero"/></g></g></g><path fill="#ffa2ea" d="M 344.226562 360.898438 C 349.699219 360.628906 347.671875 347.972656 346.925781 344.667969 C 345.910156 340.140625 344.074219 335.832031 341.898438 331.730469 C 347.132812 334.765625 353.621094 348.675781 354.617188 349.640625 C 356.34375 351.300781 358.613281 351.269531 360.023438 349.316406 C 361.058594 347.886719 361.039062 346.296875 361.207031 344.597656 C 361.757812 339.128906 361.183594 333.632812 359.269531 328.464844 C 361.417969 331.503906 367.332031 339.753906 368.597656 339.984375 C 371.375 340.484375 372.644531 336.644531 372.699219 333.824219 C 372.839844 326.582031 372 318.164062 365.972656 314.148438 C 360.820312 310.710938 353.984375 311.953125 347.941406 313.328125 C 341.441406 314.8125 334.726562 316.390625 329.433594 320.429688 C 323.539062 324.929688 322.179688 331.78125 324.429688 338.628906 C 324.898438 340.046875 325.414062 341.894531 326.328125 343.066406 C 328.203125 345.449219 336.507812 355.597656 339.050781 358.183594 C 340.195312 359.351562 341.503906 360.464844 343.097656 360.808594 C 343.5 360.898438 343.875 360.929688 344.21875 360.914062 Z M 344.226562 360.898438 " fill-opacity="1" fill-rule="nonzero"/><path fill="#000000" d="M 344.054688 361.636719 C 343.695312 361.636719 343.328125 361.597656 342.949219 361.515625 C 341.121094 361.125 339.6875 359.867188 338.535156 358.683594 C 335.882812 355.984375 327.445312 345.65625 325.757812 343.5 C 324.871094 342.367188 324.359375 340.773438 323.90625 339.367188 L 323.738281 338.839844 C 321.230469 331.21875 323.148438 324.289062 328.996094 319.828125 C 334.515625 315.617188 341.566406 314.011719 347.789062 312.59375 C 354.285156 311.113281 361.074219 309.964844 366.390625 313.515625 C 372.980469 317.910156 373.570312 327.207031 373.445312 333.816406 C 373.40625 335.828125 372.773438 338.648438 371.128906 340 C 370.363281 340.625 369.441406 340.859375 368.476562 340.691406 C 367.988281 340.605469 366.84375 340.398438 358.679688 328.875 C 358.445312 328.539062 358.523438 328.078125 358.855469 327.84375 C 359.1875 327.605469 359.648438 327.6875 359.882812 328.019531 C 367.070312 338.164062 368.5625 339.15625 368.789062 339.253906 C 369.289062 339.339844 369.761719 339.214844 370.191406 338.859375 C 371.363281 337.902344 371.9375 335.5625 371.96875 333.796875 C 372.089844 327.527344 371.558594 318.738281 365.574219 314.746094 C 360.738281 311.523438 354.300781 312.628906 348.121094 314.03125 C 342.046875 315.414062 335.15625 316.984375 329.898438 320.996094 C 324.582031 325.054688 322.847656 331.390625 325.140625 338.375 L 325.316406 338.914062 C 325.730469 340.207031 326.199219 341.667969 326.921875 342.585938 C 328.890625 345.097656 337.140625 355.152344 339.589844 357.644531 C 340.59375 358.667969 341.816406 359.757812 343.261719 360.0625 C 343.589844 360.132812 343.902344 360.160156 344.199219 360.148438 C 344.847656 360.117188 345.375 359.863281 345.804688 359.367188 C 347.03125 357.945312 347.460938 354.613281 347.015625 349.964844 C 346.976562 349.5625 347.269531 349.199219 347.679688 349.160156 C 348.082031 349.121094 348.445312 349.414062 348.484375 349.824219 C 348.984375 355.019531 348.460938 358.554688 346.925781 360.332031 C 346.230469 361.136719 345.335938 361.570312 344.273438 361.625 C 344.203125 361.625 344.136719 361.625 344.066406 361.625 Z M 344.054688 361.636719 " fill-opacity="1" fill-rule="nonzero"/><path fill="#000000" d="M 357.296875 351.574219 C 356.175781 351.574219 355.058594 351.082031 354.105469 350.167969 C 353.777344 349.847656 353.265625 348.949219 352.144531 346.9375 C 349.714844 342.585938 345.195312 334.492188 341.53125 332.371094 C 341.175781 332.167969 341.054688 331.714844 341.261719 331.363281 C 341.46875 331.011719 341.917969 330.894531 342.269531 331.09375 C 346.289062 333.425781 350.761719 341.4375 353.433594 346.21875 C 354.164062 347.53125 354.921875 348.882812 355.132812 349.105469 C 355.863281 349.808594 356.714844 350.15625 357.507812 350.085938 C 358.242188 350.019531 358.910156 349.601562 359.429688 348.875 C 360.195312 347.820312 360.296875 346.632812 360.410156 345.261719 L 360.476562 344.515625 C 360.625 343.066406 360.683594 341.605469 360.667969 340.179688 C 360.667969 339.769531 360.988281 339.4375 361.398438 339.433594 C 361.742188 339.40625 362.136719 339.753906 362.144531 340.164062 C 362.164062 341.644531 362.09375 343.160156 361.941406 344.667969 L 361.875 345.390625 C 361.75 346.851562 361.625 348.359375 360.625 349.75 C 359.855469 350.808594 358.792969 351.457031 357.632812 351.5625 C 357.519531 351.574219 357.40625 351.578125 357.289062 351.578125 Z M 357.296875 351.574219 " fill-opacity="1" fill-rule="nonzero"/><g clip-path="url(#7e47394fe2)"><path fill="#ffa2ea" d="M 373.78125 258.480469 C 350.664062 268.285156 336.492188 265.285156 313.652344 275.921875 C 305.546875 279.695312 288.585938 315.539062 289.023438 328.207031 C 289.441406 340.308594 293.046875 348.121094 301.125 357.253906 C 304.570312 361.148438 311.027344 359.699219 315.574219 358.136719 C 320.910156 356.304688 321.929688 347.558594 325.105469 342.875 C 327.964844 338.65625 332.890625 338.65625 335.789062 334.515625 C 338.109375 331.203125 345.332031 326.230469 349.246094 325.09375 C 355.023438 323.410156 359.332031 325.703125 364.84375 323.28125 C 372.773438 319.792969 377.664062 313.542969 378.453125 312.398438 C 380.242188 309.824219 430.066406 301.195312 449.996094 295.679688 C 449.164062 271.632812 440.261719 247.941406 425.058594 229.300781 C 416.042969 235.128906 383.621094 254.304688 373.777344 258.480469 Z M 373.78125 258.480469 " fill-opacity="1" fill-rule="nonzero"/></g><g clip-path="url(#affa77bcab)"><path fill="#ff3131" d="M 350.574219 396.214844 L 297.105469 279.6875 L 203.035156 322.855469 L 245.960938 416.398438 L 306.582031 416.398438 Z M 350.574219 396.214844 " fill-opacity="1" fill-rule="nonzero"/></g><path fill="#ffa2ea" d="M 339.960938 298.035156 C 338.953125 299.011719 338.023438 300.0625 337.167969 301.15625 C 335.527344 303.265625 322.582031 320.46875 319.753906 324.515625 C 316.347656 329.40625 312.976562 334.351562 309.515625 339.222656 C 307.503906 342.058594 305.40625 345.691406 306.984375 348.789062 C 308.296875 351.367188 311.738281 352.222656 314.539062 351.496094 C 317.335938 350.773438 319.558594 348.734375 321.878906 347.007812 C 329.554688 341.3125 333.855469 333.429688 343.289062 330.804688 C 348.445312 329.375 360.984375 325.355469 364.285156 323.523438 C 366.8125 322.121094 363.152344 323.183594 365.320312 321.265625 C 368.363281 318.570312 370.132812 314.273438 373.742188 313.628906 C 373.957031 313.589844 372.96875 311.476562 372.707031 310.90625 C 371.648438 308.601562 370.355469 306.402344 368.863281 304.347656 C 367.328125 302.234375 365.574219 300.257812 363.621094 298.523438 C 362.875 297.855469 361.996094 297.492188 361.238281 296.886719 C 360.25 296.085938 360.046875 294.9375 359.269531 294.0625 C 358.441406 293.136719 356.722656 292.78125 355.558594 292.550781 C 352.808594 292.003906 349.898438 292.300781 347.273438 293.269531 C 344.519531 294.289062 342.074219 295.984375 339.957031 298.03125 Z M 339.960938 298.035156 " fill-opacity="1" fill-rule="nonzero"/><path fill="#000000" d="M 312.597656 352.476562 C 310.128906 352.476562 307.519531 351.453125 306.332031 349.128906 C 304.570312 345.675781 306.789062 341.792969 308.917969 338.796875 C 311.152344 335.652344 313.347656 332.472656 315.539062 329.304688 C 316.742188 327.566406 317.941406 325.835938 319.152344 324.101562 C 321.875 320.203125 324.800781 316.167969 328.09375 311.773438 C 328.339844 311.445312 328.796875 311.378906 329.128906 311.625 C 329.457031 311.871094 329.519531 312.332031 329.277344 312.660156 C 325.984375 317.039062 323.074219 321.058594 320.359375 324.945312 C 319.15625 326.671875 317.953125 328.410156 316.753906 330.140625 C 314.554688 333.316406 312.359375 336.496094 310.121094 339.644531 C 308.230469 342.304688 306.242188 345.707031 307.648438 348.457031 C 308.839844 350.792969 311.996094 351.398438 314.363281 350.78125 C 316.511719 350.226562 318.296875 348.847656 320.1875 347.390625 C 320.605469 347.0625 321.03125 346.738281 321.453125 346.421875 C 323.6875 344.765625 325.648438 342.683594 327.542969 340.667969 C 329.527344 338.566406 331.574219 336.394531 333.925781 334.714844 C 338.636719 331.34375 344.449219 329.542969 350.0625 327.800781 C 350.933594 327.535156 351.800781 327.261719 352.644531 326.988281 C 360.835938 324.378906 368.078125 321.808594 373.75 316.761719 C 378.949219 312.132812 383.238281 303.699219 380.367188 296.125 C 380.226562 295.742188 380.414062 295.320312 380.796875 295.171875 C 381.171875 295.03125 381.601562 295.214844 381.75 295.601562 C 384.871094 303.832031 380.296875 312.910156 374.734375 317.867188 C 368.847656 323.105469 361.453125 325.734375 353.097656 328.398438 C 352.246094 328.671875 351.375 328.9375 350.503906 329.210938 C 345 330.921875 339.308594 332.683594 334.789062 335.914062 C 332.554688 337.511719 330.644531 339.535156 328.617188 341.683594 C 326.679688 343.742188 324.667969 345.871094 322.332031 347.601562 C 321.914062 347.914062 321.5 348.234375 321.085938 348.554688 C 319.164062 350.042969 317.175781 351.582031 314.734375 352.214844 C 314.066406 352.390625 313.339844 352.476562 312.605469 352.476562 Z M 312.597656 352.476562 " fill-opacity="1" fill-rule="nonzero"/><path fill="#000000" d="M 328.535156 312.90625 C 328.535156 312.90625 328.496094 312.90625 328.480469 312.90625 L 317.375 312.09375 C 316.96875 312.0625 316.664062 311.707031 316.695312 311.304688 C 316.726562 310.902344 317.085938 310.578125 317.484375 310.621094 L 328.589844 311.433594 C 328.996094 311.46875 329.304688 311.820312 329.269531 312.222656 C 329.242188 312.609375 328.917969 312.910156 328.535156 312.910156 Z M 328.535156 312.90625 " fill-opacity="1" fill-rule="nonzero"/><path stroke-linecap="round" transform="matrix(0.494987, -0.227145, 0.227145, 0.494987, 155.047524, 272.930193)" fill-opacity="1" fill="#ffffff" fill-rule="nonzero" stroke-linejoin="round" d="M 95.40879 197.817923 L 183.170553 197.820108 L 183.168368 285.581871 L 95.406605 285.579685 Z M 95.40879 197.817923 " stroke="#000000" stroke-width="1.79" stroke-opacity="1" stroke-miterlimit="4"/><path fill="#000000" d="M 285.460938 314.789062 C 280.667969 329.761719 278.375 345.335938 278.539062 360.976562 C 274.191406 356.734375 269.851562 352.488281 265.507812 348.246094 C 263.601562 346.382812 260.734375 345.8125 258.550781 347.644531 C 256.660156 349.230469 256.035156 352.726562 257.953125 354.601562 C 265.410156 361.882812 272.859375 369.167969 280.316406 376.449219 C 283.789062 379.84375 289.464844 377.539062 288.964844 372.480469 C 287.144531 354.230469 289.125 335.691406 294.714844 318.21875 C 296.648438 312.179688 287.40625 308.726562 285.460938 314.789062 Z M 285.460938 314.789062 " fill-opacity="1" fill-rule="nonzero"/><g clip-path="url(#8fc0bff76e)"><path fill="#000000" d="M 369.511719 417.203125 L 208.71875 417.203125 C 208.3125 417.203125 207.984375 416.871094 207.984375 416.46875 C 207.984375 416.066406 208.316406 415.734375 208.71875 415.734375 L 369.511719 415.734375 C 369.921875 415.734375 370.246094 416.066406 370.246094 416.46875 C 370.246094 416.871094 369.914062 417.203125 369.511719 417.203125 Z M 369.511719 417.203125 " fill-opacity="1" fill-rule="nonzero"/></g><g clip-path="url(#a9a09d721f)"><g clip-path="url(#bd7e69b000)"><g clip-path="url(#bd8793e18a)"><path fill="#ffa2ea" d="M 461.113281 586.496094 C 462.179688 593.554688 473.644531 618.222656 477.050781 622.667969 C 491.882812 642.058594 498.769531 656.195312 517.625 671.097656 C 521.222656 673.941406 524.890625 676.722656 528.628906 679.441406 C 535.933594 673.652344 544.203125 664.050781 546.785156 660.550781 C 550.117188 656.015625 557.339844 645.703125 560.589844 637.253906 C 556.535156 634.992188 552.644531 632.445312 548.941406 629.648438 C 545.101562 626.761719 541.476562 623.59375 538.097656 620.195312 C 531.476562 613.554688 523.835938 606.234375 524.371094 596.316406 C 524.742188 589.34375 527.476562 582.734375 529.152344 575.957031 C 530.832031 569.171875 531.328125 561.542969 527.632812 555.621094 C 524.941406 551.316406 520.21875 548.28125 516.144531 545.460938 C 514.402344 544.25 505.539062 538.730469 500.640625 536.40625 C 499.335938 539.070312 499.234375 542.511719 500.039062 546.089844 L 466.550781 580.640625 C 462.285156 585.816406 460.109375 579.859375 461.113281 586.484375 Z M 461.113281 586.496094 " fill-opacity="1" fill-rule="nonzero"/></g></g></g><g clip-path="url(#428daca5d2)"><g clip-path="url(#22bae38409)"><g clip-path="url(#c84bfea006)"><path fill="#080808" d="M 535.550781 408.503906 L 526.824219 406.347656 L 459.726562 678.03125 L 468.457031 680.1875 Z M 535.550781 408.503906 " fill-opacity="1" fill-rule="nonzero"/></g></g></g><g clip-path="url(#591218b12c)"><g clip-path="url(#c9c0d1f553)"><g clip-path="url(#63b4a50cfe)"><path fill="#ffa000" d="M 640.742188 399.261719 L 438.03125 349.199219 L 407 474.847656 L 609.710938 524.910156 Z M 640.742188 399.261719 " fill-opacity="1" fill-rule="nonzero"/></g></g></g><g clip-path="url(#ab7144da24)"><g clip-path="url(#515f116f74)"><g clip-path="url(#37706cf601)"><path fill="#ffa2ea" d="M 491.144531 532.625 C 495.980469 535.128906 497.609375 540.054688 499.066406 545.0625 C 499.898438 547.941406 500.761719 550.601562 500.769531 553.644531 C 500.773438 555.039062 500.617188 556.511719 499.800781 557.640625 C 499.003906 558.746094 497.652344 559.371094 496.300781 559.5 C 494.941406 559.625 493.582031 559.304688 492.3125 558.804688 C 494.558594 561.386719 496.5625 564.542969 498.113281 567.589844 C 499.042969 569.425781 499.992188 571.316406 500.195312 573.363281 C 500.402344 575.414062 499.699219 577.6875 497.949219 578.78125 C 496.328125 579.800781 494.992188 579.429688 493.382812 578.621094 C 491.898438 577.878906 490.523438 576.859375 489.417969 575.621094 C 491.449219 577.898438 493.503906 580.179688 495.164062 582.753906 C 496.621094 585.003906 498.207031 588.628906 495.785156 590.980469 C 492.320312 594.339844 486.222656 590.195312 483.28125 587.886719 C 484.125 588.363281 484.992188 588.863281 485.585938 589.632812 C 487.023438 591.507812 485.75 594.027344 483.585938 594.921875 C 482.199219 595.492188 481.257812 595.886719 479.855469 595.460938 C 478.453125 595.039062 476.933594 594.941406 475.480469 594.609375 C 472.308594 593.894531 469.242188 592.71875 466.410156 591.117188 C 464.671875 590.132812 462.960938 588.9375 461.957031 587.210938 C 460.453125 584.625 460.035156 580.1875 462.988281 578.449219 C 464.738281 577.417969 466.972656 577.519531 468.882812 578.222656 C 466.859375 576 464.917969 573.59375 464.519531 570.53125 C 464.097656 567.273438 465.679688 563.6875 468.660156 562.308594 C 471.640625 560.933594 474.679688 562.066406 477.121094 564.992188 C 475.648438 563.28125 474.648438 561.902344 473.925781 560.828125 C 472.785156 559.121094 472.175781 557.101562 471.71875 555.09375 C 471.304688 553.316406 471.132812 551.410156 471.761719 549.695312 C 472.523438 547.617188 474.46875 546.246094 476.597656 546.011719 C 477.996094 545.859375 482.476562 546.113281 483.167969 547.734375 C 481.503906 543.824219 479.625 534.214844 484.726562 532.261719 C 486.527344 531.570312 488.480469 531.445312 490.257812 532.199219 C 490.5625 532.324219 490.863281 532.46875 491.144531 532.613281 Z M 491.144531 532.625 " fill-opacity="1" fill-rule="nonzero"/></g></g></g><g clip-path="url(#25c4a32ef7)"><g clip-path="url(#db955638c4)"><g clip-path="url(#450d12b48b)"><path fill="#0d1645" d="M 498.617188 545.195312 C 500.703125 551.273438 502.589844 561.816406 492.5 558.378906 C 492.054688 558.179688 491.636719 558.757812 491.960938 559.117188 C 495.050781 563.160156 504.367188 575.90625 496.355469 578.699219 C 494.0625 578.832031 491.445312 576.925781 489.773438 575.320312 C 489.59375 575.136719 489.296875 575.125 489.113281 575.304688 C 488.933594 575.472656 488.921875 575.753906 489.074219 575.941406 C 491.515625 579.007812 494.257812 581.960938 495.753906 585.566406 C 496.691406 587.742188 496.300781 590.382812 493.917969 591.21875 C 490.246094 592.175781 486.675781 589.503906 483.617188 587.558594 C 483.410156 587.378906 483.082031 587.40625 482.921875 587.632812 C 482.78125 587.828125 482.824219 588.101562 482.996094 588.261719 C 483.941406 589.0625 484.867188 589.886719 485.496094 590.828125 C 487.675781 594.640625 480.902344 594.914062 478.539062 594.511719 C 473.578125 593.972656 469.171875 591.476562 464.882812 589.042969 C 464.65625 588.914062 464.371094 588.988281 464.242188 589.210938 C 464.117188 589.433594 464.191406 589.710938 464.410156 589.847656 C 470.074219 593.355469 479.699219 598.558594 486.085938 594.328125 C 488.777344 592.039062 485.640625 588.824219 483.574219 587.527344 C 483.574219 587.527344 482.996094 588.261719 482.996094 588.261719 C 486.082031 590.796875 490.082031 593.9375 494.449219 592.722656 C 499.675781 590.910156 497.828125 584.570312 495.117188 581.390625 C 493.511719 579.175781 491.636719 577.234375 489.773438 575.320312 L 489.074219 575.945312 C 490.96875 578.039062 493.542969 580.230469 496.558594 580.054688 C 499.878906 579.539062 501.351562 575.855469 500.820312 572.894531 C 499.515625 567.464844 496.246094 562.703125 492.671875 558.507812 C 492.6875 558.511719 492.101562 559.269531 492.164062 559.253906 C 494.632812 560.3125 498.128906 560.457031 500.027344 558.128906 C 502.636719 554.167969 500.574219 548.972656 499.519531 544.9375 C 499.355469 544.371094 498.445312 544.605469 498.621094 545.199219 Z M 498.617188 545.195312 " fill-opacity="1" fill-rule="nonzero"/></g></g></g><g clip-path="url(#3e3b1a2d13)"><g clip-path="url(#d0ccca6f62)"><g clip-path="url(#d308838174)"><path fill="#0d1645" d="M 484.214844 588.898438 C 484.390625 588.917969 484.570312 588.835938 484.667969 588.667969 C 484.800781 588.445312 484.722656 588.15625 484.5 588.027344 C 480.222656 585.550781 476.121094 582.707031 472.296875 579.566406 C 472.09375 579.402344 471.804688 579.433594 471.636719 579.628906 C 471.472656 579.828125 471.503906 580.121094 471.699219 580.289062 C 475.5625 583.457031 479.710938 586.332031 484.03125 588.832031 C 484.085938 588.863281 484.152344 588.886719 484.214844 588.894531 Z M 484.214844 588.898438 " fill-opacity="1" fill-rule="nonzero"/></g></g></g><g clip-path="url(#ccdeb1980d)"><g clip-path="url(#1fd45f4e8a)"><g clip-path="url(#6ffaeebdd5)"><path fill="#0d1645" d="M 489.347656 576.050781 C 489.492188 576.066406 489.640625 576.011719 489.746094 575.894531 C 489.917969 575.699219 489.898438 575.40625 489.707031 575.234375 L 479.222656 565.980469 C 479.027344 565.8125 478.734375 565.828125 478.5625 566.023438 C 478.390625 566.214844 478.410156 566.511719 478.605469 566.683594 L 489.085938 575.9375 C 489.160156 576.003906 489.253906 576.039062 489.347656 576.050781 Z M 489.347656 576.050781 " fill-opacity="1" fill-rule="nonzero"/></g></g></g><g clip-path="url(#da4fc36f5a)"><g clip-path="url(#c3005bae37)"><g clip-path="url(#738d02c3d9)"><path fill="#0d1645" d="M 492.949219 559.914062 C 493.0625 559.925781 493.175781 559.894531 493.273438 559.824219 C 493.480469 559.675781 493.527344 559.382812 493.378906 559.171875 C 490.8125 555.636719 488.011719 552.207031 485.042969 548.996094 C 484.871094 548.808594 484.574219 548.796875 484.382812 548.96875 C 484.195312 549.144531 484.183594 549.4375 484.355469 549.628906 C 487.300781 552.816406 490.082031 556.210938 492.621094 559.722656 C 492.703125 559.832031 492.824219 559.898438 492.949219 559.914062 Z M 492.949219 559.914062 " fill-opacity="1" fill-rule="nonzero"/></g></g></g><g clip-path="url(#a390598595)"><g clip-path="url(#ec4c3f59f7)"><g clip-path="url(#098ed4f273)"><path fill="#ffa2ea" d="M 508.976562 560.9375 C 504.535156 557.183594 501.246094 551.496094 500.027344 546.105469 L 500.03125 546.09375 C 499.234375 542.523438 499.328125 539.078125 500.640625 536.414062 C 505.539062 538.742188 514.40625 544.261719 516.144531 545.464844 C 520.21875 548.285156 524.941406 551.328125 527.632812 555.632812 C 531.332031 561.554688 530.832031 569.179688 529.152344 575.964844 C 528.078125 580.300781 526.578125 584.566406 525.539062 588.902344 C 515.757812 586.386719 508.777344 576.933594 507.539062 567.648438 C 508.605469 565.53125 507.820312 567.097656 509.195312 565.167969 C 509.804688 564.304688 510.480469 563.261719 510.113281 562.269531 C 509.914062 561.71875 509.421875 561.320312 508.972656 560.941406 Z M 508.976562 560.9375 " fill-opacity="1" fill-rule="nonzero"/></g></g></g><g clip-path="url(#561456a17d)"><g clip-path="url(#7c98dfb0d3)"><g clip-path="url(#2ea6bbdc92)"><path fill="#0d1645" d="M 505.195312 581.511719 C 504.109375 577.664062 504.433594 573.359375 506.570312 569.972656 C 507.621094 568.238281 508.980469 566.6875 510.175781 564.855469 C 512.074219 561.976562 509.628906 560.8125 507.878906 559.0625 C 503.707031 554.703125 500.835938 548.738281 500.007812 542.761719 C 499.824219 540.773438 500.152344 538.699219 501.402344 537.199219 C 501.796875 536.753906 501.074219 536.121094 500.691406 536.59375 C 499.191406 538.332031 498.800781 540.703125 498.957031 542.839844 C 499.808594 550.1875 503.621094 557.273438 509.257812 562.046875 C 509.800781 562.609375 509.617188 563.335938 509.089844 564.179688 C 507.992188 565.839844 506.574219 567.445312 505.445312 569.28125 C 503.082031 572.960938 502.554688 577.84375 504.320312 581.839844 C 504.539062 582.355469 505.375 582.058594 505.199219 581.511719 Z M 505.195312 581.511719 " fill-opacity="1" fill-rule="nonzero"/></g></g></g><g clip-path="url(#5befb1d4f7)"><g clip-path="url(#815c7bd287)"><g clip-path="url(#75a24c01da)"><path fill="#0d1645" d="M 508.59375 547.542969 C 508.773438 547.5625 508.957031 547.554688 509.144531 547.511719 C 509.65625 547.386719 510.03125 547.011719 510.300781 546.742188 L 513.085938 543.945312 C 513.265625 543.765625 513.265625 543.46875 513.082031 543.285156 C 512.90625 543.105469 512.605469 543.101562 512.421875 543.285156 L 509.636719 546.082031 C 509.378906 546.339844 509.160156 546.542969 508.921875 546.601562 C 508.578125 546.683594 508.167969 546.457031 507.808594 546.226562 C 506.261719 545.238281 505.164062 544.117188 504.554688 542.894531 C 503.820312 541.433594 503.808594 539.777344 504.515625 538.578125 C 504.644531 538.355469 504.566406 538.070312 504.347656 537.941406 C 504.125 537.804688 503.835938 537.886719 503.707031 538.105469 C 502.84375 539.578125 502.847656 541.574219 503.722656 543.316406 C 504.40625 544.691406 505.617188 545.933594 507.304688 547.015625 C 507.683594 547.257812 508.121094 547.496094 508.589844 547.542969 Z M 508.59375 547.542969 " fill-opacity="1" fill-rule="nonzero"/></g></g></g><g fill="#0d1645" fill-opacity="1"><g transform="translate(463.668199, 451.3198)"><g><path d="M 35.8125 -52.0625 L 42.171875 -50.5 L 19.359375 4.75 L 11.515625 2.828125 L 16.046875 -56.90625 L 22.46875 -55.328125 L 20.328125 -30.09375 L 18.359375 -7.953125 L 18.46875 -7.921875 L 26.546875 -28.578125 Z M 35.8125 -52.0625 "/></g></g><g transform="translate(493.702212, 458.694489)"><g><path d="M 14.296875 -40.828125 C 15.898438 -47.347656 18.179688 -51.53125 21.140625 -53.375 C 23.441406 -54.84375 26.351562 -55.144531 29.875 -54.28125 C 35.007812 -53.019531 37.78125 -50.101562 38.1875 -45.53125 C 38.414062 -42.820312 38.019531 -39.394531 37 -35.25 L 30.78125 -9.9375 C 29.3125 -3.957031 27.40625 0.1875 25.0625 2.5 C 22.726562 4.820312 19.46875 5.46875 15.28125 4.4375 C 11.101562 3.414062 8.492188 1.320312 7.453125 -1.84375 C 6.410156 -5.007812 6.617188 -9.566406 8.078125 -15.515625 Z M 30.34375 -37.296875 C 31.25 -40.960938 31.59375 -43.632812 31.375 -45.3125 C 31.164062 -47 30.171875 -48.0625 28.390625 -48.5 C 26.617188 -48.9375 25.1875 -48.453125 24.09375 -47.046875 C 23.007812 -45.640625 22.03125 -43.148438 21.15625 -39.578125 L 14.8125 -13.78125 C 13.738281 -9.40625 13.316406 -6.359375 13.546875 -4.640625 C 13.773438 -2.921875 14.8125 -1.832031 16.65625 -1.375 C 18.5 -0.925781 19.921875 -1.421875 20.921875 -2.859375 C 21.921875 -4.304688 22.953125 -7.195312 24.015625 -11.53125 Z M 30.34375 -37.296875 "/></g></g><g transform="translate(524.486261, 466.253345)"><g><path d="M 15 -57.171875 L 33.953125 -52.515625 L 32.578125 -46.90625 L 26.671875 -48.359375 L 13.953125 3.421875 L 7.234375 1.78125 L 19.953125 -50 L 13.625 -51.5625 Z M 15 -57.171875 "/></g></g><g transform="translate(545.258972, 471.353972)"><g><path d="M 18.78125 -56.234375 L 35.9375 -52.03125 L 34.5625 -46.421875 L 24.15625 -48.96875 L 19.328125 -29.34375 L 29.1875 -26.921875 L 27.8125 -21.3125 L 17.953125 -23.734375 L 12.8125 -2.796875 L 23.34375 -0.21875 L 21.96875 5.390625 L 4.6875 1.15625 Z M 18.78125 -56.234375 "/></g></g></g><g fill="#ffffff" fill-opacity="1"><g transform="translate(218.1915, 178.168685)"><g><path d="M 16.742188 -23.917969 L 11.042969 -6.816406 L 5.339844 -23.917969 L -0.519531 -23.917969 L 8.09375 0 L 13.992188 0 L 22.601562 -23.917969 Z M 16.742188 -23.917969 "/></g></g></g><g fill="#ffffff" fill-opacity="1"><g transform="translate(243.332564, 178.168685)"><g><path d="M 13.753906 0.320312 C 20.570312 0.320312 26.03125 -5.183594 26.03125 -11.957031 C 26.03125 -18.734375 20.570312 -24.234375 13.753906 -24.234375 C 6.976562 -24.234375 1.476562 -18.734375 1.476562 -11.957031 C 1.476562 -5.183594 6.976562 0.320312 13.753906 0.320312 Z M 13.753906 -4.824219 C 9.726562 -4.824219 6.65625 -7.933594 6.65625 -11.957031 C 6.65625 -15.984375 9.726562 -19.09375 13.753906 -19.09375 C 17.820312 -19.09375 20.886719 -15.984375 20.886719 -11.957031 C 20.886719 -7.933594 17.820312 -4.824219 13.753906 -4.824219 Z M 13.753906 -4.824219 "/></g></g></g><g fill="#ffffff" fill-opacity="1"><g transform="translate(273.93373, 178.168685)"><g><path d="M 17.101562 -23.917969 L -0.199219 -23.917969 L -0.199219 -19.253906 L 5.859375 -19.253906 L 5.859375 0 L 11.082031 0 L 11.082031 -19.253906 L 17.101562 -19.253906 Z M 17.101562 -23.917969 "/></g></g></g><g fill="#ffffff" fill-opacity="1"><g transform="translate(293.893674, 178.168685)"><g><path d="M 16.941406 -19.292969 L 16.941406 -23.917969 L 2.550781 -23.917969 L 2.550781 0 L 16.941406 0 L 16.941406 -4.625 L 7.8125 -4.625 L 7.8125 -9.648438 L 15.625 -9.648438 L 15.625 -14.269531 L 7.8125 -14.269531 L 7.8125 -19.292969 Z M 16.941406 -19.292969 "/></g></g></g><g fill="#ffffff" fill-opacity="1"><g transform="translate(315.527518, 178.168685)"><g/></g></g><g fill="#ffffff" fill-opacity="1"><g transform="translate(328.154186, 178.168685)"><g><path d="M 16.941406 -19.292969 L 16.941406 -23.917969 L 2.550781 -23.917969 L 2.550781 0 L 7.8125 0 L 7.8125 -9.648438 L 15.625 -9.648438 L 15.625 -14.269531 L 7.8125 -14.269531 L 7.8125 -19.292969 Z M 16.941406 -19.292969 "/></g></g></g><g fill="#ffffff" fill-opacity="1"><g transform="translate(348.552533, 178.168685)"><g><path d="M 13.753906 0.320312 C 20.570312 0.320312 26.03125 -5.183594 26.03125 -11.957031 C 26.03125 -18.734375 20.570312 -24.234375 13.753906 -24.234375 C 6.976562 -24.234375 1.476562 -18.734375 1.476562 -11.957031 C 1.476562 -5.183594 6.976562 0.320312 13.753906 0.320312 Z M 13.753906 -4.824219 C 9.726562 -4.824219 6.65625 -7.933594 6.65625 -11.957031 C 6.65625 -15.984375 9.726562 -19.09375 13.753906 -19.09375 C 17.820312 -19.09375 20.886719 -15.984375 20.886719 -11.957031 C 20.886719 -7.933594 17.820312 -4.824219 13.753906 -4.824219 Z M 13.753906 -4.824219 "/></g></g></g><g fill="#ffffff" fill-opacity="1"><g transform="translate(379.153706, 178.168685)"><g><path d="M 14.828125 -9.847656 C 17.660156 -10.683594 19.652344 -13.3125 19.652344 -16.582031 C 19.652344 -20.648438 16.621094 -23.917969 12.515625 -23.917969 L 2.351562 -23.917969 L 2.351562 0 L 7.613281 0 L 7.613281 -9.246094 L 9.726562 -9.246094 L 15.625 0 L 21.527344 0 Z M 11.71875 -13.59375 L 7.613281 -13.59375 L 7.613281 -19.253906 L 11.71875 -19.253906 C 13.394531 -19.253906 14.628906 -18.058594 14.628906 -16.421875 C 14.628906 -14.75 13.394531 -13.59375 11.71875 -13.59375 Z M 11.71875 -13.59375 "/></g></g></g><g fill="#ffffff" fill-opacity="1"><g transform="translate(403.537522, 178.168685)"><g/></g></g><g fill="#ffffff" fill-opacity="1"><g transform="translate(416.164182, 178.168685)"><g><path d="M 13.753906 0.320312 C 18.496094 0.320312 22.601562 -2.351562 24.636719 -6.257812 L 20.089844 -8.609375 C 18.933594 -6.339844 16.582031 -4.824219 13.753906 -4.824219 C 9.726562 -4.824219 6.65625 -7.933594 6.65625 -11.957031 C 6.65625 -15.984375 9.726562 -19.09375 13.753906 -19.09375 C 16.582031 -19.09375 18.933594 -17.578125 20.089844 -15.308594 L 24.636719 -17.660156 C 22.601562 -21.566406 18.496094 -24.234375 13.753906 -24.234375 C 6.976562 -24.234375 1.476562 -18.734375 1.476562 -11.957031 C 1.476562 -5.183594 6.976562 0.320312 13.753906 0.320312 Z M 13.753906 0.320312 "/></g></g></g><g fill="#ffffff" fill-opacity="1"><g transform="translate(444.892168, 178.168685)"><g><path d="M 17.339844 -23.917969 L 17.339844 -14.308594 L 7.613281 -14.308594 L 7.613281 -23.917969 L 2.351562 -23.917969 L 2.351562 0 L 7.613281 0 L 7.613281 -9.648438 L 17.339844 -9.648438 L 17.339844 0 L 22.5625 0 L 22.5625 -23.917969 Z M 17.339844 -23.917969 "/></g></g></g><g fill="#ffffff" fill-opacity="1"><g transform="translate(472.902766, 178.168685)"><g><path d="M 16.980469 0 L 22.601562 0 L 13.992188 -23.917969 L 8.09375 -23.917969 L -0.519531 0 L 5.101562 0 L 6.578125 -4.503906 L 15.507812 -4.503906 Z M 7.972656 -8.890625 L 11.042969 -18.375 L 14.109375 -8.890625 Z M 7.972656 -8.890625 "/></g></g></g><g fill="#ffffff" fill-opacity="1"><g transform="translate(498.043823, 178.168685)"><g><path d="M 19.53125 -23.917969 L 19.53125 -8.09375 L 7.773438 -23.917969 L 2.351562 -23.917969 L 2.351562 0 L 7.613281 0 L 7.613281 -15.863281 L 19.332031 0 L 24.753906 0 L 24.753906 -23.917969 Z M 19.53125 -23.917969 "/></g></g></g><g fill="#ffffff" fill-opacity="1"><g transform="translate(528.246434, 178.168685)"><g><path d="M 13.753906 -13.113281 L 13.753906 -9.007812 L 20.328125 -9.007812 C 19.214844 -6.496094 16.742188 -4.824219 13.792969 -4.824219 C 9.765625 -4.824219 6.65625 -7.933594 6.65625 -11.957031 C 6.65625 -15.984375 9.765625 -19.09375 13.792969 -19.09375 C 16.621094 -19.09375 18.933594 -17.578125 20.128906 -15.308594 L 24.675781 -17.660156 C 22.601562 -21.566406 18.496094 -24.234375 13.792969 -24.234375 C 6.976562 -24.234375 1.515625 -18.734375 1.515625 -11.957031 C 1.515625 -5.183594 6.976562 0.320312 13.792969 0.320312 C 20.570312 0.320312 26.070312 -5.183594 26.070312 -11.957031 L 26.070312 -13.113281 Z M 13.753906 -13.113281 "/></g></g></g><g fill="#ffffff" fill-opacity="1"><g transform="translate(558.887448, 178.168685)"><g><path d="M 16.941406 -19.292969 L 16.941406 -23.917969 L 2.550781 -23.917969 L 2.550781 0 L 16.941406 0 L 16.941406 -4.625 L 7.8125 -4.625 L 7.8125 -9.648438 L 15.625 -9.648438 L 15.625 -14.269531 L 7.8125 -14.269531 L 7.8125 -19.292969 Z M 16.941406 -19.292969 "/></g></g></g><g fill="#ffffff" fill-opacity="1"><g transform="translate(580.521285, 178.168685)"><g><path d="M 3.707031 -8.292969 L 7.535156 -8.292969 L 8.171875 -24.515625 L 3.109375 -24.515625 Z M 5.621094 0.320312 C 7.214844 0.320312 8.449219 -0.957031 8.449219 -2.472656 C 8.449219 -4.027344 7.214844 -5.300781 5.621094 -5.300781 C 4.105469 -5.300781 2.832031 -4.027344 2.832031 -2.472656 C 2.832031 -0.957031 4.105469 0.320312 5.621094 0.320312 Z M 5.621094 0.320312 "/></g></g></g></svg>