<svg width="82" height="82" viewBox="0 0 82 82" fill="none" xmlns="http://www.w3.org/2000/svg">
<circle cx="41" cy="41" r="41" fill="#E8A646"/>
<path d="M48.4999 60.5827L43.0833 51.416H36.8333C36.243 51.416 35.7485 51.216 35.3499 50.816C34.9513 50.416 34.7513 49.9216 34.7499 49.3327C34.7499 48.7424 34.9499 48.248 35.3499 47.8493C35.7499 47.4507 36.2444 47.2507 36.8333 47.2493H43.0833L48.4999 38.0827H50.7916L48.0833 47.2493H54.0208L55.5833 45.166H57.6666L56.4166 49.3327L57.6666 53.4993H55.5833L54.0208 51.416H48.0833L50.7916 60.5827H48.4999ZM31.2083 43.916L33.9166 34.7493H27.9791L26.4166 36.8327H24.3333L25.5833 32.666L24.3333 28.4993H26.4166L27.9791 30.5827H33.9166L31.2083 21.416H33.4999L38.9166 30.5827H45.1666C45.7569 30.5827 46.252 30.7827 46.652 31.1827C47.052 31.5827 47.2513 32.0771 47.2499 32.666C47.2499 33.2563 47.0499 33.7514 46.6499 34.1514C46.2499 34.5514 45.7555 34.7507 45.1666 34.7493H38.9166L33.4999 43.916H31.2083Z" fill="#005250"/>
</svg>
