<svg width="82" height="82" viewBox="0 0 82 82" fill="none" xmlns="http://www.w3.org/2000/svg">
<circle cx="41" cy="41" r="41" fill="#E8A646"/>
<path fill-rule="evenodd" clip-rule="evenodd" d="M41.0001 20.166C33.1438 20.166 29.2147 20.166 26.7751 22.6077C24.5584 24.8223 24.3542 28.2618 24.3334 34.7493H22.2501C21.6975 34.7493 21.1676 34.9688 20.7769 35.3595C20.3862 35.7502 20.1667 36.2801 20.1667 36.8327V38.916C20.1667 39.2394 20.2421 39.5584 20.3867 39.8477C20.5313 40.137 20.7413 40.3886 21.0001 40.5827L24.3334 43.0827C24.3542 49.5702 24.5584 53.0098 26.7751 55.2243C27.2792 55.7306 27.8459 56.1306 28.5001 56.4473V59.7494C28.5001 60.3019 28.7196 60.8318 29.1103 61.2225C29.501 61.6132 30.0309 61.8327 30.5834 61.8327H33.7084C34.261 61.8327 34.7909 61.6132 35.1816 61.2225C35.5723 60.8318 35.7917 60.3019 35.7917 59.7494V57.6285C37.3063 57.666 39.0292 57.666 41.0001 57.666C42.9709 57.666 44.6938 57.666 46.2084 57.6285V59.7494C46.2084 60.3019 46.4279 60.8318 46.8186 61.2225C47.2093 61.6132 47.7392 61.8327 48.2917 61.8327H51.4167C51.9693 61.8327 52.4992 61.6132 52.8899 61.2225C53.2806 60.8318 53.5001 60.3019 53.5001 59.7494V56.4473C54.14 56.1399 54.7232 55.7264 55.2251 55.2243C57.4417 53.0098 57.648 49.5702 57.6668 43.0827L61.0001 40.5827C61.2588 40.3886 61.4688 40.137 61.6135 39.8477C61.7581 39.5584 61.8334 39.2394 61.8334 38.916V36.8327C61.8334 36.2801 61.6139 35.7502 61.2232 35.3595C60.8325 34.9688 60.3026 34.7493 59.7501 34.7493H57.6668C57.6459 28.2618 57.4417 24.8223 55.2251 22.6077C52.7855 20.166 48.8563 20.166 41.0001 20.166ZM27.4584 35.791C27.4584 38.7369 27.4584 40.2098 28.3751 41.1244C29.2897 42.041 30.7626 42.041 33.7084 42.041H48.2917C51.2376 42.041 52.7105 42.041 53.6251 41.1244C54.5417 40.2098 54.5418 38.7369 54.5418 35.791V30.5827C54.5418 27.6368 54.5417 26.1639 53.6251 25.2493C52.7126 24.3327 51.2397 24.3327 48.2917 24.3327H33.7084C30.7626 24.3327 29.2897 24.3327 28.3751 25.2493C27.4584 26.1618 27.4584 27.6348 27.4584 30.5827V35.791ZM29.0209 49.3327C29.0209 48.9183 29.1855 48.5209 29.4786 48.2278C29.7716 47.9348 30.169 47.7702 30.5834 47.7702H33.7084C34.1228 47.7702 34.5202 47.9348 34.8133 48.2278C35.1063 48.5209 35.2709 48.9183 35.2709 49.3327C35.2709 49.7471 35.1063 50.1445 34.8133 50.4375C34.5202 50.7306 34.1228 50.8952 33.7084 50.8952H30.5834C30.169 50.8952 29.7716 50.7306 29.4786 50.4375C29.1855 50.1445 29.0209 49.7471 29.0209 49.3327ZM52.9793 49.3327C52.9793 48.9183 52.8146 48.5209 52.5216 48.2278C52.2286 47.9348 51.8312 47.7702 51.4167 47.7702H48.2917C47.8773 47.7702 47.4799 47.9348 47.1869 48.2278C46.8939 48.5209 46.7292 48.9183 46.7292 49.3327C46.7292 49.7471 46.8939 50.1445 47.1869 50.4375C47.4799 50.7306 47.8773 50.8952 48.2917 50.8952H51.4167C51.8312 50.8952 52.2286 50.7306 52.5216 50.4375C52.8146 50.1445 52.9793 49.7471 52.9793 49.3327Z" fill="#005250"/>
</svg>
