<svg width="82" height="82" viewBox="0 0 82 82" fill="none" xmlns="http://www.w3.org/2000/svg">
<circle cx="41" cy="41" r="41" fill="#E8A646"/>
<path d="M28.5 22.2493C28.5 21.6968 28.7195 21.1669 29.1102 20.7762C29.5009 20.3855 30.0308 20.166 30.5833 20.166H51.4167C51.9692 20.166 52.4991 20.3855 52.8898 20.7762C53.2805 21.1669 53.5 21.6968 53.5 22.2493V47.2493C53.5 47.8019 53.2805 48.3318 52.8898 48.7225C52.4991 49.1132 51.9692 49.3327 51.4167 49.3327H30.5833C30.0308 49.3327 29.5009 49.1132 29.1102 48.7225C28.7195 48.3318 28.5 47.8019 28.5 47.2493V22.2493Z" stroke="#005250" stroke-width="4" stroke-linejoin="round"/>
<path d="M34.7498 45.1667C35.9004 45.1667 36.8332 44.2339 36.8332 43.0833C36.8332 41.9327 35.9004 41 34.7498 41C33.5992 41 32.6665 41.9327 32.6665 43.0833C32.6665 44.2339 33.5992 45.1667 34.7498 45.1667Z" fill="#005250"/>
<path d="M47.2498 45.1667C48.4004 45.1667 49.3332 44.2339 49.3332 43.0833C49.3332 41.9327 48.4004 41 47.2498 41C46.0992 41 45.1665 41.9327 45.1665 43.0833C45.1665 44.2339 46.0992 45.1667 47.2498 45.1667Z" fill="#005250"/>
<path d="M28.5 36.832H53.5M37.875 55.582H44.125M34.75 61.832H47.25" stroke="#005250" stroke-width="4" stroke-linecap="round" stroke-linejoin="round"/>
<path d="M33.7083 49.332L27.4583 61.832M48.2916 49.332L54.5416 61.832" stroke="#005250" stroke-width="4" stroke-linecap="round"/>
<path d="M53.5 31.625V42.0417M28.5 31.625V42.0417" stroke="#005250" stroke-width="4" stroke-linecap="round" stroke-linejoin="round"/>
</svg>
