<svg width="60" height="60" viewBox="0 0 60 60" fill="none" xmlns="http://www.w3.org/2000/svg">
<g clip-path="url(#clip0_1525_3833)">
<path d="M6.2393 46.7716C5.81714 47.1 5.7231 47.6631 6.05151 48.0853C6.2393 48.3197 6.52084 48.4606 6.80209 48.4606C6.98988 48.4606 7.17738 48.4137 7.36517 48.2728C7.78733 47.9444 7.88108 47.3816 7.55267 46.9594C7.22454 46.5373 6.61459 46.4432 6.2393 46.7716Z" fill="white"/>
<path d="M25.6137 58.7822C25.5668 59.2981 25.9421 59.7671 26.4581 59.814C26.5052 59.814 26.5521 59.814 26.5521 59.814C27.0211 59.814 27.4433 59.4387 27.4902 58.9697C27.537 58.4538 27.1618 57.9847 26.6458 57.9375C26.1299 57.8907 25.6606 58.266 25.6137 58.7822Z" fill="white"/>
<path d="M10.555 50.3372C10.1797 49.962 9.57002 50.0088 9.24161 50.3841C8.86632 50.7594 8.91319 51.3694 9.28848 51.6978C9.47627 51.8853 9.71065 51.979 9.94531 51.979C10.1797 51.979 10.4144 51.8853 10.6021 51.6978C10.9306 51.2753 10.9306 50.7125 10.555 50.3372Z" fill="white"/>
<path d="M21.0634 57.7026C20.9225 58.2185 21.204 58.7348 21.7202 58.8754C21.8139 58.8754 21.9077 58.9223 21.9546 58.9223C22.3767 58.9223 22.752 58.6407 22.8461 58.2654C22.9867 57.7495 22.7051 57.2336 22.1892 57.0927C21.7202 56.9052 21.204 57.2336 21.0634 57.7026Z" fill="white"/>
<path d="M30.305 59.1099C30.305 59.6258 30.7271 60.0011 31.2431 60.0011H31.2899C31.8061 60.0011 32.2283 59.5321 32.1814 59.0159C32.1814 58.4999 31.7124 58.0778 31.1962 58.1247C30.6803 58.1715 30.2581 58.5937 30.305 59.1099Z" fill="white"/>
<path d="M4.64438 15.7612C4.17506 15.5266 3.61227 15.7141 3.3776 16.1834C3.14294 16.6524 3.33073 17.2152 3.79977 17.4499C3.94068 17.4968 4.08131 17.5436 4.22193 17.5436C4.55035 17.5436 4.87876 17.3561 5.06655 17.0277C5.30092 16.6056 5.11342 16.0425 4.64438 15.7612Z" fill="white"/>
<path d="M35.6996 57.6059C35.1837 57.6996 34.8553 58.2155 34.9491 58.7318C35.0431 59.2008 35.4184 59.4823 35.8874 59.4823C35.9343 59.4823 36.028 59.4823 36.0749 59.4823C36.5911 59.3883 36.9195 58.8724 36.8255 58.3565C36.6849 57.8403 36.2158 57.5118 35.6996 57.6059Z" fill="white"/>
<path d="M0.375301 25.3331C0.281551 25.8493 0.656841 26.3184 1.17275 26.4121C1.21963 26.4121 1.2665 26.4121 1.31367 26.4121C1.78271 26.4121 2.158 26.0837 2.25175 25.6147C2.3455 25.0988 1.97021 24.6294 1.45429 24.5357C0.93838 24.4888 0.422176 24.8172 0.375301 25.3331Z" fill="white"/>
<path d="M2.6739 20.0324C2.20486 19.8917 1.64178 20.1261 1.50116 20.6423C1.36053 21.1114 1.59491 21.6744 2.11111 21.8151C2.20486 21.8619 2.29861 21.8619 2.39236 21.8619C2.76765 21.8619 3.14294 21.6273 3.28385 21.2051C3.42448 20.7361 3.1901 20.2202 2.6739 20.0324Z" fill="white"/>
<path d="M17.5917 57.2314C17.9673 57.2314 18.2954 57.0436 18.4363 56.7152C18.6707 56.2461 18.4363 55.6831 17.9673 55.4487C17.498 55.214 16.9352 55.4018 16.7005 55.8708C16.4658 56.3399 16.6536 56.903 17.1227 57.1373C17.3105 57.2314 17.4511 57.2314 17.5917 57.2314Z" fill="white"/>
<path d="M13.5104 54.9317C13.792 54.9317 14.1204 54.791 14.2613 54.5095C14.5425 54.0873 14.4488 53.5245 14.0266 53.1961C13.6045 52.9146 12.9945 53.0083 12.713 53.4305C12.4317 53.8527 12.5255 54.4626 12.9476 54.7442C13.1351 54.8379 13.3229 54.9317 13.5104 54.9317Z" fill="white"/>
<path d="M39.4997 57.5596C39.6403 57.9349 40.0156 58.1695 40.3909 58.1695C40.4847 58.1695 40.6256 58.1695 40.7193 58.1227C41.1884 57.9349 41.423 57.419 41.2821 56.9031C41.0946 56.4337 40.5315 56.1525 40.0625 56.34C39.5466 56.5278 39.3119 57.0437 39.4997 57.5596Z" fill="white"/>
<path d="M17.4511 4.73919C17.5917 4.73919 17.7326 4.69231 17.8733 4.64544C18.3426 4.41077 18.5301 3.84769 18.2954 3.37865C18.061 2.90962 17.498 2.72183 17.0289 2.95649C16.5599 3.19115 16.3721 3.75394 16.6068 4.22298C16.7474 4.5514 17.1227 4.73919 17.4511 4.73919Z" fill="white"/>
<path d="M13.4167 7.08407C13.6045 7.08407 13.792 7.0372 13.9329 6.89657C14.355 6.61503 14.4488 6.00508 14.1673 5.58291C13.8857 5.16075 13.276 5.067 12.8539 5.34825C12.4317 5.62979 12.3377 6.23974 12.6192 6.66191C12.807 6.94345 13.0883 7.08407 13.4167 7.08407Z" fill="white"/>
<path d="M10.4612 9.80577C10.8365 9.43048 10.8365 8.86769 10.4612 8.4924C10.0859 8.11712 9.52315 8.11712 9.14786 8.4924C8.77257 8.86769 8.77257 9.43048 9.14786 9.80577C9.33536 9.99356 9.57003 10.0873 9.8044 10.0873C10.0391 10.0873 10.2737 9.99356 10.4612 9.80577Z" fill="white"/>
<path d="M31.1024 1.87645C31.6184 1.87645 32.0408 1.45428 32.0408 0.985243C32.0408 0.469039 31.6652 0.046875 31.1493 0C30.6334 0 30.2112 0.375289 30.1641 0.891204C30.1172 1.45428 30.5394 1.87645 31.1024 1.87645Z" fill="white"/>
<path d="M35.7468 2.43936C36.169 2.43936 36.5911 2.11095 36.6849 1.68878C36.7786 1.17258 36.4502 0.70354 35.9343 0.60979C35.4184 0.51575 34.9491 0.844165 34.8553 1.36037C34.7616 1.87628 35.09 2.34532 35.6059 2.48624C35.6059 2.43936 35.6996 2.43936 35.7468 2.43936Z" fill="white"/>
<path d="M41.1415 3.09625C41.3293 2.62721 41.0946 2.06442 40.5787 1.87663C40.1094 1.68913 39.5466 1.9235 39.3588 2.43971C39.1713 2.90875 39.4057 3.47154 39.9219 3.65933C40.0156 3.7062 40.1563 3.7062 40.2503 3.7062C40.6256 3.7062 41.0009 3.5187 41.1415 3.09625Z" fill="white"/>
<path d="M21.5793 1.21989C21.0634 1.36081 20.7818 1.87672 20.9225 2.39264C21.0634 2.81509 21.4387 3.04946 21.814 3.04946C21.9077 3.04946 22.0015 3.04946 22.0955 3.00259C22.6114 2.86196 22.893 2.34576 22.7052 1.82985C22.5645 1.36081 22.0486 1.07927 21.5793 1.21989Z" fill="white"/>
<path d="M49.0694 53.244C49.4919 52.9156 49.5388 52.3057 49.2104 51.9304C48.8819 51.5082 48.272 51.4614 47.8967 51.7898C47.4745 52.1182 47.4277 52.7278 47.7561 53.1031C47.9436 53.3378 48.2251 53.4315 48.4598 53.4315C48.6942 53.4784 48.8819 53.3847 49.0694 53.244Z" fill="white"/>
<path d="M56.3877 17.6853C55.9187 17.8728 55.684 18.4358 55.8718 18.9049C56.0124 19.2802 56.3877 19.4679 56.7161 19.4679C56.8571 19.4679 56.9508 19.4208 57.0914 19.3739C57.5605 19.1864 57.7951 18.6233 57.5605 18.1543C57.4199 17.6853 56.8568 17.4975 56.3877 17.6853Z" fill="white"/>
<path d="M56.4346 42.2209C56.5755 42.2678 56.6693 42.3147 56.8099 42.3147C57.1852 42.3147 57.5136 42.0803 57.6545 41.7519C57.842 41.2826 57.6545 40.7198 57.1852 40.532C56.7161 40.3445 56.1534 40.532 55.9656 41.0482C55.7309 41.4704 55.9656 42.0331 56.4346 42.2209Z" fill="white"/>
<path d="M58.2642 23.9256C58.3582 23.9256 58.4051 23.9256 58.4989 23.8785C59.0148 23.7379 59.2963 23.2219 59.2026 22.7526C59.0616 22.2367 58.5457 21.9552 58.0767 22.0492C57.5605 22.1898 57.2792 22.7057 57.4199 23.1751C57.4667 23.6441 57.842 23.9256 58.2642 23.9256Z" fill="white"/>
<path d="M54.5581 15.3391C54.7459 15.3391 54.8866 15.2922 55.0744 15.1985C55.4965 14.9169 55.6371 14.3541 55.3556 13.8848C55.0744 13.4626 54.5113 13.322 54.0422 13.6036C53.6201 13.8848 53.4792 14.4479 53.7607 14.9169C53.9485 15.1985 54.2297 15.3391 54.5581 15.3391Z" fill="white"/>
<path d="M51.1337 9.99277C50.7584 10.3212 50.7115 10.9311 51.0399 11.3064C51.2274 11.4939 51.4621 11.6346 51.7436 11.6346C51.978 11.6346 52.1658 11.5408 52.3533 11.4002C52.7286 11.0718 52.7755 10.4618 52.4473 10.0865C52.072 9.66436 51.509 9.61748 51.1337 9.99277Z" fill="white"/>
<path d="M1.17274 33.7776C0.656827 33.8714 0.328413 34.3407 0.375288 34.8566C0.469038 35.3256 0.844327 35.654 1.31366 35.654C1.36053 35.654 1.40741 35.654 1.45428 35.654C1.9702 35.5603 2.29861 35.0913 2.25173 34.5751C2.15798 34.0123 1.68895 33.6839 1.17274 33.7776Z" fill="white"/>
<path d="M58.2642 37.8583C58.6863 37.8583 59.0616 37.5768 59.1557 37.1546C59.2963 36.6387 58.9679 36.1228 58.452 36.0287C57.9358 35.8881 57.4198 36.2165 57.3261 36.7324C57.1852 37.2486 57.5136 37.7177 58.0298 37.8583C58.1235 37.8583 58.2173 37.8583 58.2642 37.8583Z" fill="white"/>
<path d="M59.9531 32.3679C60 31.8519 59.6247 31.3829 59.1088 31.336C58.5926 31.2889 58.1236 31.6642 58.0767 32.1804C58.0298 32.6963 58.4051 33.1656 58.921 33.2125H58.9679C59.4841 33.2125 59.9062 32.8372 59.9531 32.3679Z" fill="white"/>
<path d="M47.7561 8.16199C47.9436 8.30262 48.1314 8.39666 48.366 8.39666C48.6473 8.39666 48.9288 8.25574 49.0694 8.06824C49.3979 7.64608 49.351 7.083 48.9288 6.75458C48.5067 6.42617 47.9436 6.47304 47.6154 6.8955C47.287 7.22391 47.3339 7.83358 47.7561 8.16199Z" fill="white"/>
<path d="M4.26909 44.4734C4.40971 44.4734 4.55034 44.4266 4.69125 44.3797C5.16029 44.145 5.34779 43.5822 5.06654 43.1129C4.83188 42.6439 4.26909 42.4564 3.79976 42.7376C3.33072 42.9723 3.14293 43.5353 3.42447 44.0044C3.61226 44.3328 3.94067 44.4734 4.26909 44.4734Z" fill="white"/>
<path d="M1.54802 39.5451C1.68894 39.9204 2.06423 40.2019 2.43952 40.2019C2.53327 40.2019 2.62702 40.2019 2.72077 40.1548C3.19009 40.0141 3.47134 39.4514 3.33072 38.982C3.14293 38.513 2.62702 38.2314 2.15798 38.3724C1.64177 38.513 1.36052 39.0289 1.54802 39.5451Z" fill="white"/>
<path d="M58.0767 27.6767C58.1236 28.1457 58.5457 28.521 59.0148 28.521C59.0148 28.521 59.0616 28.521 59.1088 28.521C59.6247 28.4741 60 28.052 59.9531 27.5358C59.9062 27.0199 59.4369 26.6446 58.921 26.6915C58.4051 26.7383 58.0298 27.1605 58.0767 27.6767Z" fill="white"/>
<path d="M44.6129 56.1066C44.7538 56.1066 44.9413 56.0597 45.0822 55.966C45.5512 55.6844 45.6919 55.1216 45.4106 54.6995C45.1759 54.2301 44.566 54.0895 44.1438 54.3711C43.6748 54.6526 43.5342 55.2154 43.8154 55.6375C43.9563 55.966 44.2847 56.1066 44.6129 56.1066Z" fill="white"/>
<path d="M44.4722 5.72356C44.8006 5.72356 45.1291 5.53606 45.2697 5.25452C45.5043 4.78548 45.3634 4.2224 44.9413 3.98802C44.5191 3.75336 43.9094 3.89427 43.6748 4.31644C43.3932 4.78548 43.581 5.34827 44.0032 5.58293C44.1438 5.67668 44.3316 5.72356 44.4722 5.72356Z" fill="white"/>
<path d="M52.5411 49.8653C52.8695 49.49 52.8226 48.8801 52.4473 48.5517C52.072 48.2233 51.4621 48.2701 51.1337 48.6454C50.8053 49.0207 50.8053 49.6307 51.2274 49.9591C51.4152 50.0997 51.6496 50.1937 51.8374 50.1937C52.072 50.1937 52.3533 50.0997 52.5411 49.8653Z" fill="white"/>
<path d="M55.1213 44.7051C54.6991 44.4236 54.0891 44.5642 53.8076 44.9864C53.5263 45.4088 53.667 46.0185 54.0891 46.3C54.2298 46.3938 54.4175 46.4406 54.605 46.4406C54.9335 46.4406 55.215 46.3 55.4028 46.0185C55.7309 45.5963 55.5903 44.9864 55.1213 44.7051Z" fill="white"/>
<path d="M26.4112 2.1096C26.458 2.1096 26.5052 2.1096 26.5521 2.1096C27.068 2.06272 27.4433 1.59339 27.3495 1.07748C27.3027 0.561565 26.8333 0.186275 26.3174 0.280025C25.8015 0.3269 25.4262 0.79594 25.52 1.31214C25.52 1.73431 25.9421 2.1096 26.4112 2.1096Z" fill="white"/>
<path d="M0.938368 30.9624C1.45428 30.9624 1.87645 30.5399 1.87645 30.024C1.87645 29.5081 1.45428 29.0859 0.938368 29.0859C0.422164 29.0859 0 29.5081 0 30.024C0 30.5399 0.422164 30.9624 0.938368 30.9624Z" fill="white"/>
<path d="M6.70833 13.6051C6.98987 13.6051 7.27141 13.4642 7.45891 13.2298C7.78733 12.8077 7.69358 12.2446 7.27141 11.9162C6.84896 11.5878 6.28617 11.6818 5.95776 12.104C5.62934 12.5261 5.72309 13.0889 6.14555 13.4173C6.28617 13.5111 6.47367 13.6051 6.70833 13.6051Z" fill="white"/>
<path d="M20.2659 43.1578C19.9844 44.0022 20.2659 44.9402 21.0165 45.4565L24.4878 47.9426C24.5347 47.9897 24.5816 48.0835 24.5347 48.1304L23.2213 52.1648C22.9398 53.0091 23.2213 53.9006 23.9719 54.4634C24.3472 54.7449 24.7694 54.8856 25.1915 54.8856C25.6137 54.8856 26.0359 54.7449 26.4112 54.5103L29.8828 52.0239C29.9297 51.977 30.0234 51.977 30.1172 52.0239L33.5888 54.5103C34.3394 55.0265 35.2775 55.0265 36.0281 54.5103C36.7786 53.9944 37.0602 53.056 36.7786 52.2117L35.4653 48.1772C35.4653 48.0835 35.4653 48.0366 35.5121 47.9897L38.9835 45.5033C39.7341 44.9871 40.0156 44.0959 39.7341 43.2047C39.4525 42.3601 38.702 41.7973 37.7639 41.7973H33.4479C33.3542 41.7973 33.3073 41.7504 33.2604 41.6564L31.9936 37.5282C31.7124 36.6839 30.9618 36.1211 30.0234 36.1211C29.0854 36.1211 28.3345 36.6839 28.0532 37.5282L26.7396 41.6095C26.6927 41.7036 26.6458 41.7504 26.5521 41.7504H22.2361C21.3449 41.7036 20.5472 42.2663 20.2659 43.1578ZM22.0486 43.7206C22.0955 43.58 22.1892 43.58 22.2361 43.58H26.5521C27.4433 43.58 28.2407 43.0169 28.5223 42.1726L29.8359 38.0913C29.8359 38.0444 29.8828 37.9504 30.0234 37.9504C30.1641 37.9504 30.2112 38.0444 30.2112 38.0913L31.5246 42.1726C31.8061 43.0169 32.6036 43.58 33.4948 43.58H37.8108C37.8576 43.58 37.9514 43.58 37.9986 43.7206C38.0454 43.8144 37.9514 43.9084 37.9514 43.9084L34.4332 46.4414C33.6826 46.9576 33.401 47.8957 33.6826 48.7403L34.9959 52.7745C34.9959 52.8216 35.0431 52.8685 34.9491 52.9622C34.8553 53.056 34.7616 52.9622 34.7147 52.9622L31.2431 50.4758C30.5393 49.9599 29.5544 49.9599 28.8038 50.4758L25.3322 52.9622C25.2853 52.9622 25.2384 53.056 25.0978 52.9622C25.004 52.8685 25.004 52.8216 25.0509 52.7745L26.3643 48.7403C26.6458 47.8957 26.3643 46.9576 25.6137 46.4414L22.1424 43.9553C22.0955 43.9084 22.0014 43.8613 22.0486 43.7206Z" fill="white"/>
<path d="M57.0446 31.1023C56.8099 30.3048 56.1062 29.7886 55.2619 29.7886H51.6496L50.5237 26.3641C50.2894 25.5667 49.5857 25.0508 48.7413 25.0508C47.8967 25.0508 47.193 25.5667 46.9586 26.3641L45.8328 29.7886H42.2205C41.3762 29.7886 40.6725 30.3048 40.4378 31.1023C40.2034 31.8997 40.4378 32.6972 41.1415 33.2134L44.0501 35.3242L42.9242 38.749C42.6895 39.5464 42.9242 40.3439 43.6279 40.8598C43.9563 41.0945 44.3316 41.2351 44.7538 41.2351C45.1291 41.2351 45.5043 41.0945 45.8328 40.8598L48.7413 38.749L51.6496 40.8598C52.3064 41.3291 53.1979 41.3291 53.8545 40.8598C54.5113 40.3908 54.7928 39.5464 54.5582 38.749L53.4323 35.3242L56.3409 33.2134C57.0446 32.6972 57.3261 31.8997 57.0446 31.1023ZM52.3533 33.7762C51.6968 34.2452 51.4152 35.0898 51.6496 35.8873L52.7755 39.3118L49.8672 37.2007C49.2104 36.7316 48.3189 36.7316 47.6623 37.2007L44.7538 39.3118L45.8796 35.8873C46.1143 35.0898 45.8796 34.2452 45.1759 33.7762L42.2674 31.6651H45.8796C46.6771 31.6651 47.4277 31.1492 47.6623 30.3517L48.7882 26.9272L49.9141 30.3517C50.1484 31.1492 50.899 31.6651 51.6968 31.6651H55.3087L52.3533 33.7762Z" fill="white"/>
<path d="M3.00231 31.1023C2.76765 31.8997 3.00231 32.6972 3.70601 33.2134L6.61458 35.3242L5.48871 38.749C5.25405 39.5464 5.48871 40.3439 6.19241 40.8598C6.52083 41.0945 6.89612 41.2351 7.31828 41.2351C7.69357 41.2351 8.06886 41.0945 8.39728 40.8598L11.3058 38.749L14.2141 40.8598C14.8709 41.3291 15.7624 41.3291 16.419 40.8598C17.0758 40.3908 17.3573 39.5464 17.1227 38.749L15.9499 35.3242L18.8585 33.2134C19.5153 32.7441 19.7966 31.8997 19.5622 31.1023C19.3275 30.3048 18.6238 29.7886 17.7795 29.7886H14.1672L13.0414 26.3641C12.807 25.5667 12.1033 25.0508 11.2587 25.0508C10.4143 25.0508 9.71064 25.5667 9.47627 26.3641L8.3504 29.7886H4.73813C3.94068 29.7886 3.23697 30.3048 3.00231 31.1023ZM10.1328 30.3986L11.2587 26.9741L12.3845 30.3986C12.6192 31.196 13.3698 31.7122 14.1672 31.7122H17.7795L14.8241 33.7762C14.1672 34.2452 13.8857 35.0898 14.1204 35.8873L15.2462 39.3118L12.3377 37.2007C11.6811 36.7316 10.7896 36.7316 10.1328 37.2007L7.22453 39.3118L8.3504 35.8873C8.58478 35.0898 8.3504 34.2452 7.6467 33.7762L4.73813 31.6651H8.3504C9.19473 31.6651 9.89843 31.1492 10.1328 30.3986Z" fill="white"/>
<path d="M21.5793 22.9871C21.5793 27.6315 25.3793 31.4313 30.0234 31.4313C34.6678 31.4313 38.4676 27.6315 38.4676 22.9871C38.4676 18.343 34.6678 14.543 30.0234 14.543C25.3793 14.543 21.5793 18.343 21.5793 22.9871ZM30.0234 16.4194C33.6357 16.4194 36.5911 19.3749 36.5911 22.9871C36.5911 26.5994 33.6357 29.5548 30.0234 29.5548C26.4112 29.5548 23.4557 26.5994 23.4557 22.9871C23.4557 19.3749 26.4112 16.4194 30.0234 16.4194Z" fill="white"/>
<path d="M28.4285 25.5199C28.616 25.7074 28.8507 25.8014 29.0854 25.8014C29.3197 25.8014 29.5544 25.7074 29.7419 25.5199L33.4948 21.767C33.8701 21.3917 33.8701 20.8286 33.4948 20.4533C33.1195 20.0781 32.5567 20.0781 32.1814 20.4533L29.0854 23.5497L27.8655 22.3298C27.4902 21.9545 26.9274 21.9545 26.5521 22.3298C26.1768 22.7051 26.1768 23.2682 26.5521 23.6434L28.4285 25.5199Z" fill="white"/>
</g>
<defs>
<clipPath id="clip0_1525_3833">
<rect width="60" height="60" fill="white"/>
</clipPath>
</defs>
</svg>
