<svg width="60" height="60" viewBox="0 0 60 60" fill="none" xmlns="http://www.w3.org/2000/svg">
<g clip-path="url(#clip0_1525_3882)">
<path d="M29.276 4.34384L32.8056 7.87335C33.1675 8.23533 33.7104 8.23533 34.0723 7.87335C34.4343 7.51137 34.4343 6.96855 34.0723 6.60628L32.1719 4.70611C43.7558 5.79205 53.3484 14.7512 54.9774 26.3349C55.068 26.7874 55.5203 27.1494 55.9728 27.0588C56.4253 26.9686 56.7873 26.516 56.6968 26.0635C54.9774 13.8462 45.1131 4.34384 33.077 2.98649L35.3394 1.80999C35.792 1.53857 35.9728 0.99546 35.7014 0.543203C35.5203 0.0906568 34.9774 8.97348e-05 34.5249 0.181224L29.5475 2.89592C29.0046 3.16762 28.9141 3.89158 29.276 4.34384Z" fill="white"/>
<path d="M59.6832 33.3954L56.8779 29.4137C56.6065 29.0517 55.8822 28.8706 55.5203 29.3231L51.991 32.8526C51.629 33.2146 51.629 33.7577 51.991 34.1197C52.353 34.4817 52.8958 34.4817 53.2578 34.1197L55.1583 32.2192C54.0723 43.8934 45.1131 53.486 33.4389 55.1151C32.9864 55.2056 32.6244 55.6582 32.6244 56.1104C32.715 56.6535 33.1675 56.925 33.6198 56.925C46.1085 55.2056 55.7014 44.9794 56.8779 32.5812L58.2352 34.3911C58.5067 34.7531 59.1403 34.8436 59.5023 34.5719C59.8643 34.3911 59.9549 33.848 59.6832 33.3954Z" fill="white"/>
<path d="M30.6334 55.6575L26.6516 51.6754C26.2896 51.3135 25.7465 51.3135 25.3845 51.6754C25.0226 52.0374 25.0226 52.5805 25.3845 52.9425L27.647 55.205C16.2442 54.2093 6.74219 45.3407 5.02257 33.8473C4.932 33.3948 4.47975 33.0328 4.0272 33.1234C3.57465 33.2139 3.21267 33.6665 3.30324 34.119C5.11314 46.1552 14.8869 55.4764 26.6516 57.0148L24.3892 58.1914C23.9366 58.3722 23.7558 58.9153 24.0272 59.3679C24.208 59.8201 24.8417 60.0012 25.2037 59.7298L30.4525 57.1054C30.9051 56.8337 31.0859 56.1098 30.6334 55.6575Z" fill="white"/>
<path d="M3.75579 30.8585C4.0272 30.8585 4.20805 30.7679 4.38918 30.587L8.09954 26.8767C8.46152 26.5147 8.46152 25.9716 8.09954 25.6096C7.73756 25.2476 7.19445 25.2476 6.83247 25.6096L4.75116 27.6912C5.74653 16.2884 14.2535 6.87668 25.6563 4.97622C26.1085 4.88565 26.4705 4.43311 26.3802 3.89028C26.3802 3.43774 25.9277 3.07576 25.4751 3.16632C13.2578 5.24763 4.20805 15.1119 3.03154 27.2387L1.76476 25.3382C1.49335 24.8857 0.950232 24.7951 0.497686 25.0668C0.135707 25.3382 0.0451396 25.9716 0.316841 26.3336L3.03154 30.4965C3.21267 30.7679 3.48409 30.8585 3.75579 30.8585Z" fill="white"/>
<path d="M16.4253 23.8902L10.0906 32.216C9.90943 32.4874 9.81887 32.8494 10 33.1208C10.1811 33.3922 10.4525 33.6639 10.8145 33.6639H13.7104V41.356C13.7104 41.8992 14.0723 42.2611 14.6155 42.2611H19.6832C20.2263 42.2611 20.5883 41.8992 20.5883 41.356V33.6639H23.4841C23.8461 33.6639 24.1178 33.4828 24.2986 33.1208C24.4797 32.8494 24.3892 32.4874 24.208 32.216L17.8733 23.8902C17.5113 23.4376 16.7873 23.4376 16.4253 23.8902ZM19.6832 31.854C19.1403 31.854 18.7784 32.216 18.7784 32.7588V40.4512H15.5203V32.7588C15.5203 32.216 15.1583 31.854 14.6155 31.854H12.6244L17.1493 25.9715L21.6742 31.854H19.6832Z" fill="white"/>
<path d="M27.285 42.2611H32.353C32.8958 42.2611 33.2578 41.8992 33.2578 41.356V27.6005H36.1539C36.5159 27.6005 36.7873 27.4194 36.9685 27.0574C37.1493 26.786 37.0587 26.424 36.8779 26.1526L30.5431 17.8268C30.362 17.6457 30.0906 17.4648 29.8189 17.4648C29.5475 17.4648 29.276 17.5551 29.0949 17.8268L22.7601 26.1526C22.5793 26.424 22.4887 26.786 22.6696 27.0574C22.8507 27.3291 23.1221 27.6005 23.4841 27.6005H26.3802V41.356C26.3802 41.8086 26.8325 42.2611 27.285 42.2611ZM25.294 25.7907L29.8189 19.9081L34.3437 25.7907H32.353C31.8099 25.7907 31.4479 26.1526 31.4479 26.6955V40.4512H28.1901V26.6955C28.1901 26.1526 27.8281 25.7907 27.285 25.7907H25.294Z" fill="white"/>
<path d="M49.638 20.1797C49.8189 19.908 49.7286 19.546 49.5475 19.2746L43.2127 10.9488C42.8507 10.4962 42.1267 10.4962 41.7648 10.9488L35.43 19.2746C35.2488 19.546 35.1583 19.908 35.3394 20.1797C35.5203 20.4511 35.792 20.7225 36.1539 20.7225H39.0498V41.3559C39.0498 41.899 39.4117 42.261 39.9549 42.261H45.0226C45.5657 42.261 45.9277 41.899 45.9277 41.3559V20.7225H48.8235C49.1855 20.7225 49.5475 20.4511 49.638 20.1797ZM45.0226 18.9126C44.4797 18.9126 44.1178 19.2746 44.1178 19.8174V40.4511H40.8597V19.8174C40.8597 19.2746 40.4977 18.9126 39.9549 18.9126H37.9638L42.4887 13.0301L47.0136 18.9126H45.0226Z" fill="white"/>
<path d="M11.7193 45.2474H48.1901C48.7329 45.2474 49.0949 44.8854 49.0949 44.3423C49.0949 43.7995 48.7329 43.4375 48.1901 43.4375H11.7193C11.1765 43.4375 10.8145 43.7995 10.8145 44.3423C10.8145 44.8854 11.2671 45.2474 11.7193 45.2474Z" fill="white"/>
</g>
<defs>
<clipPath id="clip0_1525_3882">
<rect width="60" height="60" fill="white"/>
</clipPath>
</defs>
</svg>
