<svg width="60" height="60" viewBox="0 0 60 60" fill="none" xmlns="http://www.w3.org/2000/svg">
<g clip-path="url(#clip0_1525_3878)">
<path d="M47.4343 19.8171C50.8889 19.8171 53.6994 17.0064 53.6994 13.5518C53.6994 10.0978 50.8889 7.28733 47.4343 7.28733C43.9797 7.28733 41.169 10.0975 41.169 13.5518C41.169 17.0064 43.9795 19.8171 47.4343 19.8171ZM47.4343 8.98785C49.9514 8.98785 51.9988 11.0353 51.9988 13.5518C51.9988 16.0689 49.9511 18.1166 47.4343 18.1166C44.9172 18.1166 42.8695 16.0689 42.8695 13.5518C42.8695 11.0353 44.9172 8.98785 47.4343 8.98785ZM12.5666 19.8171C16.0211 19.8171 18.8316 17.0064 18.8316 13.5518C18.8316 10.0978 16.0211 7.28733 12.5666 7.28733C9.11198 7.28733 6.3015 10.0975 6.3015 13.5518C6.3015 17.0064 9.11198 19.8171 12.5666 19.8171ZM12.5666 8.98785C15.0836 8.98785 17.1314 11.0353 17.1314 13.5518C17.1314 16.0689 15.0836 18.1166 12.5666 18.1166C10.0498 18.1166 8.00174 16.0689 8.00174 13.5518C8.00174 11.0353 10.0498 8.98785 12.5666 8.98785ZM47.4343 21.2373C45.5119 21.2373 43.6241 21.6774 41.9132 22.5148C40.2384 17.5414 35.5312 13.9497 30.0006 13.9497C24.4693 13.9497 19.7619 17.5414 18.0871 22.5148C16.3762 21.6774 14.4887 21.2373 12.5666 21.2373C5.63744 21.2373 0 26.8741 0 33.803C0 34.8568 0.456597 35.805 1.35706 36.6218C3.62297 38.6765 8.28733 39.5029 12.572 39.5029C13.3001 39.5029 14.0156 39.4774 14.708 39.4314V42.5122C14.708 47.4907 17.5052 51.4282 19.8519 53.8545C22.6771 56.7758 26.3886 59.0622 29.7798 59.9711C29.8521 59.9902 29.9259 60 30 60C30.0741 60 30.1479 59.9902 30.2202 59.9711C33.6114 59.0622 37.3229 56.7758 40.1481 53.8545C42.4948 51.4282 45.292 47.4907 45.292 42.5122V39.4314C45.9844 39.4774 46.6997 39.5029 47.428 39.5029C51.7127 39.5026 56.3773 38.6765 58.6429 36.6218C59.5434 35.805 60 34.8565 60 33.803C60 26.8741 54.3631 21.2373 47.4343 21.2373ZM30.0003 15.6502C35.9916 15.6502 40.8657 20.5243 40.8657 26.5153C40.8657 27.0729 40.6053 27.5828 40.0744 28.0648C37.9065 27.2827 36.0726 26.1817 34.7248 25.2196C34.5804 25.1169 34.408 25.0616 34.2309 25.0616H25.7694C25.5923 25.0616 25.4196 25.1169 25.2755 25.2196C23.9274 26.182 22.0935 27.283 19.9256 28.0648C19.3947 27.5828 19.1343 27.0729 19.1343 26.5153C19.1343 20.5243 24.0087 15.6502 30.0003 15.6502ZM2.49942 35.362C1.96181 34.8747 1.70052 34.3646 1.70052 33.803C1.70052 27.8119 6.57494 22.9375 12.5666 22.9375C14.3455 22.9375 16.0897 23.373 17.6487 24.1991C17.5081 24.9502 17.434 25.7242 17.434 26.5156C17.434 27.0859 17.5793 27.838 18.1398 28.61C17.2931 28.8209 16.408 28.974 15.491 29.0469C15.0492 29.0819 14.7083 29.4508 14.7083 29.8944V37.7286C9.58276 38.0935 4.43027 37.1131 2.49942 35.362ZM43.5914 42.5122C43.5914 50.2124 35.6345 56.6476 30 58.2674C24.3655 56.6476 16.4086 50.2124 16.4086 42.5122V30.6615C19.6464 30.2541 22.9549 28.9158 26.0391 26.7622H33.9612C37.0454 28.9161 40.3539 30.2541 43.5914 30.6615V42.5122ZM57.5006 35.362C55.5697 37.1131 50.4175 38.0932 45.292 37.7283V29.8944C45.292 29.4508 44.9511 29.0819 44.509 29.0469C43.592 28.974 42.7069 28.8206 41.8602 28.61C42.4207 27.838 42.5663 27.0859 42.5663 26.5156C42.5663 25.7242 42.4919 24.9502 42.3513 24.1994C43.9103 23.3733 45.6548 22.9375 47.434 22.9375C53.4253 22.9375 58.2995 27.8119 58.2995 33.803C58.2995 34.3646 58.0382 34.8747 57.5006 35.362ZM30.0003 12.5295C33.4549 12.5295 36.2656 9.71904 36.2656 6.26447C36.2656 2.81019 33.4549 0 30.0003 0C26.5457 0 23.7352 2.81019 23.7352 6.26447C23.7352 9.71904 26.5457 12.5295 30.0003 12.5295ZM30.0003 1.70052C32.5174 1.70052 34.5651 3.74769 34.5651 6.26447C34.5651 8.78125 32.5174 10.8293 30.0003 10.8293C27.4832 10.8293 25.4358 8.78125 25.4358 6.26447C25.4358 3.74769 27.4835 1.70052 30.0003 1.70052ZM33.4734 27.4852H26.5266C26.3573 27.4852 26.1924 27.5356 26.0521 27.6299C23.3851 29.4239 20.6146 30.6137 17.8171 31.167C17.4187 31.2457 17.1317 31.5949 17.1317 32.0009V42.5122C17.1317 45.5848 18.5883 48.8782 21.2332 51.7859C23.6123 54.4013 26.7127 56.4598 29.7396 57.4329C29.8244 57.4601 29.912 57.4737 30 57.4737C30.088 57.4737 30.1756 57.4601 30.2604 57.4329C33.2873 56.4598 36.3877 54.4013 38.7671 51.7859C41.4117 48.8782 42.8683 45.5848 42.8683 42.5122V32.0009C42.8683 31.5949 42.5813 31.2457 42.1832 31.167C39.3854 30.6137 36.6149 29.4239 33.9482 27.6299C33.8079 27.5356 33.6427 27.4852 33.4734 27.4852ZM41.1678 42.5122C41.1678 45.1609 39.8686 48.048 37.509 50.6418C35.4248 52.9332 32.6363 54.8186 30 55.7277C27.3637 54.8186 24.5752 52.9332 22.491 50.6418C20.1317 48.048 18.8322 45.1609 18.8322 42.5122V32.6878C21.5411 32.0587 24.2118 30.8828 26.7839 29.1858H33.2161C35.7882 30.8828 38.4589 32.0587 41.1678 32.6878V42.5122ZM26.0382 44.8944L37.0903 36.816C37.4693 36.5388 38.0012 36.6215 38.2784 37.0006C38.5553 37.3796 38.4728 37.9115 38.0935 38.1887L26.2295 46.8608C26.0825 46.9685 25.9062 47.0246 25.7277 47.0246C25.6606 47.0246 25.5935 47.0168 25.5272 47.0009C25.2839 46.9418 25.0793 46.7786 24.9673 46.5547L21.6473 39.9152C21.4375 39.4954 21.6076 38.9847 22.0278 38.7746C22.4476 38.5645 22.9583 38.735 23.1684 39.1548L26.0382 44.8944Z" fill="white"/>
</g>
<defs>
<clipPath id="clip0_1525_3878">
<rect width="60" height="60" fill="white"/>
</clipPath>
</defs>
</svg>
