<svg width="60" height="60" viewBox="0 0 60 60" fill="none" xmlns="http://www.w3.org/2000/svg">
<g clip-path="url(#clip0_1525_3940)">
<path d="M26.9997 18.8438H31.4059C31.4528 18.8438 31.4997 18.8438 31.5466 18.8438C29.8122 21.9375 28.6872 24.7969 28.9216 29.6719C29.2966 37.7812 34.9216 41.7188 40.0778 42.1406C40.6872 42.1875 41.3434 42.1875 41.9997 42.1875C42.6559 42.1875 43.3122 42.1406 43.9684 42.0938C49.1247 41.7188 54.7497 37.7344 55.1247 29.625C55.4059 24.0469 53.8591 21.0938 51.7028 17.3906C52.4528 16.125 52.1716 14.8125 51.6091 13.875C52.1716 13.0312 52.4059 12.1875 52.3122 11.2969C52.2184 10.3125 51.7497 9.51562 51.3278 9.04688C51.3278 9 51.2809 8.95312 51.2341 8.90625C51.4216 8.0625 51.3747 7.26562 51.0466 6.5625C50.3903 5.25 49.0778 4.78125 48.9372 4.73438C48.8434 4.6875 48.7497 4.6875 48.6559 4.6875H46.3122C46.5934 3.79688 46.9684 2.8125 47.4372 1.73438C47.9059 0.703125 47.5778 0 46.6403 0H37.0309C36.0466 0 35.7184 0.796875 36.1403 1.78125C36.6091 2.85938 37.1247 3.79688 37.5466 4.82812C36.5153 5.01562 35.3903 5.34375 34.6872 5.76562C32.7653 6.84375 31.7809 7.07812 31.3122 7.07812H27.7028C27.1872 7.07812 26.7653 7.5 26.7653 8.01562C26.7653 8.53125 27.1872 8.95312 27.7028 8.95312H31.3122C32.3434 8.95312 33.7028 8.48438 35.6247 7.40625C36.4216 6.9375 37.9684 6.5625 38.9997 6.5625H48.4684C48.7028 6.65625 49.1247 6.9375 49.3591 7.40625C49.4997 7.6875 49.5466 8.0625 49.4528 8.48438C48.9841 8.53125 48.6091 8.90625 48.6091 9.42188C48.6091 9.9375 49.0309 10.3594 49.5466 10.3594H49.9684C50.2028 10.6406 50.4372 11.0625 50.4841 11.5312C50.5309 12.0938 50.2966 12.7031 49.7341 13.3125C49.4059 13.6875 49.4528 14.2031 49.7341 14.5781C50.0153 14.8594 50.7653 15.8906 49.7809 16.875C49.4528 17.2031 49.4528 17.5781 49.4528 17.9531C49.4528 18.9375 49.3122 19.2188 48.6559 19.2656L40.0309 19.6875C38.9997 19.7344 37.4059 19.3594 36.5153 18.8906L35.8122 18.5156C34.3591 17.7188 32.6716 16.9219 31.3591 16.9219H26.9997C26.4841 16.9219 26.0622 17.3438 26.0622 17.8594C26.0622 18.375 26.4841 18.8438 26.9997 18.8438ZM45.3278 1.875C44.9059 2.90625 44.5778 3.89062 44.2966 4.6875H39.5622C39.2341 3.89062 38.3434 2.0625 38.2497 1.875H45.3278ZM35.6716 20.5781C36.7966 21.1406 38.5778 21.6094 39.8903 21.6094C39.9841 21.6094 48.7497 21.1875 48.7497 21.1875H48.7966C49.7809 21.0938 50.4372 20.625 50.8591 19.9219C52.4528 22.8281 53.4372 25.3125 53.2028 29.6719C52.8747 36.5625 48.2341 40.0312 43.7809 40.3594C43.1716 40.3125 42.5622 40.3125 41.9997 40.3125C41.3903 40.3125 40.8278 40.3125 40.2184 40.2656C35.7653 39.9375 31.1247 36.5156 30.7966 29.5781C30.5622 25.0312 31.6403 22.5 33.3747 19.4062C34.0309 19.6875 35.6716 20.5781 35.6716 20.5781Z" fill="white"/>
<path d="M24.1872 17.8125C24.1872 17.8741 24.1814 17.9349 24.1693 17.9954C24.1574 18.0558 24.1395 18.1143 24.116 18.1713C24.0923 18.228 24.0636 18.2821 24.0292 18.3333C23.9951 18.3845 23.9563 18.432 23.9126 18.4754C23.8692 18.5188 23.8217 18.5579 23.7705 18.592C23.7196 18.6262 23.6655 18.6551 23.6085 18.6785C23.5518 18.7023 23.493 18.7199 23.4326 18.7321C23.3724 18.7439 23.3113 18.75 23.2497 18.75C23.1884 18.75 23.1273 18.7439 23.0668 18.7321C23.0066 18.7199 22.9479 18.7023 22.8909 18.6785C22.8342 18.6551 22.7801 18.6262 22.7289 18.592C22.6776 18.5579 22.6305 18.5188 22.5868 18.4754C22.5434 18.432 22.5046 18.3845 22.4702 18.3333C22.436 18.2821 22.4071 18.228 22.3837 18.1713C22.3602 18.1143 22.3423 18.0558 22.3304 17.9954C22.3183 17.9349 22.3122 17.8741 22.3122 17.8125C22.3122 17.7509 22.3183 17.6901 22.3304 17.6296C22.3423 17.5692 22.3602 17.5107 22.3837 17.4537C22.4071 17.397 22.436 17.3429 22.4702 17.2917C22.5046 17.2405 22.5434 17.193 22.5868 17.1496C22.6305 17.1062 22.6776 17.0671 22.7289 17.033C22.7801 16.9988 22.8342 16.9699 22.8909 16.9465C22.9479 16.9227 23.0066 16.9051 23.0668 16.8929C23.1273 16.8811 23.1884 16.875 23.2497 16.875C23.3113 16.875 23.3724 16.8811 23.4326 16.8929C23.493 16.9051 23.5518 16.9227 23.6085 16.9465C23.6655 16.9699 23.7196 16.9988 23.7705 17.033C23.8217 17.0671 23.8692 17.1062 23.9126 17.1496C23.9563 17.193 23.9951 17.2405 24.0292 17.2917C24.0636 17.3429 24.0923 17.397 24.116 17.4537C24.1395 17.5107 24.1574 17.5692 24.1693 17.6296C24.1814 17.6901 24.1872 17.7509 24.1872 17.8125Z" fill="white"/>
<path d="M5.43719 56.25C5.43719 56.3116 5.43141 56.3724 5.41926 56.4329C5.40739 56.4933 5.38945 56.5518 5.36601 56.6088C5.34229 56.6655 5.31364 56.7196 5.27921 56.7708C5.24507 56.822 5.20629 56.8695 5.1626 56.9129C5.1192 56.9563 5.07174 56.9954 5.02053 57.0295C4.9696 57.0637 4.91549 57.0926 4.85849 57.116C4.80178 57.1398 4.74304 57.1574 4.68257 57.1696C4.62238 57.1814 4.56133 57.1875 4.49969 57.1875C4.43835 57.1875 4.3773 57.1814 4.31682 57.1696C4.25664 57.1574 4.1979 57.1398 4.14119 57.116C4.08419 57.0926 4.03008 57.0637 3.97886 57.0295C3.92765 56.9954 3.88048 56.9563 3.83679 56.9129C3.79339 56.8695 3.75461 56.822 3.72018 56.7708C3.68604 56.7196 3.6571 56.6655 3.63366 56.6088C3.61023 56.5518 3.59229 56.4933 3.58042 56.4329C3.56827 56.3724 3.56219 56.3116 3.56219 56.25C3.56219 56.1884 3.56827 56.1276 3.58042 56.0671C3.59229 56.0067 3.61023 55.9482 3.63366 55.8912C3.6571 55.8345 3.68604 55.7804 3.72018 55.7292C3.75461 55.678 3.79339 55.6305 3.83679 55.5871C3.88048 55.5437 3.92765 55.5046 3.97886 55.4705C4.03008 55.4363 4.08419 55.4074 4.14119 55.384C4.1979 55.3602 4.25664 55.3426 4.31682 55.3304C4.3773 55.3186 4.43835 55.3125 4.49969 55.3125C4.56133 55.3125 4.62238 55.3186 4.68257 55.3304C4.74304 55.3426 4.80178 55.3602 4.85849 55.384C4.91549 55.4074 4.9696 55.4363 5.02053 55.4705C5.07174 55.5046 5.1192 55.5437 5.1626 55.5871C5.20629 55.6305 5.24507 55.678 5.27921 55.7292C5.31364 55.7804 5.34229 55.8345 5.36601 55.8912C5.38945 55.9482 5.40739 56.0067 5.41926 56.0671C5.43141 56.1276 5.43719 56.1884 5.43719 56.25Z" fill="white"/>
<path d="M58.7341 48.2344C58.3122 47.2031 57.0466 46.6875 55.4528 46.9688C50.7653 47.7188 41.0622 48.75 40.9684 48.7969C40.4528 48.8438 40.0778 49.3125 40.1247 49.8281C40.1716 50.3438 40.6403 50.7188 41.1559 50.6719C41.2497 50.6719 50.9997 49.5938 55.7341 48.8438C56.5778 48.7031 56.9528 48.9375 56.9997 48.9844C57.0466 49.0781 56.8591 49.6875 55.8278 50.4375C52.0778 53.25 44.8122 56.3906 42.9841 57C38.6247 58.3594 35.1559 58.5469 32.0153 57.4688C30.0934 56.8125 28.2184 55.8281 26.3903 54.8438C24.1403 53.625 21.7966 52.4062 19.2653 51.75C18.1403 51.4688 17.0622 51.4219 16.1247 51.6562V42.7969C16.1247 42.7031 16.1247 42.6562 16.1247 42.5625L19.0778 41.6719C19.1247 41.6719 23.8591 40.2188 28.3122 42.6562C28.9684 43.0312 29.6247 43.3594 30.2809 43.6875C31.7809 44.4844 33.3278 45.2812 34.7341 46.2188C35.7653 46.875 36.3278 47.5312 36.4216 48.0938C36.4684 48.4219 36.3747 48.75 36.1403 49.125C35.8591 49.5469 34.4059 49.6406 29.2028 47.9062C28.4997 47.6719 27.9841 47.4844 27.6091 47.3906C27.0934 47.25 26.5778 47.5781 26.4841 48.0938C26.3434 48.6094 26.6716 49.125 27.1872 49.2188C27.4684 49.3125 28.0309 49.4531 28.6403 49.6875C32.6716 51.0469 36.4216 52.125 37.7341 50.2031C38.2966 49.4062 38.4841 48.5625 38.2966 47.7656C38.0622 46.6875 37.2653 45.7031 35.8122 44.7188C34.3591 43.7344 32.7653 42.8906 31.2184 42.0938C30.5622 41.7656 29.9059 41.3906 29.2966 41.0625C24.1403 38.2031 18.7966 39.8438 18.6091 39.8906L15.6559 40.7812C14.8591 39.4219 13.3122 38.4375 11.5309 38.4375H4.49969C3.98407 38.4375 3.56219 38.8594 3.56219 39.375C3.56219 39.8906 3.98407 40.3125 4.49969 40.3125H11.5309C13.0778 40.3125 14.3434 41.4375 14.3434 42.7969V52.8281C14.3434 54.1875 13.0778 55.3125 11.5309 55.3125H8.24969C7.73407 55.3125 7.31219 55.7344 7.31219 56.25C7.31219 56.7656 7.73407 57.1875 8.24969 57.1875H11.5309C13.8278 57.1875 15.7497 55.6406 16.1247 53.5781C17.0622 53.2031 18.0934 53.3438 18.8434 53.5312C21.1403 54.1406 23.2966 55.2656 25.5466 56.4844C27.4216 57.4688 29.3903 58.5469 31.4528 59.2031C32.9997 59.7188 34.5934 60 36.3278 60C38.5309 60 40.9216 59.5781 43.5466 58.7344C45.2809 58.1719 52.8278 54.9844 56.9528 51.8906C59.2497 50.2031 58.9684 48.75 58.7341 48.2344Z" fill="white"/>
<path d="M2.62469 12.1875C2.62469 12.2491 2.61891 12.3099 2.60676 12.3704C2.59489 12.4308 2.57695 12.4893 2.55351 12.5463C2.52979 12.603 2.50114 12.6571 2.46671 12.7083C2.43257 12.7595 2.39379 12.807 2.3501 12.8504C2.3067 12.8938 2.25924 12.9329 2.20803 12.967C2.1571 13.0012 2.10299 13.0301 2.04599 13.0535C1.98928 13.0773 1.93054 13.0949 1.87007 13.1071C1.80988 13.1189 1.74883 13.125 1.68719 13.125C1.62585 13.125 1.5648 13.1189 1.50432 13.1071C1.44414 13.0949 1.3854 13.0773 1.32869 13.0535C1.27169 13.0301 1.21758 13.0012 1.16636 12.967C1.11515 12.9329 1.06798 12.8938 1.02429 12.8504C0.980887 12.807 0.942114 12.7595 0.907681 12.7083C0.873537 12.6571 0.844602 12.603 0.821165 12.5463C0.797727 12.4893 0.779787 12.4308 0.767924 12.3704C0.755771 12.3099 0.749695 12.2491 0.749695 12.1875C0.749695 12.1259 0.755771 12.0651 0.767924 12.0046C0.779787 11.9442 0.797727 11.8857 0.821165 11.8287C0.844602 11.772 0.873537 11.7179 0.907681 11.6667C0.942114 11.6155 0.980887 11.568 1.02429 11.5246C1.06798 11.4812 1.11515 11.4421 1.16636 11.408C1.21758 11.3738 1.27169 11.3449 1.32869 11.3215C1.3854 11.2977 1.44414 11.2801 1.50432 11.2679C1.5648 11.2561 1.62585 11.25 1.68719 11.25C1.74883 11.25 1.80988 11.2561 1.87007 11.2679C1.93054 11.2801 1.98928 11.2977 2.04599 11.3215C2.10299 11.3449 2.1571 11.3738 2.20803 11.408C2.25924 11.4421 2.3067 11.4812 2.3501 11.5246C2.39379 11.568 2.43257 11.6155 2.46671 11.6667C2.50114 11.7179 2.52979 11.772 2.55351 11.8287C2.57695 11.8857 2.59489 11.9442 2.60676 12.0046C2.61891 12.0651 2.62469 12.1259 2.62469 12.1875Z" fill="white"/>
<path d="M9.18719 9.375H13.8747C14.3903 9.375 14.8122 8.95312 14.8122 8.4375C14.8122 7.92187 14.3903 7.5 13.8747 7.5H9.18719C8.67157 7.5 8.24969 7.92187 8.24969 8.4375C8.24969 8.95312 8.67157 9.375 9.18719 9.375Z" fill="white"/>
<path d="M13.8747 15H9.18719C8.67157 15 8.24969 15.4219 8.24969 15.9375C8.24969 16.4531 8.67157 16.875 9.18719 16.875H13.8747C14.3903 16.875 14.8122 16.4531 14.8122 15.9375C14.8122 15.4219 14.3903 15 13.8747 15Z" fill="white"/>
<path d="M5.43719 13.125H13.8747C14.3903 13.125 14.8122 12.7031 14.8122 12.1875C14.8122 11.6719 14.3903 11.25 13.8747 11.25H5.43719C4.92157 11.25 4.49969 11.6719 4.49969 12.1875C4.49969 12.7031 4.92157 13.125 5.43719 13.125Z" fill="white"/>
<path d="M40.4997 35.5781C40.6872 35.6719 40.8747 35.7188 41.0622 35.7656V36.5625C41.0622 37.0781 41.4841 37.5 41.9997 37.5C42.5153 37.5 42.9372 37.0781 42.9372 36.5625V35.8594C43.2185 35.8125 43.4528 35.7188 43.6872 35.625C45.0935 35.0156 45.7966 33.5625 45.3747 32.2031C44.906 30.6094 43.4997 30.1875 42.3747 29.8594C41.5778 29.625 40.9216 29.4375 40.6403 28.9219C40.406 28.5469 40.406 28.0312 40.6403 27.7031C41.0153 27.1406 41.8591 27 42.5622 27.1406C43.1716 27.2812 43.781 27.7969 43.9216 28.4062C44.0622 28.9219 44.5778 29.2031 45.0935 29.0625C45.6091 28.9219 45.8903 28.4062 45.7497 27.8906C45.4216 26.625 44.2497 25.5469 42.9841 25.2656V24.3281C42.9841 23.8125 42.5622 23.3906 42.0466 23.3906C41.531 23.3906 41.1091 23.8125 41.1091 24.3281V25.2656C40.3122 25.4531 39.5622 25.875 39.0466 26.6719C38.4841 27.6094 38.4841 28.8281 39.0466 29.8125C39.7028 30.9375 40.9216 31.3125 41.906 31.5938C42.9841 31.9219 43.4997 32.1094 43.6872 32.6719C43.8278 33.1875 43.4528 33.6562 43.031 33.8438C42.5153 34.0781 41.906 34.0781 41.3435 33.7969C40.781 33.5625 40.3591 33.0938 40.1716 32.5781C40.031 32.0625 39.4685 31.8281 38.9997 31.9688C38.531 32.1094 38.2497 32.6719 38.3903 33.1406C38.6247 34.2656 39.4216 35.1094 40.4997 35.5781Z" fill="white"/>
</g>
<defs>
<clipPath id="clip0_1525_3940">
<rect width="60" height="60" fill="white"/>
</clipPath>
</defs>
</svg>
