<svg width="60" height="60" viewBox="0 0 60 60" fill="none" xmlns="http://www.w3.org/2000/svg">
<g clip-path="url(#clip0_1525_3891)">
<mask id="mask0_1525_3891" style="mask-type:luminance" maskUnits="userSpaceOnUse" x="0" y="20" width="12" height="40">
<path d="M0 20.9648H11.037V59.0143H0V20.9648Z" fill="white"/>
</mask>
<g mask="url(#mask0_1525_3891)">
<path d="M3.60154 42.3267C2.57202 41.217 2.01213 39.7676 2.01213 38.2584V24.5043C2.01213 24.0845 2.1921 23.6748 2.502 23.3947C2.82173 23.105 3.23146 22.9751 3.66143 23.015C4.41114 23.0949 5.00084 23.8047 5.00084 24.6444V30.8617C5.00084 31.4115 5.4505 31.8611 6.00026 31.8611C6.55003 31.8611 6.99998 31.4115 6.99998 30.8617V24.6444C6.99998 22.785 5.62064 21.1959 3.86138 21.0257C2.87179 20.9259 1.89205 21.2457 1.15246 21.9155C0.422718 22.5752 0.00286865 23.5249 0.00286865 24.5142V38.2682C0.00286865 40.2876 0.752579 42.2066 2.12208 43.6959L8.72914 50.8628C8.89928 51.0527 8.99911 51.2928 8.99911 51.5425V58.0098C8.99911 58.5596 9.44876 59.0093 9.99853 59.0093C10.5483 59.0093 10.9982 58.5596 10.9982 58.0098V51.5425C10.9982 50.783 10.7184 50.0634 10.1985 49.5136L3.59141 42.3466L3.60154 42.3267Z" fill="white"/>
</g>
<mask id="mask1_1525_3891" style="mask-type:luminance" maskUnits="userSpaceOnUse" x="4" y="32" width="19" height="28">
<path d="M4.96295 32.9648H22.0741V59.0143H4.96295V32.9648Z" fill="white"/>
</mask>
<g mask="url(#mask1_1525_3891)">
<path d="M10.9783 34.02C9.61891 32.6704 7.39987 32.6704 6.03037 34.02C5.37065 34.6797 5.00085 35.5593 5.00085 36.4988C5.00085 37.4384 5.36081 38.3082 6.03037 38.9679L10.9881 43.9256C11.1881 44.1256 11.4381 44.2156 11.6979 44.2156C11.9577 44.2156 12.2077 44.1155 12.4077 43.9256C12.7974 43.5359 12.7974 42.906 12.4077 42.5162L7.44964 37.5584C7.16984 37.2784 7.01011 36.8987 7.01011 36.4988C7.01011 36.099 7.16984 35.719 7.44964 35.4392C8.03963 34.8695 8.98899 34.8695 9.56885 35.4392L17.9551 43.8255C19.2746 45.145 20.0043 46.9042 20.0043 48.7734V57.9994C20.0043 58.5492 20.4543 58.9991 21.0037 58.9991C21.5535 58.9991 22.0035 58.5492 22.0035 57.9994V48.7734C22.0035 46.3744 21.0639 44.1155 19.3646 42.4164L10.9783 34.0298V34.02Z" fill="white"/>
</g>
<mask id="mask2_1525_3891" style="mask-type:luminance" maskUnits="userSpaceOnUse" x="37" y="32" width="19" height="28">
<path d="M37.9259 32.9648H55.037V59.0143H37.9259V32.9648Z" fill="white"/>
</mask>
<g mask="url(#mask2_1525_3891)">
<path d="M53.9595 38.9777C54.6192 38.318 54.989 37.4384 54.989 36.4988C54.989 35.5593 54.6293 34.6895 53.9595 34.02C52.6001 32.6704 50.3811 32.6704 49.0119 34.02L40.6253 42.4062C38.9262 44.1056 37.9864 46.3646 37.9864 48.7636V57.9896C37.9864 58.5394 38.4363 58.989 38.9861 58.989C39.5359 58.989 39.9855 58.5394 39.9855 57.9896V48.7636C39.9855 46.8944 40.7153 45.1351 42.0347 43.8157L50.4112 35.4392C51.0009 34.8597 51.9505 34.8597 52.5301 35.4392C52.8102 35.719 52.9699 36.099 52.9699 36.4988C52.9699 36.8987 52.8102 37.2784 52.5301 37.5584L47.5723 42.5162C47.1826 42.906 47.1826 43.5359 47.5723 43.9256C47.7723 44.1256 48.0223 44.2156 48.2821 44.2156C48.5419 44.2156 48.7919 44.1155 48.9916 43.9256L53.9496 38.9679L53.9595 38.9777Z" fill="white"/>
</g>
<mask id="mask3_1525_3891" style="mask-type:luminance" maskUnits="userSpaceOnUse" x="48" y="20" width="12" height="40">
<path d="M48.963 20.9648H60V59.0143H48.963V20.9648Z" fill="white"/>
</mask>
<g mask="url(#mask3_1525_3891)">
<path d="M58.8374 21.9071C58.1079 21.2474 57.1282 20.9175 56.1287 21.0176C54.3695 21.1976 52.9898 22.7867 52.9898 24.636V30.8533C52.9898 31.4031 53.4398 31.853 53.9896 31.853C54.5393 31.853 54.989 31.4031 54.989 30.8533V24.636C54.989 23.7963 55.579 23.0767 56.3287 23.0066C56.7584 22.9566 57.1782 23.0966 57.4881 23.3866C57.798 23.6664 57.9777 24.0764 57.9777 24.4959V38.25C57.9777 39.7595 57.4181 41.2089 56.3886 42.3183L49.7815 49.4852C49.2717 50.0448 48.9916 50.7647 48.9916 51.5145V57.9815C48.9916 58.5312 49.4415 58.9812 49.9913 58.9812C50.5411 58.9812 50.9907 58.5312 50.9907 57.9815V51.5145C50.9907 51.2645 51.0807 51.0246 51.2607 50.8345L57.8677 43.6678C59.2372 42.1884 59.9869 40.2593 59.9869 38.2402V24.4861C59.9869 23.4965 59.5671 22.557 58.8374 21.8871V21.9071Z" fill="white"/>
</g>
<path d="M30 15.0074C32.7587 15.0074 34.9977 12.7684 34.9977 10.0097C34.9977 7.25072 32.7587 5.01172 30 5.01172C27.2413 5.01172 25.002 7.25072 25.002 10.0097C25.002 12.7684 27.2413 15.0074 30 15.0074ZM30 7.01085C31.6493 7.01085 32.9985 8.36039 32.9985 10.0097C32.9985 11.659 31.6493 13.0082 30 13.0082C28.3507 13.0082 27.0011 11.659 27.0011 10.0097C27.0011 8.36039 28.3507 7.01085 30 7.01085Z" fill="white"/>
<path d="M38.996 34V25.0038C38.996 20.046 34.9578 16.0078 30 16.0078C25.0423 16.0078 21.0038 20.046 21.0038 25.0038V34C21.0038 34.5498 21.4537 34.9994 22.0035 34.9994H24.0026C24.5524 34.9994 25.002 34.5498 25.002 34C25.002 33.4502 24.5524 33.0003 24.0026 33.0003H23.0029V25.0038C23.0029 21.1455 26.1418 18.0069 30 18.0069C33.8582 18.0069 36.9968 21.1455 36.9968 25.0038V33.0003H28.0009C27.4511 33.0003 27.0012 33.4502 27.0012 34C27.0012 34.5498 27.4511 34.9994 28.0009 34.9994H37.9965C38.5463 34.9994 38.996 34.5498 38.996 34Z" fill="white"/>
<path d="M37.3368 15.7862C38.6163 14.6366 40.2755 14.0069 41.9948 14.0069C43.8539 14.0069 45.6132 14.7364 46.9427 16.046C48.2622 17.3753 48.9916 19.1345 48.9916 21.0038V29.0003H41.9948C41.445 29.0003 40.9951 29.4502 40.9951 30C40.9951 30.5498 41.445 30.9994 41.9948 30.9994H49.9913C50.5411 30.9994 50.9908 30.5498 50.9908 30V21.0038C50.9908 18.6047 50.0614 16.3458 48.362 14.6366C46.6528 12.9372 44.3938 12.0078 41.9948 12.0078C39.7758 12.0078 37.6467 12.8174 35.9974 14.2867C35.5877 14.6565 35.5475 15.2862 35.9176 15.6962C36.2873 16.1059 36.917 16.1458 37.3267 15.776L37.3368 15.7862Z" fill="white"/>
<mask id="mask4_1525_3891" style="mask-type:luminance" maskUnits="userSpaceOnUse" x="36" y="1" width="12" height="11">
<path d="M36.963 1.01172H47.037V11.0363H36.963V1.01172Z" fill="white"/>
</mask>
<g mask="url(#mask4_1525_3891)">
<path d="M41.9948 11.0074C44.7535 11.0074 46.9925 8.76837 46.9925 6.00969C46.9925 3.25072 44.7535 1.01172 41.9948 1.01172C39.2361 1.01172 36.9968 3.25072 36.9968 6.00969C36.9968 8.76837 39.2361 11.0074 41.9948 11.0074ZM41.9948 3.01085C43.6441 3.01085 44.9934 4.36039 44.9934 6.00969C44.9934 7.659 43.6441 9.00825 41.9948 9.00825C40.3455 9.00825 38.996 7.659 38.996 6.00969C38.996 4.36039 40.3455 3.01085 41.9948 3.01085Z" fill="white"/>
</g>
<path d="M10.0087 31.0013H18.0052C18.555 31.0013 19.0046 30.5517 19.0046 30.0019C19.0046 29.4521 18.555 29.0022 18.0052 29.0022H11.0081V21.0056C11.0081 17.1474 14.147 14.0088 18.0052 14.0088C19.7344 14.0088 21.3837 14.6385 22.6632 15.7881C23.0729 16.1578 23.7028 16.1179 24.0726 15.7079C24.4424 15.2982 24.4025 14.6685 23.9925 14.2988C22.3435 12.8291 20.2141 12.0195 17.9951 12.0195C13.0373 12.0195 8.99915 16.0577 8.99915 21.0158V30.0117C8.99915 30.5615 9.4488 31.0114 9.99857 31.0114L10.0087 31.0013Z" fill="white"/>
<mask id="mask5_1525_3891" style="mask-type:luminance" maskUnits="userSpaceOnUse" x="12" y="1" width="12" height="11">
<path d="M12.963 1.01172H23.037V11.0363H12.963V1.01172Z" fill="white"/>
</mask>
<g mask="url(#mask5_1525_3891)">
<path d="M18.0052 11.0074C20.7639 11.0074 23.0029 8.76837 23.0029 6.00969C23.0029 3.25072 20.7639 1.01172 18.0052 1.01172C15.2465 1.01172 13.0072 3.25072 13.0072 6.00969C13.0072 8.76837 15.2465 11.0074 18.0052 11.0074ZM18.0052 3.01085C19.6545 3.01085 21.0037 4.36039 21.0037 6.00969C21.0037 7.659 19.6545 9.00825 18.0052 9.00825C16.3559 9.00825 15.0063 7.659 15.0063 6.00969C15.0063 4.36039 16.3559 3.01085 18.0052 3.01085Z" fill="white"/>
</g>
</g>
<defs>
<clipPath id="clip0_1525_3891">
<rect width="60" height="60" fill="white"/>
</clipPath>
</defs>
</svg>
