<svg width="60" height="60" viewBox="0 0 60 60" fill="none" xmlns="http://www.w3.org/2000/svg">
<path fill-rule="evenodd" clip-rule="evenodd" d="M40.941 38.4372L44.4763 46.0338C44.5287 46.1432 44.5156 46.2613 44.4413 46.3533C44.3713 46.4496 44.2619 46.4933 44.1438 46.4713L39.4534 45.653L37.0556 49.7705C36.9989 49.8709 36.8938 49.9279 36.7755 49.9236C36.6574 49.9193 36.5611 49.8536 36.5087 49.7442L33.601 43.4991C35.684 43.8594 37.748 42.9783 38.9352 41.1611L40.364 38.9765C40.5185 38.7416 40.7034 38.5654 40.941 38.4372ZM26.3296 43.4991L23.4219 49.7442C23.3736 49.8536 23.2732 49.9193 23.1551 49.9236C23.0368 49.9279 22.9317 49.8709 22.8747 49.7705L20.4815 45.653L15.7868 46.4713C15.6687 46.4933 15.5593 46.4496 15.4893 46.3533C15.4149 46.2613 15.4016 46.1432 15.4543 46.0338L18.9896 38.4372C19.2272 38.5654 19.412 38.7416 19.5666 38.9765L20.996 41.162C22.1826 42.9783 24.2465 43.8594 26.3296 43.4991ZM32.0501 9.84922L34.1458 11.4201C34.7191 11.8489 35.3186 12.0674 36.0362 12.107L38.6482 12.2514C40.2101 12.3388 41.4835 13.4065 41.838 14.9291L42.4372 17.48C42.5993 18.1756 42.9187 18.7312 43.4436 19.2213L45.3513 21.011C46.4934 22.0827 46.7821 23.7193 46.0732 25.1149L44.8921 27.4514C44.5726 28.0903 44.4589 28.7205 44.5463 29.4334L44.8571 32.0324C45.0408 33.5859 44.2138 35.0252 42.7697 35.6423L40.3678 36.6704C39.7072 36.9505 39.217 37.366 38.8232 37.9655L37.3927 40.1533C36.535 41.4658 34.9772 42.0304 33.4766 41.5795L30.9693 40.8226C30.2868 40.6128 29.6438 40.6128 28.9609 40.8226L26.454 41.5795C24.9531 42.0304 23.3956 41.4658 22.5379 40.1533L21.1071 37.9655C20.7136 37.366 20.2234 36.9505 19.5628 36.6704L17.1606 35.6423C15.7211 35.0252 14.8898 33.5859 15.0735 32.0324L15.3843 29.4334C15.4717 28.7205 15.3579 28.0903 15.0385 27.4514L13.8571 25.1149C13.1484 23.7193 13.4372 22.0827 14.579 21.011L16.4867 19.2213C17.0119 18.7312 17.3313 18.1756 17.4931 17.48L18.0926 14.9291C18.4471 13.4065 19.7202 12.3388 21.2821 12.2514L23.8944 12.107C24.612 12.0674 25.2159 11.8489 25.7847 11.4201L27.8805 9.84922C29.136 8.91288 30.7943 8.91288 32.0501 9.84922ZM29.9679 36.9085C36.2792 36.9085 41.4323 31.7555 41.4323 25.4389C41.4323 19.1221 36.2792 13.969 29.9679 13.969C23.6513 13.969 18.4983 19.1221 18.4983 25.4389C18.4983 31.7555 23.6513 36.9085 29.9679 36.9085ZM29.1632 18.9135C29.2761 18.5659 29.5998 18.3307 29.9653 18.3307C30.3307 18.3307 30.6545 18.5659 30.7674 18.9135L31.9436 22.5338C32.0564 22.8813 32.3805 23.1166 32.7457 23.1166H36.5524C36.9175 23.1166 37.2416 23.3518 37.3545 23.6993C37.4673 24.0469 37.3438 24.4276 37.048 24.6423L33.9685 26.8796C33.6728 27.0946 33.5492 27.4751 33.6621 27.8226L34.8386 31.4427C34.9514 31.7902 34.8276 32.171 34.5318 32.3857C34.2364 32.6004 33.8362 32.6004 33.5405 32.3857L30.4609 30.1484C30.1655 29.9337 29.7651 29.9337 29.4696 30.1484L26.3901 32.3857C26.0943 32.6004 25.6942 32.6004 25.3984 32.3857C25.103 32.171 24.9792 31.7902 25.092 31.4427L26.2682 27.8226C26.3814 27.4751 26.2575 27.0946 25.9618 26.8796L22.8825 24.6423C22.5868 24.4276 22.4633 24.0469 22.5761 23.6993C22.689 23.3518 23.0127 23.1166 23.3782 23.1166H27.1846C27.5501 23.1166 27.8739 22.8813 27.9867 22.5338L29.1632 18.9135ZM41.9931 4.89726L41.9199 4.68111C41.6736 3.95542 42.0628 3.16635 42.7882 2.92012C43.5139 2.67388 44.303 3.06306 44.5492 3.78875L45.7518 7.33215C45.8715 7.68516 45.8443 8.07145 45.6765 8.4042C45.5084 8.73696 45.2136 8.98811 44.8585 9.10125L41.2928 10.2372C40.5628 10.4696 39.7813 10.0657 39.5486 9.33563C39.3163 8.60559 39.7199 7.82405 40.4502 7.59141L40.897 7.44905C31.5703 3.17764 20.1702 4.8799 12.4954 12.5544C4.03126 21.0188 2.83161 34.0147 8.89816 43.7627C9.30296 44.4132 9.1036 45.2699 8.45285 45.675C7.80238 46.0798 6.94561 45.8802 6.54081 45.2297C-0.192699 34.4103 1.13745 19.9855 10.5321 10.5911C19.0333 2.08997 31.6528 0.192395 41.9931 4.89726ZM17.544 54.956L17.614 55.1733C17.849 55.9025 17.4476 56.6855 16.7182 56.9204C15.989 57.1554 15.206 56.7543 14.9711 56.0249L13.8232 52.4632C13.7089 52.1082 13.7422 51.7225 13.9152 51.3923C14.0886 51.0622 14.3869 50.8157 14.7439 50.708L18.3267 49.6276C19.0602 49.4062 19.8354 49.8223 20.0567 50.5558C20.2781 51.2896 19.862 52.0648 19.1285 52.2859L18.6794 52.4216C27.939 56.8365 39.364 55.311 47.1566 47.7561C55.7506 39.4236 57.1511 26.4479 51.2361 16.6073C50.8415 15.9505 51.0541 15.0969 51.711 14.7019C52.3678 14.3073 53.2214 14.5199 53.616 15.1768C60.1812 26.0992 58.6282 40.5014 49.0894 49.7494C40.4578 58.118 27.8102 59.8203 17.544 54.956Z" fill="white"/>
</svg>
