<svg width="60" height="60" viewBox="0 0 60 60" fill="none" xmlns="http://www.w3.org/2000/svg">
<g clip-path="url(#clip0_1525_3926)">
<mask id="mask0_1525_3926" style="mask-type:luminance" maskUnits="userSpaceOnUse" x="0" y="0" width="60" height="60">
<path d="M0 0.0742188H59.8519V59.9076H0V0.0742188Z" fill="white"/>
</mask>
<g mask="url(#mask0_1525_3926)">
<path d="M59.7118 26.2918C59.4233 25.4044 58.6039 24.8092 57.6713 24.8092C57.6698 24.8092 57.6684 24.8092 57.6667 24.8092L53.1325 24.8176C53.1322 24.8176 53.1319 24.8176 53.1317 24.8176C53.0286 24.8176 52.9578 24.7658 52.9262 24.668L51.5333 20.3529C51.5333 20.3529 51.5333 20.3529 51.5333 20.3526C51.2459 19.4637 50.4253 18.8662 49.4907 18.8662C49.1299 18.8662 48.7865 18.9562 48.4835 19.117C46.8782 16.6576 44.7827 14.5218 42.3519 12.8688V10.979C42.3519 10.58 42.1062 10.2221 41.7338 10.0786L40.2925 9.52387C40.0706 8.75709 39.7648 8.01866 39.3785 7.31872L40.0055 5.9064C40.1675 5.54181 40.0883 5.11473 39.8058 4.83261L37.6094 2.63585C37.3273 2.35373 36.9005 2.27445 36.5356 2.43649L35.1227 3.0638C34.4227 2.67781 33.6846 2.37167 32.9184 2.15003L32.3634 0.708189C32.2199 0.335793 31.862 0.0898438 31.463 0.0898438H28.3562C27.9572 0.0898438 27.5992 0.335793 27.456 0.708189L26.9008 2.15003C26.1345 2.37167 25.3961 2.67781 24.6965 3.0638L23.2836 2.43649C22.9187 2.27416 22.4919 2.35373 22.2098 2.63585L20.0127 4.83261C19.7306 5.11502 19.6513 5.54181 19.8134 5.9064L20.441 7.31901C20.0547 8.01895 19.7486 8.75709 19.5269 9.52387L18.0854 10.0788C17.713 10.2221 17.467 10.58 17.467 10.9793V12.8668C15.6429 14.106 14.0246 15.6 12.6424 17.3176C11.5373 16.8349 10.3186 16.5653 9.03762 16.5653C4.0544 16.5653 0 20.6199 0 25.6032C0 27.9486 0.738137 29.2102 1.45226 30.4304C2.24074 31.7776 3.05585 33.1714 3.2526 36.4608V37.7394C3.2526 38.6495 3.7908 39.4345 4.56453 39.7985V40.363C4.56453 41.2863 5.11777 42.0815 5.90972 42.4382V42.9868C5.90972 44.242 6.93113 45.2635 8.18634 45.2635H9.88889C10.7439 45.2635 11.4899 44.7889 11.8788 44.0901C14.1105 47.2114 17.1149 49.707 20.6053 51.3222C18.704 53.3086 17.4303 55.9136 17.1172 58.8413C17.088 59.1136 17.1756 59.3853 17.3588 59.5887C17.542 59.7924 17.8027 59.9087 18.0764 59.9087H41.7428C42.0165 59.9087 42.2772 59.7924 42.4604 59.5887C42.6432 59.3853 42.7312 59.1133 42.702 58.8413C42.3886 55.9128 41.1143 53.3072 39.2121 51.3208C42.1305 49.9677 44.7442 47.9802 46.8345 45.5094C48.958 42.999 50.4962 40.0412 51.3328 36.8827L53.2818 38.3045C54.0365 38.8549 55.0518 38.8558 55.8076 38.3069C56.5637 37.7574 56.8764 36.7918 56.5859 35.9035L55.1765 31.5939C55.1444 31.4958 55.1716 31.4119 55.2552 31.3514L58.9285 28.6934C59.6861 28.1457 60.0006 27.1807 59.7118 26.2918ZM19.3967 11.6416L20.6803 11.1474C20.9774 11.0331 21.1988 10.7799 21.2723 10.4703C21.4899 9.55657 21.8507 8.68649 22.3446 7.8844C22.5113 7.61357 22.5339 7.27763 22.4048 6.98684L21.8458 5.72873L23.1056 4.46889L24.3643 5.02792C24.6548 5.15668 24.9907 5.1344 25.2616 4.96774C26.0639 4.47353 26.9337 4.11299 27.8472 3.89569C28.1568 3.8219 28.4103 3.60055 28.5243 3.30339L29.0185 2.01953H30.8003L31.2946 3.30339C31.4089 3.60055 31.662 3.8219 31.9716 3.89569C32.8851 4.11299 33.7552 4.47353 34.5573 4.96774C34.8281 5.1344 35.1644 5.15668 35.4549 5.02792L36.7133 4.46889L37.9731 5.72873L37.4144 6.98655C37.285 7.27734 37.3076 7.61328 37.4745 7.88412C37.9688 8.68591 38.3293 9.55628 38.5472 10.4703C38.6207 10.7799 38.842 11.0334 39.1389 11.1474L40.4222 11.6416V13.4232L39.1386 13.9174C38.8417 14.0317 38.6201 14.2849 38.5466 14.5945C38.329 15.508 37.9685 16.378 37.4742 17.1801C37.3076 17.4512 37.285 17.7869 37.4141 18.0777L37.9731 19.3361L36.7133 20.5959L35.4554 20.0372C35.1649 19.9081 34.829 19.9307 34.5579 20.0974C33.7561 20.5916 32.8857 20.9521 31.9716 21.17C31.662 21.2435 31.4086 21.4648 31.2946 21.7617L30.8003 23.0453H29.0188L28.5246 21.7614C28.4103 21.4646 28.1568 21.2429 27.8475 21.1694C26.9337 20.9518 26.0637 20.591 25.2619 20.0974C24.9907 19.9301 24.6548 19.9078 24.3643 20.0369L23.1056 20.5959L21.8458 19.3361L22.4048 18.0783C22.5339 17.7875 22.5113 17.4518 22.3443 17.1807C21.8504 16.3789 21.4899 15.5085 21.272 14.5945C21.1985 14.2849 20.9771 14.0314 20.6803 13.9174L19.3967 13.4232V11.6416ZM1.92969 25.6032C1.92969 21.6839 5.11834 18.4949 9.03762 18.4949C12.9572 18.4949 16.1458 21.6836 16.1458 25.6032C16.1458 27.4255 15.6215 28.3213 14.9578 29.4556C14.2063 30.74 13.2865 32.3121 12.967 35.4625H11.3967V28.5033H12.3079C13.8741 28.5033 15.1487 27.229 15.1487 25.6625C15.1487 24.0959 13.8744 22.8216 12.3079 22.8216C10.7413 22.8216 9.46701 24.0959 9.46701 25.6625V26.5736H8.60851V25.6625C8.60851 24.0962 7.3342 22.8216 5.76765 22.8216C4.2011 22.8216 2.92679 24.0959 2.92679 25.6625C2.92679 27.229 4.2011 28.5033 5.76765 28.5033H6.67882V35.4625H5.10822C4.78877 32.3121 3.86892 30.74 3.11748 29.4556C2.45399 28.3213 1.92969 27.4255 1.92969 25.6032ZM6.84115 40.7102C6.65307 40.7102 6.49421 40.5514 6.49421 40.363V40.0161H11.5813V40.363C11.5813 40.5514 11.4225 40.7102 11.2344 40.7102H6.84115ZM12.8929 37.7394C12.8929 37.9275 12.7344 38.0864 12.546 38.0864H5.52922C5.34115 38.0864 5.18229 37.9275 5.18229 37.7394V37.3922H12.8932V37.7394H12.8929ZM6.67882 26.5736H5.76765C5.26505 26.5736 4.85648 26.1648 4.85648 25.6625C4.85648 25.1602 5.26505 24.7513 5.76765 24.7513C6.26997 24.7513 6.67882 25.1602 6.67882 25.6625V26.5736ZM9.46672 35.4625H8.60851V28.5033H9.46672V35.4625ZM11.3964 26.5736V25.6625C11.3964 25.1602 11.8053 24.7513 12.3076 24.7513C12.8102 24.7513 13.219 25.1602 13.219 25.6625C13.219 26.1648 12.8102 26.5736 12.3076 26.5736H11.3964ZM9.88889 43.3338H8.18634C7.99826 43.3338 7.83941 43.1749 7.83941 42.9868V42.6396H10.2358V42.9868C10.2358 43.1749 10.077 43.3338 9.88889 43.3338ZM19.2028 57.9793C20.2433 52.9556 24.6704 49.2881 29.9097 49.2881C35.1487 49.2881 39.5758 52.9556 40.6163 57.9793H19.2028ZM24.8568 42.3057C24.8568 39.5195 27.1236 37.2528 29.9094 37.2528C32.6956 37.2528 34.9624 39.5195 34.9624 42.3057C34.9624 45.0916 32.6956 47.3584 29.9094 47.3584C27.1236 47.3584 24.8568 45.0919 24.8568 42.3057ZM37.6212 49.9125C36.5174 49.0875 35.2769 48.4382 33.9421 48.0004C35.7254 46.7342 36.8921 44.6541 36.8921 42.3057C36.8921 38.4553 33.7595 35.3231 29.9097 35.3231C26.0596 35.3231 22.9274 38.4556 22.9274 42.3057C22.9274 44.6541 24.094 46.7342 25.877 48.0004C24.5422 48.4382 23.3015 49.0878 22.1973 49.9128C18.3203 48.3132 15.0411 45.5482 12.803 42.0085C13.2378 41.5936 13.5107 41.01 13.5107 40.363V39.7985C14.2847 39.4345 14.8226 38.6495 14.8226 37.7392V36.4591C15.0197 33.1712 15.8348 31.7776 16.623 30.4304C17.3371 29.2102 18.0752 27.9486 18.0752 25.6032C18.0752 22.5994 16.601 19.9348 14.3391 18.2904C15.395 17.0175 16.5961 15.8844 17.9265 14.9058C17.9766 14.9368 18.0289 14.9648 18.0851 14.9863L19.5263 15.5412C19.7483 16.308 20.0544 17.0464 20.4404 17.7464L19.8134 19.1587C19.6513 19.5233 19.7306 19.9501 20.0127 20.2325L22.2095 22.4293C22.4919 22.7114 22.9187 22.7907 23.2833 22.6286L24.6965 22.001C25.3961 22.3873 26.1343 22.6934 26.9008 22.9151L27.4557 24.3569C27.599 24.7293 27.9569 24.975 28.3562 24.975H31.4627C31.862 24.975 32.2199 24.7293 32.3631 24.3569L32.9181 22.9157C33.6849 22.6937 34.4233 22.3879 35.1233 22.0016L36.5356 22.6286C36.8999 22.7907 37.327 22.7117 37.6094 22.4293L39.8061 20.2325C40.0883 19.9501 40.1675 19.5233 40.0055 19.1587L39.3782 17.7458C39.7642 17.0459 40.0703 16.3077 40.292 15.5412L41.7338 14.9863C41.7899 14.9648 41.842 14.9368 41.8921 14.9058C44.0616 16.5051 45.9068 18.5366 47.2888 20.8491L46.0561 24.668C46.0243 24.7661 45.9531 24.8179 45.8501 24.8179C45.8501 24.8179 45.8498 24.8179 45.8495 24.8179L41.3154 24.8095C41.3139 24.8095 41.3125 24.8095 41.3111 24.8095C40.3785 24.8095 39.5587 25.4047 39.2703 26.2921C38.9812 27.181 39.296 28.146 40.0532 28.6937L43.7266 31.352C43.8102 31.4125 43.8374 31.4964 43.8053 31.5945L42.3958 35.9041C42.1053 36.7924 42.4181 37.7583 43.1742 38.3074C43.5518 38.5815 43.9936 38.7186 44.4355 38.7186C44.8788 38.7186 45.3223 38.5806 45.7002 38.3048L49.3631 35.6327C49.4468 35.5719 49.535 35.5719 49.6183 35.6327L49.6479 35.6541C48.2138 42.0276 43.6736 47.4119 37.6212 49.9125ZM57.7977 27.1304L54.1241 29.7886C53.3657 30.3375 53.0518 31.3043 53.3429 32.194L54.7523 36.5036C54.7841 36.6014 54.7572 36.6853 54.6739 36.7458C54.5903 36.8063 54.502 36.8063 54.4193 36.7455L50.7561 34.0734C49.9997 33.5216 48.9835 33.5216 48.2266 34.0734L44.5637 36.7455C44.48 36.8063 44.3921 36.8063 44.3087 36.7461C44.2254 36.6853 44.1982 36.6014 44.2303 36.5036L45.6398 32.194C45.9308 31.3043 45.6169 30.3375 44.8582 29.7883L41.1846 27.1304C41.1013 27.0699 41.0741 26.9863 41.1059 26.8882C41.1377 26.7904 41.2089 26.7389 41.3113 26.7389C41.3116 26.7389 41.3119 26.7389 41.3122 26.7389L45.8464 26.7473C45.8478 26.7473 45.8492 26.7473 45.8507 26.7473C46.7853 26.7473 47.6056 26.1503 47.8929 25.2606L49.2856 20.9457C49.3174 20.8477 49.3886 20.7959 49.4916 20.7959C49.5946 20.7959 49.6658 20.8477 49.6976 20.9455L51.0903 25.2606C51.3776 26.1503 52.1979 26.7473 53.1325 26.7473C53.134 26.7473 53.1354 26.7473 53.1369 26.7473L57.6713 26.7389C57.6713 26.7389 57.6716 26.7389 57.6719 26.7389C57.7746 26.7389 57.8455 26.7904 57.8773 26.8879C57.9086 26.986 57.8814 27.0699 57.7977 27.1304ZM29.9094 19.7438C33.886 19.7438 37.1209 16.5088 37.1209 12.5326C37.1209 8.55599 33.886 5.32104 29.9094 5.32104C25.9332 5.32104 22.6982 8.55599 22.6982 12.5326C22.6982 16.5088 25.9332 19.7438 29.9094 19.7438ZM29.9094 7.25072C32.8218 7.25072 35.1913 9.61994 35.1913 12.5326C35.1913 15.4449 32.8218 17.8141 29.9094 17.8141C26.9971 17.8141 24.6276 15.4449 24.6276 12.5326C24.6276 9.61994 26.9971 7.25072 29.9094 7.25072ZM26.2905 13.3896C25.9138 13.0129 25.9138 12.4021 26.2905 12.025C26.6672 11.6483 27.2784 11.6483 27.6548 12.025L28.7179 13.0881L32.1979 9.93012C32.5923 9.57191 33.2025 9.60142 33.5608 9.99609C33.919 10.3908 33.8895 11.001 33.4945 11.3589L29.3342 15.1347C29.1499 15.3019 28.9178 15.385 28.6858 15.385C28.4384 15.385 28.1916 15.2904 28.0038 15.1026L26.2905 13.3896Z" fill="white"/>
</g>
</g>
<defs>
<clipPath id="clip0_1525_3926">
<rect width="60" height="60" fill="white"/>
</clipPath>
</defs>
</svg>
