<svg width="60" height="60" viewBox="0 0 60 60" fill="none" xmlns="http://www.w3.org/2000/svg">
<path d="M25.1638 9.68808V15.0078C25.1638 15.5399 25.5989 15.9751 26.1311 15.9751H33.8689C34.4007 15.9751 34.8362 15.5399 34.8362 15.0078V9.68808C34.8362 8.12095 33.7529 6.80556 32.3021 6.42853C33.1047 5.761 33.627 4.77431 33.627 3.64265C33.627 1.64062 32.002 0.015625 30 0.015625C27.9977 0.015625 26.3727 1.64062 26.3727 3.64265C26.3727 4.76476 26.8949 5.761 27.6979 6.42853C26.2471 6.80556 25.1638 8.12095 25.1638 9.68808ZM30 1.95023C30.9285 1.95023 31.6927 2.71412 31.6927 3.64265C31.6927 4.57118 30.9285 5.33536 30 5.33536C29.0715 5.33536 28.3073 4.57118 28.3073 3.64265C28.3073 2.71412 29.0715 1.95023 30 1.95023ZM27.0981 9.68808C27.0981 8.88513 27.7462 8.23727 28.5492 8.23727H31.4508C32.2535 8.23727 32.9016 8.88513 32.9016 9.68808V14.0405H27.0981V9.68808Z" fill="white"/>
<path d="M34.8362 50.3105V44.9907C34.8362 44.4589 34.4007 44.0234 33.8689 44.0234H26.1311C25.5989 44.0234 25.1638 44.4589 25.1638 44.9907V50.3105C25.1638 51.8776 26.2471 53.193 27.6979 53.57C26.8949 54.2376 26.3727 55.2242 26.3727 56.3559C26.3727 58.3579 27.9977 59.9829 30 59.9829C32.002 59.9829 33.627 58.3579 33.627 56.3559C33.627 55.2338 33.1047 54.2376 32.3021 53.57C33.7529 53.193 34.8362 51.8776 34.8362 50.3105ZM30 58.0486C29.0715 58.0486 28.3073 57.2844 28.3073 56.3559C28.3073 55.4274 29.0715 54.6632 30 54.6632C30.9285 54.6632 31.6927 55.4274 31.6927 56.3559C31.6927 57.2844 30.9285 58.0486 30 58.0486ZM32.9016 50.3105C32.9016 51.1134 32.2535 51.7613 31.4508 51.7613H28.5492C27.7462 51.7613 27.0981 51.1134 27.0981 50.3105V45.958H32.9016V50.3105Z" fill="white"/>
<path d="M2.82061 43.7057C3.22686 44.5859 3.95227 45.2534 4.87096 45.5822C5.27721 45.7274 5.6933 45.8047 6.10909 45.8047C6.63137 45.8047 7.15365 45.6886 7.63745 45.4661C8.51766 45.0599 9.1849 44.3345 9.5139 43.4155C9.55238 43.3093 9.57177 43.2028 9.60099 43.0963C10.2489 43.8799 11.2066 44.3249 12.2028 44.3249C12.6768 44.3249 13.1699 44.2184 13.6247 44.0055L18.4416 41.752C18.9251 41.5295 19.1377 40.9491 18.9057 40.4655L15.6363 33.4531C15.4141 32.9693 14.8336 32.7566 14.3501 32.9887L9.53328 35.2326C8.11141 35.9002 7.37617 37.4381 7.647 38.9083C6.69908 38.4632 5.57727 38.4054 4.56164 38.8793C2.7529 39.7208 1.95979 41.8874 2.81077 43.6962L2.82061 43.7057ZM10.3649 36.993L14.3114 35.1554L16.7682 40.4172L12.8218 42.2549C12.0964 42.5934 11.2257 42.2743 10.897 41.5489L9.6687 38.9178C9.33016 38.1924 9.64931 37.3316 10.3747 36.993H10.3649ZM5.39324 40.6397C6.24451 40.243 7.25059 40.6105 7.647 41.4618C7.84058 41.868 7.85996 42.3322 7.70516 42.7578C7.55036 43.1834 7.24075 43.522 6.82495 43.7155C6.4187 43.9088 5.95429 43.9282 5.52865 43.7734C5.10331 43.6186 4.76477 43.3093 4.57119 42.8932C4.17478 42.0518 4.54225 41.0361 5.39324 40.6397Z" fill="white"/>
<path d="M57.1794 16.2956C56.7732 15.4154 56.0477 14.7478 55.1288 14.4191C54.2196 14.0901 53.2329 14.1289 52.3527 14.5447C51.4725 14.951 50.8053 15.6764 50.4763 16.5953C50.4378 16.7018 50.4184 16.8179 50.3892 16.9243C49.4317 15.7635 47.7873 15.3381 46.3559 16.0054L41.5391 18.2591C41.0556 18.4816 40.8426 19.0618 41.0749 19.5456L44.344 26.558C44.5084 26.9061 44.8568 27.1191 45.2243 27.1191C45.3597 27.1191 45.5046 27.0898 45.6305 27.032L50.4473 24.7878C51.8692 24.1301 52.6042 22.602 52.3333 21.122C52.8171 21.3543 53.349 21.4703 53.8811 21.4703C54.4129 21.4703 54.9161 21.3639 55.4091 21.1318C57.2179 20.2904 58.011 18.1237 57.16 16.315L57.1794 16.2956ZM49.6348 23.0082L45.6887 24.8459L43.2318 19.5841L47.178 17.7464C47.9034 17.4078 48.7645 17.727 49.103 18.4524L50.3313 21.0835C50.6699 21.8089 50.3507 22.6697 49.6253 23.0082H49.6348ZM54.6065 19.3615C53.7552 19.7582 52.7494 19.3908 52.3527 18.5395C52.1594 18.1332 52.14 17.6691 52.2949 17.2435C52.4497 16.8179 52.759 16.4793 53.1751 16.2857C53.4071 16.1795 53.649 16.1214 53.8906 16.1214C54.0842 16.1214 54.2775 16.1602 54.4711 16.2279C54.8967 16.3827 55.2352 16.692 55.4285 17.1081C55.8252 17.9495 55.4578 18.9651 54.6065 19.3615Z" fill="white"/>
<path d="M18.4607 18.2402L13.6343 15.9865C12.2124 15.3192 10.568 15.7446 9.60101 16.9055C9.57179 16.799 9.5524 16.683 9.51392 16.5765C9.18492 15.6673 8.51768 14.9419 7.63747 14.5261C6.75726 14.1199 5.77057 14.0713 4.86143 14.4003C3.95228 14.7292 3.22688 15.3965 2.81079 16.2767C1.96935 18.0854 2.75292 20.2521 4.56166 21.0935C5.055 21.3256 5.57728 21.4321 6.08973 21.4321C6.63139 21.4321 7.16351 21.3062 7.64702 21.0742C7.38602 22.5444 8.11143 24.0727 9.5333 24.74L14.3501 26.9842C14.4856 27.042 14.621 27.071 14.7564 27.071C15.1239 27.071 15.472 26.8678 15.6363 26.5102L18.9057 19.4975C19.1282 19.014 18.9251 18.4335 18.4416 18.2113L18.4607 18.2402ZM7.64702 18.5305C7.2506 19.3719 6.24453 19.7492 5.39326 19.3525C4.54227 18.9561 4.18434 17.95 4.57121 17.0987C4.76478 16.6925 5.10332 16.3733 5.52867 16.2284C5.72225 16.1607 5.91582 16.1219 6.10911 16.1219C6.35101 16.1219 6.59291 16.1702 6.82497 16.2862C7.23122 16.4798 7.55037 16.8184 7.69534 17.244C7.85014 17.6696 7.83076 18.1242 7.63747 18.54L7.64702 18.5305ZM14.3114 24.8369L10.3649 22.9989C9.63949 22.6604 9.32034 21.7996 9.65888 21.0742L10.8872 18.4434C11.1291 17.9211 11.6612 17.6019 12.2029 17.6019C12.406 17.6019 12.6187 17.6503 12.8122 17.7373L16.7584 19.575L14.3015 24.8369H14.3114Z" fill="white"/>
<path d="M57.1794 43.7155C58.0208 41.9067 57.2373 39.7401 55.4285 38.8986C54.4129 38.4247 53.2911 38.4825 52.3527 38.9276C52.6236 37.4475 51.8886 35.9096 50.4667 35.2519L45.6499 33.008C45.1661 32.7855 44.5859 32.9886 44.3634 33.4724L41.094 40.4848C40.8715 40.9683 41.0747 41.5488 41.5585 41.7713L46.3848 44.0248C46.8493 44.2377 47.3328 44.3439 47.8067 44.3439C48.803 44.3439 49.7607 43.8992 50.4086 43.1156C50.4378 43.2221 50.4569 43.3283 50.4957 43.4348C50.8247 44.3439 51.4919 45.0693 52.3721 45.4854C52.8556 45.7175 53.3782 45.824 53.9005 45.824C54.3163 45.824 54.7419 45.7464 55.1383 45.6015C56.0478 45.2725 56.7732 44.6052 57.189 43.725L57.1794 43.7155ZM50.3409 38.9276L49.1126 41.5583C48.774 42.2837 47.9132 42.5933 47.1878 42.2644L43.2413 40.4267L45.6982 35.1648L49.6444 37.0028C50.3701 37.3413 50.6892 38.2021 50.3507 38.9276H50.3409ZM54.4711 43.7733C54.0454 43.9281 53.5813 43.9087 53.1751 43.7155C52.7688 43.5219 52.4497 43.1833 52.3044 42.7577C52.1496 42.3321 52.169 41.8775 52.3626 41.4617C52.6528 40.8428 53.2619 40.4848 53.9005 40.4848C54.1421 40.4848 54.384 40.5332 54.616 40.6396C55.4673 41.0361 55.8252 42.0421 55.4384 42.8931C55.2448 43.2994 54.9063 43.6185 54.4806 43.7638L54.4711 43.7733Z" fill="white"/>
<path d="M17.4259 29.9999C17.4259 36.935 23.0648 42.5739 30 42.5739C36.9349 42.5739 42.5741 36.935 42.5741 29.9999C42.5741 23.0647 36.9349 17.4258 30 17.4258C23.0648 17.4258 17.4259 23.0647 17.4259 29.9999ZM32.7274 21.5751C32.5631 20.7047 32.0891 19.9599 31.4219 19.4666C36.6157 20.163 40.6299 24.622 40.6299 29.9999C40.6299 30.087 40.6201 30.174 40.6201 30.2513C40.4846 30.0676 40.3686 29.8549 40.3301 29.6032C40.1753 28.8199 39.7592 28.1234 39.1597 27.6205C38.3183 26.9336 37.2155 26.7305 36.2095 27.0884L32.5631 28.4136C32.002 28.6263 31.3443 28.2684 31.0929 27.6107L30.8125 26.8757C30.59 26.2857 30.7254 25.6087 31.1412 25.2313L31.7022 24.7186C32.5729 23.9449 32.9598 22.7649 32.7274 21.5655V21.5751ZM27.7752 19.602C28.4522 20.1535 29.1875 20.5788 29.9612 20.8497C30.4062 21.0143 30.7254 21.4107 30.822 21.933C30.9187 22.4553 30.7737 22.9585 30.4062 23.2776L29.8353 23.7901C28.82 24.6995 28.4716 26.218 28.9844 27.5624L29.2647 28.2976C29.903 29.9515 31.6345 30.8028 33.2014 30.2224L36.8382 28.8971C37.3316 28.7232 37.728 28.9553 37.912 29.1101C38.1635 29.3228 38.3472 29.6324 38.4149 29.9611C38.6276 31.0832 39.3628 32.0022 40.3301 32.4275C39.2274 37.1188 35.0101 40.6298 29.9806 40.6298C28.3944 40.6298 26.8949 40.2718 25.5506 39.6529L27.0981 39.624C27.7945 39.624 28.4815 39.4304 29.1099 39.0629C30.3964 38.2794 31.1316 36.8673 31.0347 35.3584C30.8703 33.1917 29.0521 31.5765 26.8371 31.6732L25.5795 31.7504C24.9412 31.7797 24.3223 31.5282 23.9062 31.025C23.4806 30.5221 23.3261 29.8644 23.471 29.2163L23.7419 28.0363C24.1771 26.2663 23.5388 24.3801 22.1267 23.2195L21.9236 23.0453C23.4129 21.3141 25.4441 20.0664 27.7558 19.5731L27.7752 19.602ZM21.875 27.6107L21.6041 28.81C21.3142 30.0482 21.6235 31.3251 22.4459 32.2921C23.2584 33.2594 24.4383 33.7721 25.715 33.6946L26.9627 33.6173C28.0848 33.569 29.0422 34.4009 29.1293 35.5132C29.1776 36.2869 28.8006 37.0221 28.1429 37.4185C27.8235 37.6023 27.4754 37.6989 27.1079 37.6989L24.7286 37.7377C23.9739 37.7571 23.239 37.6894 22.5425 37.5734C20.5885 35.6387 19.3701 32.9596 19.3701 29.9999C19.3701 28.0462 19.9117 26.218 20.8304 24.6509L20.9369 24.738C21.7783 25.4249 22.1556 26.5467 21.8944 27.6205L21.875 27.6107Z" fill="white"/>
</svg>
