<svg width="322" height="281" viewBox="0 0 322 281" fill="none" xmlns="http://www.w3.org/2000/svg">
<path d="M140.875 121H60.375V40.5H140.875V121ZM80.5 60.625V100.875H120.75V60.625H80.5ZM261.625 40.5V121H181.125V40.5H261.625ZM241.5 100.875V60.625H201.25V100.875H241.5ZM0 0.25H322V121H301.875V20.375H20.125V141.125H161V161.25H0V0.25ZM312.724 175.243L320.428 193.953L300.932 201.972C301.561 205.116 301.875 208.313 301.875 211.562C301.875 214.812 301.561 218.009 300.932 221.153L320.428 229.172L312.724 247.882L293.228 239.706C289.559 245.052 285.052 249.559 279.706 253.228L287.882 272.724L269.172 280.428L261.153 260.932C258.009 261.561 254.812 261.875 251.562 261.875C248.313 261.875 245.116 261.561 241.972 260.932L233.953 280.428L215.243 272.724L223.419 253.228C218.073 249.559 213.566 245.052 209.897 239.706L190.401 247.882L182.697 229.172L202.193 221.153C201.564 218.009 201.25 214.812 201.25 211.562C201.25 208.313 201.564 205.116 202.193 201.972L182.697 193.953L190.401 175.243L209.897 183.419C213.566 178.073 218.073 173.566 223.419 169.897L215.243 150.401L233.953 142.697L241.972 162.193C245.116 161.564 248.313 161.25 251.562 161.25C254.812 161.25 258.009 161.564 261.153 162.193L269.172 142.697L287.882 150.401L279.706 169.897C285.052 173.566 289.559 178.073 293.228 183.419L312.724 175.243ZM281.75 211.562C281.75 207.37 280.964 203.439 279.392 199.771C277.819 196.102 275.671 192.905 272.945 190.18C270.22 187.454 267.023 185.306 263.354 183.733C259.686 182.161 255.755 181.375 251.562 181.375C247.37 181.375 243.439 182.161 239.771 183.733C236.102 185.306 232.905 187.454 230.18 190.18C227.454 192.905 225.306 196.102 223.733 199.771C222.161 203.439 221.375 207.37 221.375 211.562C221.375 215.755 222.161 219.686 223.733 223.354C225.306 227.023 227.454 230.22 230.18 232.945C232.905 235.671 236.102 237.819 239.771 239.392C243.439 240.964 247.37 241.75 251.562 241.75C255.755 241.75 259.686 240.964 263.354 239.392C267.023 237.819 270.22 235.671 272.945 232.945C275.671 230.22 277.819 227.023 279.392 223.354C280.964 219.686 281.75 215.755 281.75 211.562Z" fill="#005250"/>
</svg>
